<?xml version="1.0" encoding="iso-8859-1"?>
<!-- Uploaded to: SVG Repo, www.svgrepo.com, Generator: SVG Repo Mixer Tools -->
<!DOCTYPE svg PUBLIC "-//W3C//DTD SVG 1.1//EN" "http://www.w3.org/Graphics/SVG/1.1/DTD/svg11.dtd">
<svg fill="#000000" height="800px" width="800px" version="1.1" id="Capa_1" xmlns="http://www.w3.org/2000/svg" xmlns:xlink="http://www.w3.org/1999/xlink" 
	 viewBox="0 0 446.956 446.956" xml:space="preserve">
<g>
	<g>
		<path d="M446.718,246.181c-0.013-0.076-0.028-0.152-0.046-0.228l-13.036-55.872l2.544-0.44c1.046-0.181,1.977-0.77,2.588-1.637
			c0.611-0.867,0.853-1.941,0.672-2.987l-2.54-14.67c-0.377-2.178-2.449-3.637-4.623-3.259l-16.688,2.888l-3.302-19.074
			c-1.331-7.691-7.955-13.273-15.751-13.273c-0.914,0-1.836,0.079-2.742,0.236l-10.275,1.778c-4.211,0.728-7.887,3.053-10.35,6.546
			c-2.462,3.493-3.417,7.736-2.689,11.947l3.301,19.074l-101.183,17.51l-3.301-19.074c-1.331-7.691-7.955-13.274-15.75-13.274
			c-0.914,0-1.838,0.079-2.743,0.236l-10.275,1.778c-8.693,1.504-14.541,9.8-13.037,18.492l3.301,19.075l-16.689,2.888
			c-1.045,0.181-1.976,0.77-2.587,1.637c-0.611,0.867-0.853,1.941-0.672,2.987l2.54,14.669c0.337,1.945,2.027,3.318,3.936,3.318
			c0.227,0,0.457-0.02,0.687-0.06l2.542-0.439l4.86,42.646c-2.392-1.879-5.339-3.102-8.592-3.359l-7.585-0.602l-4.421-87.397
			c-0.101-2.007-1.676-3.626-3.679-3.785l-144.66-11.475c-2.011-0.164-3.813,1.192-4.229,3.158L34.1,251.747l-7.584-0.602
			c-8.835-0.699-16.526,6-17.215,14.685c-0.006,0.077-0.01,0.154-0.012,0.231l-1.222,57.361l-2.573-0.204
			c-2.212-0.181-4.129,1.469-4.304,3.671l-1.177,14.84c-0.084,1.058,0.255,2.105,0.944,2.912c0.689,0.808,1.669,1.308,2.727,1.392
			l16.884,1.339l-1.531,19.299c-0.698,8.795,5.89,16.518,14.684,17.216l10.395,0.824c0.429,0.034,0.855,0.051,1.279,0.051
			c8.281,0,15.281-6.473,15.937-14.735l1.531-19.299l102.365,8.12l-1.531,19.299c-0.698,8.795,5.89,16.517,14.685,17.215
			l10.395,0.824c0.429,0.034,0.855,0.051,1.279,0.051c8.281,0,15.281-6.472,15.936-14.734l1.531-19.299l16.882,1.339
			c0.107,0.009,0.215,0.013,0.321,0.013c2.065,0,3.816-1.589,3.982-3.684l1.178-14.841c0.084-1.058-0.256-2.105-0.944-2.912
			c-0.689-0.808-1.669-1.308-2.727-1.392l-2.573-0.204l6.757-49.007c2.95,3.657,7.449,5.947,12.435,5.947
			c0.913,0,1.836-0.079,2.741-0.236l7.497-1.298l25.949,83.574c0.526,1.695,2.094,2.814,3.817,2.814
			c0.227,0,0.455-0.019,0.685-0.059l142.989-24.745c1.98-0.343,3.398-2.101,3.314-4.108l-3.643-87.432l7.497-1.298
			c4.212-0.728,7.888-3.054,10.35-6.547C446.492,254.635,447.447,250.392,446.718,246.181z M69.314,300.11
			c-0.774,9.754-9.037,17.395-18.812,17.395c-0.5,0-1.003-0.02-1.51-0.06c-10.382-0.823-18.158-9.94-17.334-20.322
			c0.813-10.253,9.905-18.162,20.322-17.335c5.029,0.398,9.602,2.731,12.876,6.57C68.13,290.197,69.713,295.081,69.314,300.11z
			 M48.787,252.912l15.087-71.178c0.417-1.966,2.225-3.321,4.23-3.158l119.088,9.446c2.003,0.159,3.577,1.778,3.679,3.785
			l3.676,72.667L48.787,252.912z M204.491,310.834c-0.774,9.754-9.036,17.395-18.812,17.395c-0.5,0-1.003-0.021-1.51-0.061
			c-5.029-0.398-9.603-2.731-12.877-6.57c-3.274-3.838-4.857-8.723-4.458-13.752c0.813-10.253,9.907-18.162,20.322-17.335
			C197.539,291.335,205.315,300.451,204.491,310.834z M246.463,250.97c-1.776-10.262,5.128-20.056,15.39-21.832
			c1.07-0.186,2.159-0.279,3.238-0.279c9.203,0,17.023,6.59,18.594,15.67c1.776,10.262-5.128,20.056-15.391,21.833
			c-1.07,0.185-2.159,0.279-3.237,0.279C255.854,266.641,248.034,260.051,246.463,250.97z M411.381,345.288l-117.714,20.37
			c-0.229,0.04-0.458,0.059-0.684,0.059c-1.724,0-3.29-1.117-3.817-2.813l-21.575-69.486l144.074-24.933l3.031,72.695
			C414.78,343.187,413.362,344.945,411.381,345.288z M401.912,243.24c-1.071,0.185-2.16,0.279-3.238,0.279
			c-9.204,0-17.024-6.591-18.595-15.672c-1.774-10.26,5.129-20.054,15.39-21.831c1.07-0.186,2.159-0.279,3.237-0.279
			c9.203,0,17.023,6.59,18.596,15.669C419.076,231.667,412.171,241.462,401.912,243.24z"/>
		<path d="M244.774,369.919c-2.557-2.107-6.34-1.742-8.445,0.816l-38.418,46.639c-2.106,2.558-1.741,6.339,0.816,8.445
			c1.118,0.921,2.468,1.369,3.812,1.369c1.73,0,3.448-0.745,4.635-2.186l38.417-46.639
			C247.698,375.806,247.331,372.025,244.774,369.919z"/>
		<path d="M262.078,377.762c-0.086-0.003-0.171-0.005-0.255-0.005c-3.198,0-5.855,2.523-5.991,5.749l-1.037,24.794
			c-0.138,3.311,2.434,6.107,5.744,6.246c0.086,0.003,0.171,0.005,0.255,0.005c3.198,0,5.856-2.523,5.991-5.749l1.037-24.794
			C267.959,380.697,265.388,377.901,262.078,377.762z"/>
	</g>
	<path d="M218.151,82.189c-0.624-1.438-2.03-2.379-3.597-2.406c-1.553-0.075-3.005,0.861-3.681,2.275
		c-0.134,0.28-2.118,4.453-4.636,10.723c-7.438-34.101-24.017-69.057-24.82-70.736c-0.664-1.391-2.068-2.276-3.609-2.276
		s-2.945,0.886-3.609,2.275c-0.107,0.224-9.364,19.7-17.221,43.483c-3.316-8.153-5.843-13.467-5.989-13.771
		c-0.652-1.366-2.021-2.247-3.535-2.275c-1.511-0.052-2.914,0.8-3.618,2.142c-0.338,0.645-8.356,16.012-14.771,35.05
		c-8.834,26.214-10.118,45.805-3.818,58.228c4.141,8.167,11.388,13.081,21.538,14.607c5.675,0.852,59.092,7.228,67.698,7.228
		c8.453,0,12.945-4.142,15.223-7.615C242.485,139.637,220.68,88.011,218.151,82.189z M149.823,128.451
		c-0.548,0.852-1.226,1.566-1.993,2.166c0.365-3.621-1.26-7.993-2.476-10.664c-0.65-1.427-2.073-2.343-3.641-2.343
		s-2.991,0.916-3.641,2.343c-1.216,2.671-2.841,7.043-2.476,10.664c-0.767-0.6-1.445-1.314-1.993-2.166
		c-2.546-3.957-2.473-10.333,0.223-19.492c1.804-6.128,4.147-11.298,4.246-11.515c0.649-1.427,2.073-2.343,3.64-2.343
		s2.991,0.916,3.64,2.343c0.099,0.217,2.442,5.387,4.246,11.515C152.296,118.118,152.369,124.494,149.823,128.451z M192.655,147.083
		c-1.155,1.796-2.945,3.776-5.643,5.207c4.213-8.893-3.466-26.722-5.109-30.331c-0.65-1.427-2.073-2.343-3.641-2.343
		c-1.567,0-2.991,0.916-3.64,2.343c-1.644,3.609-9.324,21.438-5.11,30.331c-2.697-1.431-4.487-3.411-5.643-5.207
		c-11.247-17.479,8.467-61.991,10.752-67.009c0.65-1.427,2.073-2.343,3.641-2.343c1.567,0,2.991,0.916,3.641,2.343
		C184.188,85.091,203.902,129.604,192.655,147.083z M222.59,152.588c-0.548,0.853-1.226,1.567-1.993,2.166
		c0.365-3.62-1.26-7.992-2.476-10.663c-0.65-1.427-2.073-2.343-3.641-2.343s-2.991,0.916-3.641,2.343
		c-1.216,2.671-2.841,7.043-2.476,10.664c-0.767-0.6-1.445-1.314-1.993-2.166c-2.546-3.957-2.473-10.333,0.223-19.492
		c1.804-6.128,4.147-11.298,4.246-11.515c0.649-1.427,2.072-2.343,3.64-2.343c1.567,0,2.991,0.916,3.64,2.343
		c0.099,0.217,2.442,5.387,4.246,11.515C225.063,142.256,225.136,148.631,222.59,152.588z"/>
	<path d="M302.138,68.192c-0.649-1.427-2.073-2.343-3.641-2.343s-2.991,0.916-3.641,2.343c-0.794,1.743-11.691,25.922-17.763,51.319
		c-3.179-18.146-11.698-37.355-13.161-40.566c-0.65-1.427-2.073-2.343-3.641-2.343c-1.567,0-2.991,0.916-3.641,2.343
		c-2.31,5.073-22.243,50.081-10.88,67.741c2.132,3.314,6.382,7.263,14.52,7.263c6.354,0,10.33-2.408,12.786-5.04
		c0.03,8.289,1.447,15.651,4.951,21.097c4.337,6.739,11.223,10.156,20.468,10.156s16.131-3.417,20.468-10.156
		C336.063,143.433,303.531,71.252,302.138,68.192z M267.809,140.447c-0.554,0.861-1.239,1.583-2.016,2.188
		c0.361-3.643-1.274-8.042-2.498-10.73c-0.65-1.427-2.073-2.343-3.641-2.343c-1.567,0-2.991,0.916-3.641,2.343
		c-1.224,2.688-2.859,7.088-2.498,10.73c-0.776-0.605-1.462-1.326-2.016-2.188c-5.421-8.424,2.81-27.527,4.514-31.271
		c0.649-1.427,2.073-2.343,3.641-2.343c1.567,0,2.991,0.916,3.641,2.343C264.999,112.92,273.23,132.023,267.809,140.447z
		 M308.492,163.483c-0.665,1.033-1.624,2.153-2.976,3.078c0.227-4.805-2.11-10.65-3.378-13.435
		c-0.649-1.427-2.073-2.343-3.641-2.343s-2.991,0.916-3.641,2.343c-1.268,2.784-3.604,8.63-3.378,13.435
		c-1.352-0.925-2.311-2.045-2.976-3.078c-7.07-10.986,4.053-36.756,6.354-41.81c0.649-1.427,2.073-2.343,3.641-2.343
		s2.991,0.916,3.641,2.343C304.439,126.727,315.562,152.497,308.492,163.483z"/>
</g>
</svg>