<?xml version="1.0" encoding="UTF-8"?>
<svg version="1.1" xmlns="http://www.w3.org/2000/svg" width="64" height="64">
<path d="M0 0 C1.32 0.66 2.64 1.32 4 2 C4 2.66 4 3.32 4 4 C4.86625 3.4740625 4.86625 3.4740625 5.75 2.9375 C8.35801776 1.85082593 9.39417629 2.06934867 12 3 C12 4.32 12 5.64 12 7 C14.31 7 16.62 7 19 7 C18.67 8.98 18.34 10.96 18 13 C19.98 13.33 21.96 13.66 24 14 C23.33333333 16.66666667 22.66666667 19.33333333 22 22 C23.98 22.66 25.96 23.32 28 24 C28.04254356 25.99954746 28.04080783 28.00041636 28 30 C27.505 30.495 27.505 30.495 27 31 C27.804375 31.474375 28.60875 31.94875 29.4375 32.4375 C32 34 32 34 33 35 C33 39.95 33 44.9 33 50 C11.88 50 -9.24 50 -31 50 C-31 45.05 -31 40.1 -31 35 C-28 32 -28 32 -25 31 C-25.33 30.67 -25.66 30.34 -26 30 C-26.04080783 28.00041636 -26.04254356 25.99954746 -26 24 C-24.02 23.34 -22.04 22.68 -20 22 C-20.33 21.236875 -20.66 20.47375 -21 19.6875 C-22 17 -22 17 -22 14 C-20.02 13.67 -18.04 13.34 -16 13 C-16.33 11.02 -16.66 9.04 -17 7 C-14.69 7 -12.38 7 -10 7 C-9.67 5.35 -9.34 3.7 -9 2 C-4.25 2.875 -4.25 2.875 -2 4 C-1.34 2.68 -0.68 1.36 0 0 Z M-21 31 C-21.33 31.66 -21.66 32.32 -22 33 C-21.34 33 -20.68 33 -20 33 C-20.33 32.34 -20.66 31.68 -21 31 Z M22 31 C22 31.66 22 32.32 22 33 C22.66 32.67 23.32 32.34 24 32 C23.34 31.67 22.68 31.34 22 31 Z " fill="#E8CD6E" transform="translate(31,7)"/>
<path d="M0 0 C0.66 0 1.32 0 2 0 C2 0.66 2 1.32 2 2 C3.65 1.67 5.3 1.34 7 1 C7.33 1.99 7.66 2.98 8 4 C9.32 4 10.64 4 12 4 C12 5.65 12 7.3 12 9 C12.99 9 13.98 9 15 9 C14.67 9.99 14.34 10.98 14 12 C12.68 12 11.36 12 10 12 C10.18129815 15.43793339 10.18129815 15.43793339 11 19 C12.93597032 20.51294288 12.93597032 20.51294288 15 21 C14.34 21 13.68 21 13 21 C13 21.66 13 22.32 13 23 C13.78375 22.95875 14.5675 22.9175 15.375 22.875 C18 23 18 23 20 25 C20.125 27.625 20.125 27.625 20 30 C19.01 30 18.02 30 17 30 C17 29.34 17 28.68 17 28 C16.34 28 15.68 28 15 28 C15 31.96 15 35.92 15 40 C5.69329798 41.28368304 -3.75346301 41.8493074 -13 40 C-13 36.04 -13 32.08 -13 28 C-13.66 28 -14.32 28 -15 28 C-15 28.66 -15 29.32 -15 30 C-15.99 30 -16.98 30 -18 30 C-18.125 27.625 -18.125 27.625 -18 25 C-16 23 -16 23 -13.375 22.875 C-12.59125 22.91625 -11.8075 22.9575 -11 23 C-11 22.34 -11 21.68 -11 21 C-11.66 20.67 -12.32 20.34 -13 20 C-11.68 19.67 -10.36 19.34 -9 19 C-8.67 16.69 -8.34 14.38 -8 12 C-9.65 11.67 -11.3 11.34 -13 11 C-13 10.34 -13 9.68 -13 9 C-12.01 9 -11.02 9 -10 9 C-10 7.35 -10 5.7 -10 4 C-8.68 4 -7.36 4 -6 4 C-5.67 3.01 -5.34 2.02 -5 1 C-3.35 1.33 -1.7 1.66 0 2 C0 1.34 0 0.68 0 0 Z " fill="#F8E9A6" transform="translate(31,16)"/>
<path d="M0 0 C0.94746094 -0.0103125 1.89492188 -0.020625 2.87109375 -0.03125 C5.5625 0.5 5.5625 0.5 7.89453125 1.953125 C10.40736136 5.79004591 9.99276416 9.27849167 9.8125 13.75 C9.73 16.6375 9.6475 19.525 9.5625 22.5 C3.6225 22.5 -2.3175 22.5 -8.4375 22.5 C-8.499375 19.6125 -8.56125 16.725 -8.625 13.75 C-8.65231201 12.84668945 -8.67962402 11.94337891 -8.70776367 11.01269531 C-8.74335368 7.58840117 -8.71132056 5.09510334 -7.265625 1.953125 C-4.77455625 -0.02695529 -3.15822197 -0.03428192 0 0 Z " fill="#2B2720" transform="translate(31.4375,34.5)"/>
<path d="M0 0 C0.04254356 1.99954746 0.04080783 4.00041636 0 6 C-0.33 6.33 -0.66 6.66 -1 7 C-0.195625 7.474375 0.60875 7.94875 1.4375 8.4375 C4 10 4 10 5 11 C5.07320163 13.5327765 5.09227569 16.03103918 5.0625 18.5625 C5.041875 21.016875 5.02125 23.47125 5 26 C-0.94 26 -6.88 26 -13 26 C-13 21.71 -13 17.42 -13 13 C-12.34 13 -11.68 13 -11 13 C-11 13.66 -11 14.32 -11 15 C-10.01 15 -9.02 15 -8 15 C-8.66 13.02 -9.32 11.04 -10 9 C-11.65 8.67 -13.3 8.34 -15 8 C-15 7.67 -15 7.34 -15 7 C-12.33333333 7 -9.66666667 7 -7 7 C-7.33 6.01 -7.66 5.02 -8 4 C-7.6875 1.875 -7.6875 1.875 -7 0 C-4.3333581 -1.33332095 -2.83319697 -0.67102033 0 0 Z " fill="#8BC971" transform="translate(59,31)"/>
<path d="M0 0 C1.32 0.66 2.64 1.32 4 2 C4 2.66 4 3.32 4 4 C4.86625 3.4740625 4.86625 3.4740625 5.75 2.9375 C8.35801776 1.85082593 9.39417629 2.06934867 12 3 C12 4.32 12 5.64 12 7 C14.31 7 16.62 7 19 7 C18.67 8.98 18.34 10.96 18 13 C19.98 13.33 21.96 13.66 24 14 C23.38722388 16.96175123 22.74627478 18.38058783 21 21 C20.34 21 19.68 21 19 21 C19.33 19.68 19.66 18.36 20 17 C18.68 16.34 17.36 15.68 16 15 C16 13.02 16 11.04 16 9 C14.35 9.33 12.7 9.66 11 10 C10.505 7.525 10.505 7.525 10 5 C8.02 5.66 6.04 6.32 4 7 C3.34 5.68 2.68 4.36 2 3 C1.34 3 0.68 3 0 3 C-0.66 4.32 -1.32 5.64 -2 7 C-3.98 6.34 -5.96 5.68 -8 5 C-8.33 6.65 -8.66 8.3 -9 10 C-10.65 9.67 -12.3 9.34 -14 9 C-14 10.98 -14 12.96 -14 15 C-15.98 15.99 -15.98 15.99 -18 17 C-17.67 18.32 -17.34 19.64 -17 21 C-20 20 -20 20 -22 17 C-22 16.01 -22 15.02 -22 14 C-20.02 13.67 -18.04 13.34 -16 13 C-16.33 11.02 -16.66 9.04 -17 7 C-14.69 7 -12.38 7 -10 7 C-9.67 5.35 -9.34 3.7 -9 2 C-4.25 2.875 -4.25 2.875 -2 4 C-1.34 2.68 -0.68 1.36 0 0 Z " fill="#080703" transform="translate(31,7)"/>
<path d="M0 0 C1.093125 0.00257812 2.18625 0.00515625 3.3125 0.0078125 C4.405625 0.00523438 5.49875 0.00265625 6.625 0 C9.3125 0.1328125 9.3125 0.1328125 10.3125 1.1328125 C10.35313832 2.79898365 10.355221 4.46669345 10.3125 6.1328125 C9.3225 6.1328125 8.3325 6.1328125 7.3125 6.1328125 C6.9825 10.4228125 6.6525 14.7128125 6.3125 19.1328125 C4.3325 19.1328125 2.3525 19.1328125 0.3125 19.1328125 C-0.0175 14.8428125 -0.3475 10.5528125 -0.6875 6.1328125 C-1.6775 6.1328125 -2.6675 6.1328125 -3.6875 6.1328125 C-3.730221 4.46669345 -3.72813832 2.79898365 -3.6875 1.1328125 C-2.6875 0.1328125 -2.6875 0.1328125 0 0 Z " fill="#ED5871" transform="translate(28.6875,36.8671875)"/>
<path d="M0 0 C0.04254356 1.99954746 0.04080783 4.00041636 0 6 C-0.33 6.33 -0.66 6.66 -1 7 C-0.195625 7.474375 0.60875 7.94875 1.4375 8.4375 C4 10 4 10 5 11 C5.07313567 13.53049402 5.09247527 16.03304837 5.0625 18.5625 C5.05798828 19.27341797 5.05347656 19.98433594 5.04882812 20.71679688 C5.03700864 22.47790013 5.01907263 24.23896036 5 26 C2.69 26 0.38 26 -2 26 C-1.67 22.37 -1.34 18.74 -1 15 C-0.67 15.66 -0.34 16.32 0 17 C0.99 17 1.98 17 3 17 C2.34 15.02 1.68 13.04 1 11 C0.2575 10.938125 -0.485 10.87625 -1.25 10.8125 C-4.92401842 9.72699456 -6.07012464 8.26594292 -8 5 C-7.875 2.25 -7.875 2.25 -7 0 C-4.3333581 -1.33332095 -2.83319697 -0.67102033 0 0 Z " fill="#000000" transform="translate(59,31)"/>
<path d="M0 0 C2.4375 0.125 2.4375 0.125 5 1 C6.3125 3.5625 6.3125 3.5625 7 6 C4.11658466 10.21422242 1.95696581 11.76075855 -3 13 C-3.33 14.65 -3.66 16.3 -4 18 C-3.01 18 -2.02 18 -1 18 C-0.67 17.34 -0.34 16.68 0 16 C0.33 19.63 0.66 23.26 1 27 C-1.31 27 -3.62 27 -6 27 C-6.0809723 24.56183415 -6.14046972 22.12635616 -6.1875 19.6875 C-6.21263672 18.99720703 -6.23777344 18.30691406 -6.26367188 17.59570312 C-6.33768077 12.48908926 -6.33768077 12.48908926 -4.67578125 10.08203125 C-3 9 -3 9 0 8 C-0.33 7.67 -0.66 7.34 -1 7 C-1.125 4 -1.125 4 -1 1 C-0.67 0.67 -0.34 0.34 0 0 Z " fill="#140F0C" transform="translate(6,30)"/>
<path d="M0 0 C-0.33 5.61 -0.66 11.22 -1 17 C-2.65 17 -4.3 17 -6 17 C-6 13.04 -6 9.08 -6 5 C-6.66 5 -7.32 5 -8 5 C-8 5.66 -8 6.32 -8 7 C-8.99 7 -9.98 7 -11 7 C-11.125 4.625 -11.125 4.625 -11 2 C-7.51891439 -1.48108561 -4.6345134 -1.15862835 0 0 Z " fill="#7AD4E9" transform="translate(24,39)"/>
<path d="M0 0 C0 5.28 0 10.56 0 16 C-1.98 16 -3.96 16 -6 16 C-6.33 13.36 -6.66 10.72 -7 8 C-7.99 8 -8.98 8 -10 8 C-10.125 5.625 -10.125 5.625 -10 3 C-7.02931146 0.02931146 -4.09966187 0 0 0 Z " fill="#BBB7BA" transform="translate(12,40)"/>
<path d="M0 0 C1.44375 0.12375 2.8875 0.2475 4.375 0.375 C5.59316406 0.47941406 5.59316406 0.47941406 6.8359375 0.5859375 C9 1 9 1 11 3 C11.125 5.625 11.125 5.625 11 8 C10.01 8 9.02 8 8 8 C8 7.34 8 6.68 8 6 C7.34 6 6.68 6 6 6 C6 9.96 6 13.92 6 18 C4.35 18 2.7 18 1 18 C0.67 12.06 0.34 6.12 0 0 Z " fill="#F2A256" transform="translate(40,38)"/>
<path d="M0 0 C1.95766281 -0.08082094 3.91626728 -0.13910778 5.875 -0.1875 C7.51082031 -0.23970703 7.51082031 -0.23970703 9.1796875 -0.29296875 C10.11039063 -0.19628906 11.04109375 -0.09960938 12 0 C14.06723714 3.10085571 14.24497423 3.72931681 14.1953125 7.23046875 C14.18564453 8.43413086 14.18564453 8.43413086 14.17578125 9.66210938 C14.15902344 10.49548828 14.14226563 11.32886719 14.125 12.1875 C14.11597656 13.03248047 14.10695313 13.87746094 14.09765625 14.74804688 C14.07410703 16.83215243 14.03823647 18.91611217 14 21 C11.69 21 9.38 21 7 21 C7.33 15.72 7.66 10.44 8 5 C8.33 5.66 8.66 6.32 9 7 C9.99 7 10.98 7 12 7 C11.67 5.35 11.34 3.7 11 2 C7.37 1.67 3.74 1.34 0 1 C0 0.67 0 0.34 0 0 Z " fill="#311711" transform="translate(27,36)"/>
<path d="M0 0 C2.875 -0.125 2.875 -0.125 6 0 C9.02093215 3.02093215 8.46676834 6.56372072 8.625 10.625 C8.66367187 11.42679688 8.70234375 12.22859375 8.7421875 13.0546875 C8.83653931 15.03607556 8.91936215 17.01800645 9 19 C6.69 19 4.38 19 2 19 C2 14.71 2 10.42 2 6 C2.66 6 3.32 6 4 6 C4 6.66 4 7.32 4 8 C4.99 8 5.98 8 7 8 C6.34 6.02 5.68 4.04 5 2 C3.35 1.67 1.7 1.34 0 1 C0 0.67 0 0.34 0 0 Z " fill="#1B110A" transform="translate(44,38)"/>
<path d="M0 0 C0.94875 0.04125 1.8975 0.0825 2.875 0.125 C2.875 0.455 2.875 0.785 2.875 1.125 C0.895 1.785 -1.085 2.445 -3.125 3.125 C-3.455 4.775 -3.785 6.425 -4.125 8.125 C-3.135 8.125 -2.145 8.125 -1.125 8.125 C-1.125 7.465 -1.125 6.805 -1.125 6.125 C-0.465 6.125 0.195 6.125 0.875 6.125 C0.875 10.415 0.875 14.705 0.875 19.125 C-1.435 19.125 -3.745 19.125 -6.125 19.125 C-6.01138398 16.33243781 -5.8846411 13.54155882 -5.75 10.75 C-5.7190625 9.9559375 -5.688125 9.161875 -5.65625 8.34375 C-5.24265455 0.20970618 -5.24265455 0.20970618 0 0 Z " fill="#141B17" transform="translate(17.125,37.875)"/>
<path d="M0 0 C2.4375 0.125 2.4375 0.125 5 1 C6.3125 3.5625 6.3125 3.5625 7 6 C3.9342948 10.65987191 1.41342681 11.85485202 -4 13 C-2.25 9.125 -2.25 9.125 0 8 C-0.33 7.67 -0.66 7.34 -1 7 C-1.125 4 -1.125 4 -1 1 C-0.67 0.67 -0.34 0.34 0 0 Z " fill="#312519" transform="translate(6,30)"/>
<path d="M0 0 C0.25 2.75 0.25 2.75 0 6 C-2 8.375 -2 8.375 -4 10 C-6.0625 7.8125 -6.0625 7.8125 -8 5 C-7.875 2.25 -7.875 2.25 -7 0 C-4.3333581 -1.33332095 -2.83319697 -0.67102033 0 0 Z " fill="#3B3120" transform="translate(59,31)"/>
<path d="M0 0 C1.67542976 0.28604898 3.34385343 0.61781233 5 1 C5 2.65 5 4.3 5 6 C3.34385343 6.38218767 1.67542976 6.71395102 0 7 C-1 6 -1 6 -1.125 3.5 C-1 1 -1 1 0 0 Z " fill="#4D3525" transform="translate(30,26)"/>
<path d="M0 0 C0.99 0 1.98 0 3 0 C3 3.63 3 7.26 3 11 C2.01 11 1.02 11 0 11 C0 7.37 0 3.74 0 0 Z " fill="#C4815C" transform="translate(36,45)"/>
<path d="M0 0 C0.99 0 1.98 0 3 0 C3 3.63 3 7.26 3 11 C2.01 11 1.02 11 0 11 C0 7.37 0 3.74 0 0 Z " fill="#B77655" transform="translate(25,45)"/>
<path d="M0 0 C1.65 0 3.3 0 5 0 C5 1.98 5 3.96 5 6 C3.35 6 1.7 6 0 6 C0 4.02 0 2.04 0 0 Z " fill="#33201E" transform="translate(41,29)"/>
<path d="M0 0 C1.65 0 3.3 0 5 0 C5 1.98 5 3.96 5 6 C3.35 6 1.7 6 0 6 C0 4.02 0 2.04 0 0 Z " fill="#5F4E34" transform="translate(18,29)"/>
<path d="M0 0 C1.32 0 2.64 0 4 0 C4 2.31 4 4.62 4 7 C2.68 7 1.36 7 0 7 C0 4.69 0 2.38 0 0 Z " fill="#C19E6A" transform="translate(59,49)"/>
<path d="M0 0 C0.99 0 1.98 0 3 0 C3 2.97 3 5.94 3 9 C2.01 9 1.02 9 0 9 C0 6.03 0 3.06 0 0 Z " fill="#E5AD75" transform="translate(13,47)"/>
<path d="M0 0 C0.99 0 1.98 0 3 0 C3 2.97 3 5.94 3 9 C2.01 9 1.02 9 0 9 C0 6.03 0 3.06 0 0 Z " fill="#784B4A" transform="translate(48,47)"/>
<path d="M0 0 C0.78375 0.04125 1.5675 0.0825 2.375 0.125 C1.385 0.455 0.395 0.785 -0.625 1.125 C-0.295 2.445 0.035 3.765 0.375 5.125 C-0.285 5.125 -0.945 5.125 -1.625 5.125 C-1.625 5.785 -1.625 6.445 -1.625 7.125 C-2.615 7.125 -3.605 7.125 -4.625 7.125 C-4.75 4.75 -4.75 4.75 -4.625 2.125 C-2.625 0.125 -2.625 0.125 0 0 Z " fill="#44A8CB" transform="translate(17.625,38.875)"/>
<path d="M0 0 C3.25696479 0.41755959 4.63443291 0.63443291 7 3 C6.625 6.125 6.625 6.125 6 9 C5.67 9 5.34 9 5 9 C4.7525 8.05125 4.505 7.1025 4.25 6.125 C3.3142923 2.91306809 3.3142923 2.91306809 0.875 1.625 C0.25625 1.41875 -0.3625 1.2125 -1 1 C-0.67 0.67 -0.34 0.34 0 0 Z " fill="#0B1209" transform="translate(57,39)"/>
<path d="M0 0 C2.125 0.375 2.125 0.375 4 1 C3.01 1 2.02 1 1 1 C1.185625 1.61875 1.37125 2.2375 1.5625 2.875 C2 5 2 5 1 7 C0.01 7 -0.98 7 -2 7 C-2.125 4.625 -2.125 4.625 -2 2 C-1.34 1.34 -0.68 0.68 0 0 Z " fill="#A09BA0" transform="translate(4,41)"/>
<path d="M0 0 C0.99 0 1.98 0 3 0 C3 2.31 3 4.62 3 7 C2.01 7 1.02 7 0 7 C0 4.69 0 2.38 0 0 Z " fill="#D79564" transform="translate(2,49)"/>
<path d="M0 0 C0.66 0 1.32 0 2 0 C2 1.98 2 3.96 2 6 C1.01 6 0.02 6 -1 6 C-1.042721 4.33388095 -1.04063832 2.66617115 -1 1 C-0.67 0.67 -0.34 0.34 0 0 Z " fill="#E83E4D" transform="translate(26,37)"/>
</svg>
