<?xml version="1.0" encoding="UTF-8"?>
<svg version="1.1" xmlns="http://www.w3.org/2000/svg" width="512" height="512">
<path d="M0 0 C2.51953125 2.44921875 2.51953125 2.44921875 4.8125 5.6875 C5.43753418 6.55121216 5.43753418 6.55121216 6.07519531 7.43237305 C7.40275722 9.27529747 8.70113783 11.13677138 10 13 C10.8819896 14.23329329 11.76609184 15.46507856 12.65234375 16.6953125 C14.35311421 19.05990651 16.04418861 21.43087912 17.7265625 23.80859375 C20.42051641 27.59031255 23.19067488 31.30351958 26 35 C32.55454351 31.35369092 39.0337324 27.64214075 45.359375 23.609375 C46.28145752 23.02438232 47.20354004 22.43938965 48.15356445 21.83666992 C49.98420781 20.67002208 51.8085084 19.49335047 53.62573242 18.3059082 C62.33396276 12.77057763 62.33396276 12.77057763 68 13 C71.76932 15.12528583 73.29384807 17.13903083 74.4855957 21.18603516 C74.90197613 22.88234081 75.29758899 24.58383638 75.67578125 26.2890625 C75.89066696 27.1886972 76.10555267 28.08833191 76.32695007 29.01522827 C77.00674702 31.88127396 77.6596001 34.75272138 78.3125 37.625 C78.76978462 39.5655055 79.22875057 41.50561562 79.68945312 43.4453125 C80.5234188 46.98553957 81.35330421 50.5265182 82.16137695 54.07275391 C82.32394485 54.78460846 82.48651276 55.49646301 82.65400696 56.22988892 C83 58 83 58 83 60 C83.99773437 59.72414062 84.99546875 59.44828125 86.0234375 59.1640625 C92.11760412 57.64253345 98.32094234 56.70381322 104.51855469 55.71289062 C106.62798119 55.37452179 108.73584811 55.02741295 110.84375 54.6796875 C112.20043549 54.46040882 113.55720369 54.24164113 114.9140625 54.0234375 C116.1304541 53.82669434 117.3468457 53.62995117 118.60009766 53.42724609 C127.08197943 52.36137699 127.08197943 52.36137699 130.875 55 C134.94885403 60.75132334 132.78814022 68.46930124 131.6875 75.09375 C131.55432373 75.92588013 131.42114746 76.75801025 131.28393555 77.61535645 C130.8617904 80.24455158 130.43104723 82.87225125 130 85.5 C129.71036554 87.29417859 129.42129752 89.08844873 129.1328125 90.8828125 C128.42841733 95.25629358 127.71631345 99.62845583 127 104 C127.56031921 104.05279114 128.12063843 104.10558228 128.69793701 104.15997314 C135.98106513 104.89918546 142.97830132 106.46841384 150.07617188 108.21875 C152.25543086 108.75132722 154.43970614 109.25846451 156.625 109.765625 C158.02642116 110.10782458 159.42747739 110.45152287 160.828125 110.796875 C162.0852832 111.09948242 163.34244141 111.40208984 164.63769531 111.71386719 C168.4794901 113.18341228 170.39674896 114.8461372 173 118 C174.17473063 123.06647626 171.96515901 126.37227149 169.3918457 130.57446289 C168.87066162 131.39551514 168.34947754 132.21656738 167.8125 133.0625 C167.28164795 133.92286865 166.7507959 134.7832373 166.20385742 135.66967773 C164.48202113 138.45462415 162.74183074 141.22752269 161 144 C159.1820422 146.91727844 157.36753689 149.83665846 155.55541992 152.75756836 C154.40910252 154.60237024 153.25834235 156.44442018 152.1027832 158.28344727 C151.31907349 159.53726196 151.31907349 159.53726196 150.51953125 160.81640625 C149.82500854 161.92157593 149.82500854 161.92157593 149.11645508 163.04907227 C147.85669143 165.10203076 147.85669143 165.10203076 147 168 C147.515625 168.22816406 148.03125 168.45632812 148.5625 168.69140625 C151.91811489 170.49289822 154.91994679 172.70478361 158 174.9375 C158.61617188 175.38029297 159.23234375 175.82308594 159.8671875 176.27929688 C164.83866021 179.85854386 164.83866021 179.85854386 166.85620117 181.62744141 C169.59701331 183.38223538 171.37539748 183.3687026 174.61328125 183.37109375 C176.2384668 183.39719727 176.2384668 183.39719727 177.89648438 183.42382812 C180.16209722 183.43289576 182.42772877 183.43814427 184.69335938 183.43945312 C191.31360903 183.55325706 195.77342087 183.75383598 201 188 C206.12631013 193.94185947 205.61301199 200.76953557 205.52148438 208.27832031 C205.50011453 210.36382297 205.5212994 212.44585503 205.546875 214.53125 C205.56777132 223.53030836 204.77870387 230.57235951 198.81640625 237.55859375 C198.07261719 238.17863281 197.32882812 238.79867187 196.5625 239.4375 C195.45068359 240.39462891 195.45068359 240.39462891 194.31640625 241.37109375 C187.52368205 246.1477649 179.96414728 245.78496729 172 245 C163.50868188 242.51689914 158.57526206 237.35130487 154.1875 229.9375 C151.99518408 224.34064642 152.23850834 217.9298107 152 212 C150.67280634 212.85254809 149.36363375 213.733186 148.0625 214.625 C147.33160156 215.11226562 146.60070312 215.59953125 145.84765625 216.1015625 C143.33223653 218.68611638 143.23062473 220.43073039 143 224 C144.05118331 226.78107213 144.05118331 226.78107213 145.82421875 229.40625 C146.44103516 230.39753906 147.05785156 231.38882813 147.69335938 232.41015625 C148.68045898 233.93962891 148.68045898 233.93962891 149.6875 235.5 C150.32623047 236.51964844 150.96496094 237.53929687 151.62304688 238.58984375 C154.14717229 242.60442998 156.69295822 246.58411692 159.4296875 250.45703125 C161.82897521 254.34244493 161.51468354 256.51490061 161 261 C160.01 261.99 159.02 262.98 158 264 C165.26 264.33 172.52 264.66 180 265 C180.66 263.02 181.32 261.04 182 259 C186.52512394 255.53568585 193.09241629 256.67237812 198.5 256.6875 C199.62148438 256.67138672 200.74296875 256.65527344 201.8984375 256.63867188 C216.2119807 256.6304077 228.42825799 260.13996742 239.08203125 269.921875 C247.62639093 279.17971481 251.46185719 289.43650914 251.41992188 301.86254883 C251.42839142 302.80353424 251.43686096 303.74451965 251.44558716 304.71401978 C251.46880977 307.79516445 251.46998346 310.87580606 251.46875 313.95703125 C251.47585616 316.10935158 251.48355583 318.26167002 251.49182129 320.41398621 C251.50522898 324.91007775 251.50684961 329.40599373 251.50097656 333.90209961 C251.49505809 339.66709743 251.52577827 345.4312596 251.56609344 351.19609547 C251.59190847 355.63387095 251.59485398 360.07144285 251.59120178 364.50928307 C251.5928962 366.63559777 251.60256948 368.76192155 251.62034607 370.88816261 C251.6424324 373.85415997 251.63288927 376.8184334 251.61523438 379.78442383 C251.63512924 381.10217552 251.63512924 381.10217552 251.65542603 382.44654846 C251.57345954 388.36006606 251.57345954 388.36006606 248.68811035 391.57987976 C245.01926715 393.51811808 242.94331338 393.09536483 239 392 C237.0625 390.6875 237.0625 390.6875 236 389 C236 387.68 236 386.36 236 385 C229.07 385 222.14 385 215 385 C214.34 386.98 213.68 388.96 213 391 C210.37351759 393.2373739 208.92167185 392.99587747 205.4375 392.8125 C200.69462025 391.6914557 200.69462025 391.6914557 199 389 C199 387.68 199 386.36 199 385 C185.8 385 172.6 385 159 385 C158.67 386.65 158.34 388.3 158 390 C156.375 391.875 156.375 391.875 154 393 C150.48945736 392.87682307 148.00189707 392.67870447 145.0625 390.6875 C144 389 144 389 144 385 C137.07 385 130.14 385 123 385 C122.34 386.65 121.68 388.3 121 390 C119.3125 391.875 119.3125 391.875 117 393 C113.48945736 392.87682307 111.00189707 392.67870447 108.0625 390.6875 C107 389 107 389 107 385 C93.8 385 80.6 385 67 385 C66.67 386.65 66.34 388.3 66 390 C64.375 391.875 64.375 391.875 62 393 C58.48172645 392.87655181 56.00344373 392.73585873 53.125 390.625 C52 389 52 389 51 386 C47.72963272 385.85489838 44.46008993 385.76600627 41.1875 385.6875 C40.25873047 385.64560547 39.32996094 385.60371094 38.37304688 385.56054688 C35.82458735 385.5145458 33.50433699 385.51975587 31 386 C28.94765809 388.28041062 28.94765809 388.28041062 28 391 C25 393 25 393 21.5 392.8125 C16.69868319 391.6979086 16.69868319 391.6979086 15 389 C15 387.68 15 386.36 15 385 C1.8 385 -11.4 385 -25 385 C-25.33 386.65 -25.66 388.3 -26 390 C-27.625 391.875 -27.625 391.875 -30 393 C-33.51827355 392.87655181 -35.99655627 392.73585873 -38.875 390.625 C-40 389 -40 389 -41 386 C-44.27036728 385.85489838 -47.53991007 385.76600627 -50.8125 385.6875 C-51.74126953 385.64560547 -52.67003906 385.60371094 -53.62695312 385.56054688 C-56.17541265 385.5145458 -58.49566301 385.51975587 -61 386 C-63.05234191 388.28041062 -63.05234191 388.28041062 -64 391 C-67 393 -67 393 -70.5 392.8125 C-75.30131681 391.6979086 -75.30131681 391.6979086 -77 389 C-77 387.68 -77 386.36 -77 385 C-90.2 385 -103.4 385 -117 385 C-117.33 386.65 -117.66 388.3 -118 390 C-119.625 391.875 -119.625 391.875 -122 393 C-125.5 393 -125.5 393 -129 392 C-131.4375 389.5625 -131.4375 389.5625 -133 387 C-133 386.34 -133 385.68 -133 385 C-139.93 385 -146.86 385 -154 385 C-154.33 386.65 -154.66 388.3 -155 390 C-156.625 391.875 -156.625 391.875 -159 393 C-162.51054264 392.87682307 -164.99810293 392.67870447 -167.9375 390.6875 C-169 389 -169 389 -169 385 C-182.2 385 -195.4 385 -209 385 C-209.33 386.65 -209.66 388.3 -210 390 C-211.625 391.875 -211.625 391.875 -214 393 C-217.48690547 392.87765244 -219.98013593 392.71390485 -222.875 390.6875 C-224 389 -224 389 -225 385 C-231.93 385 -238.86 385 -246 385 C-246.33 386.65 -246.66 388.3 -247 390 C-248.625 391.875 -248.625 391.875 -251 393 C-256.9784386 392.79023022 -256.9784386 392.79023022 -259.69019318 390.69254875 C-262.05212499 387.64043093 -261.43234071 383.67280197 -261.41992188 379.96142578 C-261.42839142 379.03577316 -261.43686096 378.11012054 -261.44558716 377.15641785 C-261.46904468 374.08591062 -261.46997644 371.01590272 -261.46875 367.9453125 C-261.4758518 365.80597738 -261.48355083 363.66664416 -261.49182129 361.52731323 C-261.50529015 357.03312909 -261.50682651 352.53912059 -261.50097656 348.04492188 C-261.4951111 342.31426083 -261.52552983 336.58445599 -261.56609344 330.85396004 C-261.59209441 326.42867576 -261.59483603 322.00359338 -261.59120178 317.57824326 C-261.59288482 315.46774031 -261.60244784 313.3572272 -261.62034607 311.24679947 C-261.73684275 295.7971484 -260.80844276 283.44395073 -250.23046875 271.21875 C-238.25314041 259.30434983 -225.15802095 256.82145656 -208.875 256.8125 C-207.69550781 256.80025391 -206.51601562 256.78800781 -205.30078125 256.77539062 C-203.60115234 256.77249023 -203.60115234 256.77249023 -201.8671875 256.76953125 C-200.32200439 256.76336792 -200.32200439 256.76336792 -198.74560547 256.75708008 C-195.84421031 257.01378363 -194.30422829 257.21695859 -192 259 C-191.34 260.98 -190.68 262.96 -190 265 C-179.11 264.505 -179.11 264.505 -168 264 C-168.99 263.01 -169.98 262.02 -171 261 C-172.54483974 252.78894269 -168.09837054 247.44298216 -163.6875 240.8125 C-162.99720703 239.74580078 -162.30691406 238.67910156 -161.59570312 237.58007812 C-160.31136316 235.59586594 -159.01948106 233.6164997 -157.7175293 231.64379883 C-154.24440509 226.72474113 -154.24440509 226.72474113 -152.8125 221.0625 C-154.57683167 216.51238148 -157.98768494 214.5773869 -162 212 C-162.01417969 212.89460937 -162.02835937 213.78921875 -162.04296875 214.7109375 C-162.39807514 223.71336442 -163.49958413 230.95310506 -169.640625 237.83984375 C-176.98052842 244.60115118 -183.58748228 245.58720518 -193.40625 245.3359375 C-201.78995091 244.55224372 -205.87776628 240.56809619 -211.3359375 234.4140625 C-215.89071374 227.80642936 -215.37238669 220.37588553 -215.37060547 212.68725586 C-215.37498183 210.5712855 -215.41136551 208.45739961 -215.44921875 206.34179688 C-215.56566231 193.252728 -215.56566231 193.252728 -211 188 C-205.8009031 183.784152 -202.00689316 183.74457757 -195.45727539 184.00390625 C-180.65053112 184.56294904 -172.34663349 180.26965615 -161.57446289 170.3828125 C-160 169 -160 169 -158 168 C-158.57619076 163.94022552 -159.85919403 161.23015967 -162.0625 157.7890625 C-162.6908374 156.79825684 -163.3191748 155.80745117 -163.96655273 154.78662109 C-164.63759033 153.74328613 -165.30862793 152.69995117 -166 151.625 C-167.36649079 149.46392434 -168.73237708 147.30246632 -170.09765625 145.140625 C-171.92538757 142.26184877 -173.75479399 139.38419375 -175.58935547 136.50976562 C-176.88455599 134.47233113 -178.16328216 132.42559428 -179.4375 130.375 C-180.13746094 129.26898438 -180.83742188 128.16296875 -181.55859375 127.0234375 C-183.19785217 123.584993 -183.68884282 121.75092515 -183 118 C-179.08547678 113.06539472 -175.44199177 111.84832835 -169.55859375 110.54296875 C-168.75390152 110.35027908 -167.94920929 110.15758942 -167.12013245 109.95906067 C-165.42685836 109.55688382 -163.73154636 109.16320226 -162.03442383 108.77758789 C-159.43841165 108.18770715 -156.84902574 107.5738595 -154.25976562 106.95507812 C-152.60970366 106.56631074 -150.95932273 106.17889414 -149.30859375 105.79296875 C-148.53559433 105.61179001 -147.76259491 105.43061127 -146.96617126 105.24394226 C-143.52730248 104.46509455 -140.54618461 104 -137 104 C-137.18175781 102.89076172 -137.36351562 101.78152344 -137.55078125 100.63867188 C-138.22805837 96.4948352 -138.89697926 92.34968454 -139.56347656 88.20410156 C-139.85223899 86.41532491 -140.14321965 84.62690481 -140.43652344 82.83886719 C-140.85946109 80.25808434 -141.27421495 77.67609402 -141.6875 75.09375 C-141.81874268 74.30383667 -141.94998535 73.51392334 -142.08520508 72.70007324 C-144.10307493 59.93038112 -144.10307493 59.93038112 -141.25 54.9375 C-133.12333594 50.09275796 -118.44419423 55.0779992 -109.25 56.5625 C-107.76308502 56.79923166 -106.27610615 57.03556232 -104.7890625 57.27148438 C-101.19196185 57.84304781 -97.5957494 58.41998888 -94 59 C-91.96616127 53.42273418 -90.4373994 47.83117118 -89.1328125 42.04296875 C-88.96972595 41.32827423 -88.8066394 40.61357971 -88.63861084 39.87722778 C-87.95802319 36.88932136 -87.27979632 33.90135095 -86.63037109 30.90649414 C-86.14871991 28.6976161 -85.64288137 26.49543311 -85.1328125 24.29296875 C-84.99303986 23.62001266 -84.85326721 22.94705658 -84.70925903 22.25370789 C-83.93442617 18.99480921 -83.01544372 17.01771202 -80.80419922 14.48168945 C-76.99850236 12.4708263 -75.1189705 12.8782961 -71 14 C-67.74609375 15.6105957 -67.74609375 15.6105957 -64.4375 17.67578125 C-63.84251709 18.04221237 -63.24753418 18.40864349 -62.63452148 18.78617859 C-60.74918741 19.95052325 -58.87454409 21.13087983 -57 22.3125 C-55.12324992 23.47954044 -53.24444734 24.64322252 -51.36547852 25.8066864 C-49.65835393 26.86628545 -47.95598178 27.93353002 -46.25390625 29.0012207 C-42.87375824 31.07754662 -39.45366277 33.04912807 -36 35 C-29.79425423 27.10552252 -23.84885187 19.06923067 -18.11230469 10.82641602 C-8.97147574 -2.27923978 -8.97147574 -2.27923978 0 0 Z " fill="#FDDE76" transform="translate(261,60)"/>
<path d="M0 0 C4.27868777 0.85573755 5.78215396 3.20354477 8.125 6.625 C8.55216309 7.21498779 8.97932617 7.80497559 9.41943359 8.4128418 C10.27271248 9.59307651 11.11843105 10.7788184 11.95605469 11.97021484 C13.5053063 14.16337012 15.12488058 16.30019839 16.75 18.4375 C17.925625 20.0153125 17.925625 20.0153125 19.125 21.625 C22.76879123 21.06536522 25.27029554 20.1486951 28.33984375 18.12109375 C29.49323242 17.38149414 29.49323242 17.38149414 30.66992188 16.62695312 C32.26403328 15.58459946 33.85519544 14.53772131 35.44335938 13.48632812 C38.86199709 11.3035494 41.48931954 9.74772675 45.50390625 8.97265625 C48.125 9.625 48.125 9.625 49.83203125 11.45703125 C51.67399547 15.97012182 52.7468969 20.56396654 53.8125 25.3125 C54.14991211 26.75592773 54.14991211 26.75592773 54.49414062 28.22851562 C56.125 35.29226824 56.125 35.29226824 56.125 37.625 C63.07091564 37.01683227 69.93800456 36.09515653 76.828125 35.02734375 C79.99508232 34.64085488 82.94096925 34.40874358 86.125 34.625 C88.125 36.625 88.125 36.625 88.390625 38.65625 C88.35656323 44.03800927 87.75063465 48.90739111 86.5703125 54.15234375 C85.87517736 58.01217307 85.9987857 61.71235678 86.125 65.625 C92.23040867 68.49813349 98.20165712 69.83327257 104.8046875 71.0859375 C105.57554687 71.24320312 106.34640625 71.40046875 107.140625 71.5625 C107.83446289 71.69527344 108.52830078 71.82804687 109.24316406 71.96484375 C111.54013698 72.77063186 112.63511915 73.71139424 114.125 75.625 C114.06340524 81.00684216 111.54246925 84.64258784 108.625 88.9375 C108.20863281 89.56978516 107.79226563 90.20207031 107.36328125 90.85351562 C104.35528274 95.39471726 104.35528274 95.39471726 103.125 96.625 C101.51173594 96.7340779 99.89416803 96.78082755 98.27734375 96.80078125 C97.27896484 96.82462891 96.28058594 96.84847656 95.25195312 96.87304688 C93.15319067 96.9154591 91.05417579 96.94700651 88.95507812 96.96679688 C81.1110002 97.18259684 75.21991177 98.3713748 69.6875 104.1875 C65.99925684 109.94115933 66.78592307 116.44779088 66.6875 123.0625 C66.64173828 124.28388672 66.59597656 125.50527344 66.54882812 126.76367188 C66.44135868 135.5434579 67.96817354 142.38270802 73.125 149.625 C78.99626624 154.6712171 83.76112254 156.80518219 91.4375 156.8125 C92.75363281 156.82667969 94.06976563 156.84085938 95.42578125 156.85546875 C98.88628431 156.63987247 101.01096668 156.01942554 104.125 154.625 C105.115 154.625 106.105 154.625 107.125 154.625 C108.94921875 156.85546875 108.94921875 156.85546875 110.8125 159.8125 C111.43511719 160.77542969 112.05773437 161.73835937 112.69921875 162.73046875 C114.16185991 165.69983066 114.44006163 167.37332619 114.125 170.625 C113.08859375 170.66238281 112.0521875 170.69976562 110.984375 170.73828125 C109.61454816 170.80395788 108.24475809 170.87040464 106.875 170.9375 C106.19308594 170.96005859 105.51117188 170.98261719 104.80859375 171.00585938 C101.76036302 171.16862898 99.39339374 171.48910444 96.65625 172.875 C94.66943441 175.14564638 94.70258317 176.33830973 94.875 179.3125 C94.91109375 180.12074219 94.9471875 180.92898438 94.984375 181.76171875 C95.03078125 182.37660156 95.0771875 182.99148438 95.125 183.625 C98.30345224 184.68448408 100.63321275 184.76522532 103.97265625 184.80078125 C105.13603516 184.82462891 106.29941406 184.84847656 107.49804688 184.87304688 C109.93016819 184.91553497 112.36250968 184.94704258 114.79492188 184.96679688 C125.03003042 185.20874831 133.79261782 187.14473457 141.296875 194.51171875 C151.59354556 206.4144939 149.72402777 219.67149194 149.125 234.625 C141.865 234.625 134.605 234.625 127.125 234.625 C126.99479167 231.36979167 126.86458333 228.11458333 126.734375 224.859375 C126.03048761 221.12335732 125.1112028 219.90336214 122.125 217.625 C119.625 216.95833333 119.625 216.95833333 117.125 217.625 C114.72561976 219.2732843 113.33095278 220.59037785 112.74982452 223.50972748 C112.59069171 225.94735781 112.5650405 228.35693786 112.57910156 230.79980469 C112.56876389 231.726978 112.55842621 232.65415131 112.54777527 233.60942078 C112.51829267 236.67208165 112.51684693 239.73408322 112.515625 242.796875 C112.50064706 244.92109441 112.48392074 247.04530215 112.46551514 249.16949463 C112.42178619 254.75901823 112.40183015 260.34838472 112.38677979 265.93804932 C112.36722877 271.64238801 112.32525649 277.34655654 112.28515625 283.05078125 C112.20979379 294.24216388 112.16161091 305.43342343 112.125 316.625 C98.925 316.625 85.725 316.625 72.125 316.625 C71.795 318.275 71.465 319.925 71.125 321.625 C69.5 323.5 69.5 323.5 67.125 324.625 C63.60672645 324.50155181 61.12844373 324.36085873 58.25 322.25 C57.125 320.625 57.125 320.625 56.125 317.625 C52.85463272 317.47989838 49.58508993 317.39100627 46.3125 317.3125 C45.38373047 317.27060547 44.45496094 317.22871094 43.49804688 317.18554688 C40.94958735 317.1395458 38.62933699 317.14475587 36.125 317.625 C34.07265809 319.90541062 34.07265809 319.90541062 33.125 322.625 C30.125 324.625 30.125 324.625 26.625 324.4375 C21.82368319 323.3229086 21.82368319 323.3229086 20.125 320.625 C20.125 319.305 20.125 317.985 20.125 316.625 C6.925 316.625 -6.275 316.625 -19.875 316.625 C-20.205 318.275 -20.535 319.925 -20.875 321.625 C-22.5 323.5 -22.5 323.5 -24.875 324.625 C-28.39327355 324.50155181 -30.87155627 324.36085873 -33.75 322.25 C-34.875 320.625 -34.875 320.625 -35.875 317.625 C-39.14536728 317.47989838 -42.41491007 317.39100627 -45.6875 317.3125 C-46.61626953 317.27060547 -47.54503906 317.22871094 -48.50195312 317.18554688 C-51.05041265 317.1395458 -53.37066301 317.14475587 -55.875 317.625 C-57.92734191 319.90541062 -57.92734191 319.90541062 -58.875 322.625 C-61.875 324.625 -61.875 324.625 -65.375 324.4375 C-70.17631681 323.3229086 -70.17631681 323.3229086 -71.875 320.625 C-71.875 319.305 -71.875 317.985 -71.875 316.625 C-85.075 316.625 -98.275 316.625 -111.875 316.625 C-111.8843457 313.76811523 -111.89369141 310.91123047 -111.90332031 307.96777344 C-111.93706471 298.53600501 -111.99259941 289.10445597 -112.05890274 279.67286301 C-112.0984373 273.95360911 -112.13059649 268.23451057 -112.14599609 262.51513672 C-112.16112322 256.99715213 -112.19549869 251.47959446 -112.24330902 245.96179962 C-112.25816355 243.85508176 -112.26604334 241.74830296 -112.26688385 239.6415329 C-112.26924299 236.69382535 -112.29623787 233.74730779 -112.32910156 230.79980469 C-112.3240712 229.92586563 -112.31904083 229.05192657 -112.31385803 228.15150452 C-112.38038305 224.30309357 -112.42997773 222.2595418 -114.68255615 219.04766846 C-116.9463587 217.28857153 -116.9463587 217.28857153 -120.5 217.6875 C-124.13016924 218.3000845 -124.13016924 218.3000845 -125.875 221.625 C-126.3353764 224.82306665 -126.3353764 224.82306665 -126.5 228.3125 C-126.62375 230.395625 -126.7475 232.47875 -126.875 234.625 C-134.135 234.625 -141.395 234.625 -148.875 234.625 C-150.08218891 204.4899879 -150.08218891 204.4899879 -140.90625 194.4765625 C-134.00464547 187.97312747 -127.17565353 185.57171573 -117.8046875 185.4140625 C-116.66128906 185.38570312 -115.51789063 185.35734375 -114.33984375 185.328125 C-111.93896247 185.27587514 -109.53789351 185.2316546 -107.13671875 185.1953125 C-105.42548828 185.14890625 -105.42548828 185.14890625 -103.6796875 185.1015625 C-102.63796387 185.08174316 -101.59624023 185.06192383 -100.52294922 185.04150391 C-97.86717043 184.82625547 -97.86717043 184.82625547 -96.03955078 183.31396484 C-94.05729302 180.43906774 -94.45522601 177.98319188 -94.875 174.625 C-97.7086818 171.54740635 -100.47569301 171.22387835 -104.55859375 171.00585938 C-105.58146484 170.97202148 -105.58146484 170.97202148 -106.625 170.9375 C-107.32238281 170.90333984 -108.01976562 170.86917969 -108.73828125 170.83398438 C-110.44997108 170.75191705 -112.1624576 170.68677081 -113.875 170.625 C-114.26383243 165.40353599 -112.52967805 162.70051229 -109.6015625 158.5234375 C-107.875 156.625 -107.875 156.625 -104.625 155.5 C-101.875 155.625 -101.875 155.625 -99.875 156.625 C-90.83251652 157.4162173 -82.25217684 157.59568705 -74.875 151.625 C-67.36274512 142.952188 -66.48889038 134.9527919 -66.4375 123.8125 C-66.38819336 121.94368164 -66.38819336 121.94368164 -66.33789062 120.03710938 C-66.30109271 113.73128556 -66.28799383 108.33834441 -70.22290039 103.17260742 C-76.59377222 97.20468123 -83.73570689 97.29011766 -92 97.5 C-101.76491927 97.4179148 -101.76491927 97.4179148 -105.71875 94.59375 C-107.50017708 91.99974215 -108.70858855 89.54102862 -109.875 86.625 C-110.69294398 85.34420749 -111.52434429 84.07180404 -112.375 82.8125 C-113.875 79.625 -113.875 79.625 -113.75 76.8125 C-112.875 74.625 -112.875 74.625 -110.875 72.625 C-108.78369141 71.97070312 -108.78369141 71.97070312 -106.2265625 71.40625 C-104.84210938 71.09107422 -104.84210938 71.09107422 -103.4296875 70.76953125 C-102.46289062 70.55683594 -101.49609375 70.34414062 -100.5 70.125 C-98.59531187 69.70258933 -96.69161743 69.27566707 -94.7890625 68.84375 C-93.9429541 68.65748047 -93.0968457 68.47121094 -92.22509766 68.27929688 C-89.91374039 67.63578581 -87.97616512 66.77164101 -85.875 65.625 C-85.66597105 60.27153626 -85.82903109 55.26667443 -86.875 50 C-87.78833632 45.40069927 -88.21569641 41.30957566 -87.875 36.625 C-85.875 34.625 -85.875 34.625 -84.125 34.578125 C-83.3825 34.67609375 -82.64 34.7740625 -81.875 34.875 C-80.9984375 34.98199219 -80.121875 35.08898437 -79.21875 35.19921875 C-78.1153125 35.33972656 -77.011875 35.48023438 -75.875 35.625 C-73.52927655 35.89425822 -71.18274745 36.1554279 -68.8359375 36.41503906 C-67.20545881 36.59555635 -65.57524342 36.7784691 -63.9453125 36.96386719 C-59.92031525 37.44671966 -59.92031525 37.44671966 -55.875 37.625 C-55.43435612 35.76188924 -54.99387968 33.89873874 -54.55419922 32.03540039 C-54.18422762 30.46799209 -53.81345712 28.90077215 -53.44189453 27.33374023 C-52.48778569 23.29462313 -51.57943711 19.25441746 -50.75 15.1875 C-49.875 11.625 -49.875 11.625 -47.875 9.625 C-43.46015046 8.74475952 -40.95338393 9.96928156 -37.30859375 12.28515625 C-34.77838407 13.97929664 -32.27741362 15.71183628 -29.77539062 17.44726562 C-28.96134766 17.99189453 -28.14730469 18.53652344 -27.30859375 19.09765625 C-26.57697021 19.60562744 -25.84534668 20.11359863 -25.09155273 20.63696289 C-22.2027191 21.92467186 -20.82522587 21.69455024 -17.875 20.625 C-16.17896304 19.13589758 -16.17896304 19.13589758 -14.8671875 17.16796875 C-14.35542969 16.46736328 -13.84367188 15.76675781 -13.31640625 15.04492188 C-12.79949219 14.30822266 -12.28257812 13.57152344 -11.75 12.8125 C-11.22535156 12.08740234 -10.70070312 11.36230469 -10.16015625 10.61523438 C-9.17968912 9.25871466 -8.20488765 7.89806785 -7.23779297 6.53198242 C-6.78807129 5.90267822 -6.33834961 5.27337402 -5.875 4.625 C-5.38273926 3.89837158 -4.89047852 3.17174316 -4.38330078 2.4230957 C-2.875 0.625 -2.875 0.625 0 0 Z " fill="#FEEEAB" transform="translate(255.875,128.375)"/>
<path d="M0 0 C1.60841393 -0.00592703 3.21682345 -0.01318124 4.82522583 -0.02168274 C8.17880423 -0.03349021 11.53171593 -0.02697949 14.88525391 -0.00756836 C19.14407277 0.01528592 23.40089167 -0.01146033 27.65951347 -0.05263042 C30.97658383 -0.07843441 34.29319007 -0.0755675 37.61032486 -0.06473732 C39.17852722 -0.0632691 40.74676855 -0.07072228 42.31487656 -0.0879879 C55.98314776 -0.21408161 67.39062486 2.6595742 78.16796875 11.7109375 C89.68330046 23.36362903 92.43028527 35.78959399 92.43920898 51.59106445 C92.4475325 52.85391769 92.45585602 54.11677094 92.46443176 55.41789246 C92.48621426 58.85554416 92.49515166 62.29310706 92.50025821 65.73081994 C92.50391628 67.8808974 92.51016327 70.03095205 92.5172596 72.18102074 C92.54168197 79.68750394 92.55479366 87.19391856 92.55834961 94.70043945 C92.56199585 101.69157171 92.59198673 108.68226797 92.63375419 115.67326671 C92.66842134 121.68706429 92.68389729 127.70071676 92.68459564 133.71461362 C92.68538865 137.30189783 92.69413994 140.88873526 92.72259331 144.47591591 C92.7535665 148.46889956 92.74473156 152.46124979 92.73217773 156.4543457 C92.75442917 158.23495895 92.75442917 158.23495895 92.77713013 160.05154419 C92.70557611 168.01286077 92.70557611 168.01286077 89.82191467 171.46842957 C86.15210218 173.14808517 83.98043886 172.76800385 80.1328125 171.69921875 C77.54825965 169.80388 77.17005744 168.81095358 76.1328125 165.69921875 C72.86244522 165.55411713 69.59290243 165.46522502 66.3203125 165.38671875 C65.39154297 165.34482422 64.46277344 165.30292969 63.50585938 165.25976562 C60.95739985 165.21376455 58.63714949 165.21897462 56.1328125 165.69921875 C54.08047059 167.97962937 54.08047059 167.97962937 53.1328125 170.69921875 C50.1328125 172.69921875 50.1328125 172.69921875 46.6328125 172.51171875 C41.83149569 171.39712735 41.83149569 171.39712735 40.1328125 168.69921875 C40.1328125 167.37921875 40.1328125 166.05921875 40.1328125 164.69921875 C26.9328125 164.69921875 13.7328125 164.69921875 0.1328125 164.69921875 C-0.1971875 166.34921875 -0.5271875 167.99921875 -0.8671875 169.69921875 C-2.4921875 171.57421875 -2.4921875 171.57421875 -4.8671875 172.69921875 C-8.38546105 172.57577056 -10.86374377 172.43507748 -13.7421875 170.32421875 C-14.8671875 168.69921875 -14.8671875 168.69921875 -15.8671875 165.69921875 C-19.13755478 165.55411713 -22.40709757 165.46522502 -25.6796875 165.38671875 C-26.60845703 165.34482422 -27.53722656 165.30292969 -28.49414062 165.25976562 C-31.04260015 165.21376455 -33.36285051 165.21897462 -35.8671875 165.69921875 C-37.91952941 167.97962937 -37.91952941 167.97962937 -38.8671875 170.69921875 C-41.8671875 172.69921875 -41.8671875 172.69921875 -45.3671875 172.51171875 C-49.82574833 171.4766957 -49.82574833 171.4766957 -51.8671875 168.69921875 C-52.24471092 166.33054352 -52.24471092 166.33054352 -52.24813843 163.47717285 C-52.2565979 162.39510559 -52.26505737 161.31303833 -52.27377319 160.19818115 C-52.2677005 159.01065247 -52.26162781 157.82312378 -52.25537109 156.59960938 C-52.26062805 155.34887634 -52.26588501 154.09814331 -52.27130127 152.80950928 C-52.28225934 149.37498331 -52.27966465 145.94099808 -52.27016401 142.50650215 C-52.26256532 138.90549114 -52.26961484 135.30450314 -52.27432251 131.70349121 C-52.27978508 125.64733747 -52.27258124 119.59129335 -52.25830078 113.53515625 C-52.24203214 106.55574896 -52.24721833 99.57660539 -52.26378 92.59720469 C-52.27745127 86.59360214 -52.27928536 80.59007846 -52.27146399 74.58646536 C-52.2668107 71.00627428 -52.26609622 67.42620649 -52.27607346 63.84602356 C-52.28645119 59.84185549 -52.27201439 55.83813135 -52.25537109 51.83398438 C-52.26144379 50.66264954 -52.26751648 49.4913147 -52.27377319 48.28448486 C-52.18355165 36.50348403 -49.47320513 27.42228491 -42.8671875 17.69921875 C-42.2896875 16.81234375 -41.7121875 15.92546875 -41.1171875 15.01171875 C-29.55044935 3.12368232 -15.9598181 -0.08814312 0 0 Z " fill="#010101" transform="translate(235.8671875,280.30078125)"/>
<path d="M0 0 C1.15757812 -0.02449219 2.31515625 -0.04898437 3.5078125 -0.07421875 C11.88564619 -0.10324127 11.88564619 -0.10324127 16.01171875 2.1796875 C17.75 4.375 17.75 4.375 18.3125 7.875 C17.6576981 11.94932292 16.94726822 12.88211787 13.75 15.375 C11.05200195 15.87329102 11.05200195 15.87329102 7.98828125 15.87890625 C6.30895508 15.90694336 6.30895508 15.90694336 4.59570312 15.93554688 C2.84676758 15.93651367 2.84676758 15.93651367 1.0625 15.9375 C-10.72831258 15.98389443 -20.46835533 16.82344209 -29.25 25.375 C-33.79518582 31.25836235 -36.44283385 37.06587855 -36.6640625 44.55078125 C-36.70273438 45.70771484 -36.74140625 46.86464844 -36.78125 48.05664062 C-36.8121875 49.25482422 -36.843125 50.45300781 -36.875 51.6875 C-36.91367188 52.90501953 -36.95234375 54.12253906 -36.9921875 55.37695312 C-37.08627705 58.37605742 -37.16921991 61.37550771 -37.25 64.375 C-29.99 64.375 -22.73 64.375 -15.25 64.375 C-15.353125 62.333125 -15.45625 60.29125 -15.5625 58.1875 C-15.5625 51.84821429 -15.5625 51.84821429 -13.0625 48.0625 C-10.25 46.375 -10.25 46.375 -7.75 45.75 C-3.98047936 46.69238016 -2.63080344 48.31890167 -0.25 51.375 C0.48375655 54.57171376 0.43367231 57.69830658 0.39697266 60.96704102 C0.40573425 61.92694946 0.41449585 62.88685791 0.42352295 63.87585449 C0.44550277 67.04400022 0.43096982 70.21074672 0.4140625 73.37890625 C0.41743075 75.58178475 0.42228344 77.78466143 0.42855835 79.98753357 C0.43592755 84.60181389 0.4252211 89.21560998 0.40185547 93.82983398 C0.3733515 99.7474621 0.38978247 105.66395726 0.41971779 111.58154392 C0.43777485 116.12917132 0.43204022 120.67652951 0.41907883 125.22416496 C0.4157413 127.40628124 0.419844 129.58842189 0.43147659 131.77050972 C0.44416048 134.81845092 0.42484246 137.86454976 0.39697266 140.91235352 C0.40709381 141.8158403 0.41721497 142.71932709 0.42764282 143.65019226 C0.32446156 149.73368597 0.32446156 149.73368597 -2.56777954 152.96250916 C-6.29237372 154.92392704 -8.26625024 154.60634084 -12.25 153.375 C-14.6875 150.9375 -14.6875 150.9375 -16.25 148.375 C-16.25 147.715 -16.25 147.055 -16.25 146.375 C-23.18 146.375 -30.11 146.375 -37.25 146.375 C-37.58 148.025 -37.91 149.675 -38.25 151.375 C-39.875 153.25 -39.875 153.25 -42.25 154.375 C-45.76054264 154.25182307 -48.24810293 154.05370447 -51.1875 152.0625 C-52.25 150.375 -52.25 150.375 -52.25 146.375 C-65.45 146.375 -78.65 146.375 -92.25 146.375 C-92.58 148.025 -92.91 149.675 -93.25 151.375 C-94.875 153.25 -94.875 153.25 -97.25 154.375 C-100.73690547 154.25265244 -103.23013593 154.08890485 -106.125 152.0625 C-107.25 150.375 -107.25 150.375 -108.25 146.375 C-115.18 146.375 -122.11 146.375 -129.25 146.375 C-129.58 148.025 -129.91 149.675 -130.25 151.375 C-131.875 153.25 -131.875 153.25 -134.25 154.375 C-140.2284386 154.16523022 -140.2284386 154.16523022 -142.94019318 152.06754875 C-145.30212499 149.01543093 -144.68234071 145.04780197 -144.66992188 141.33642578 C-144.67839142 140.41077316 -144.68686096 139.48512054 -144.69558716 138.53141785 C-144.71904468 135.46091062 -144.71997644 132.39090272 -144.71875 129.3203125 C-144.7258518 127.18097738 -144.73355083 125.04164416 -144.74182129 122.90231323 C-144.75529015 118.40812909 -144.75682651 113.91412059 -144.75097656 109.41992188 C-144.7451111 103.68926083 -144.77552983 97.95945599 -144.81609344 92.22896004 C-144.84209441 87.80367576 -144.84483603 83.37859338 -144.84120178 78.95324326 C-144.84288482 76.84274031 -144.85244784 74.7322272 -144.87034607 72.62179947 C-144.98684275 57.1721484 -144.05844276 44.81895073 -133.48046875 32.59375 C-121.50314041 20.67934983 -108.40802095 18.19645656 -92.125 18.1875 C-90.94550781 18.17525391 -89.76601562 18.16300781 -88.55078125 18.15039062 C-86.85115234 18.14749023 -86.85115234 18.14749023 -85.1171875 18.14453125 C-83.57200439 18.13836792 -83.57200439 18.13836792 -81.99560547 18.13208008 C-79.18262603 18.38096097 -77.56576848 18.77708672 -75.25 20.375 C-74 23.5 -74 23.5 -73.25 26.375 C-69.22737211 26.49821968 -65.21183388 26.508938 -61.1875 26.5 C-60.05376953 26.53609375 -58.92003906 26.5721875 -57.75195312 26.609375 C-51.27524115 26.60777283 -51.27524115 26.60777283 -46.03100586 23.22485352 C-44.18753446 20.62897342 -44.18753446 20.62897342 -42.74755859 17.9440918 C-38.07381859 9.92619711 -29.12351612 4.46244513 -20.39941406 1.81298828 C-13.639413 0.07890105 -6.94713058 0.00784101 0 0 Z " fill="#C8C4C8" transform="translate(144.25,298.625)"/>
<path d="M0 0 C1.75860352 0.01812744 1.75860352 0.01812744 3.55273438 0.03662109 C18.57142216 0.38137394 31.02733046 4.56596113 41.83203125 15.3984375 C43.5 17.5 43.5 17.5 44.35961914 19.47363281 C45.52526766 21.93149381 46.52355313 23.6158105 48.5 25.5 C52.767045 26.65038227 56.91504513 26.5739068 61.3125 26.5 C62.48232422 26.51160156 63.65214844 26.52320313 64.85742188 26.53515625 C67.74005377 26.55868794 70.61777122 26.54573454 73.5 26.5 C73.87125 25.076875 73.87125 25.076875 74.25 23.625 C75.5 20.5 75.5 20.5 77.22460938 19.32348633 C81.92144898 17.62365371 87.06291669 18.17369384 92 18.1875 C93.12148438 18.17138672 94.24296875 18.15527344 95.3984375 18.13867188 C109.7119807 18.1304077 121.92825799 21.63996742 132.58203125 31.421875 C141.12639093 40.67971481 144.96185719 50.93650914 144.91992188 63.36254883 C144.92839142 64.30353424 144.93686096 65.24451965 144.94558716 66.21401978 C144.96880977 69.29516445 144.96998346 72.37580606 144.96875 75.45703125 C144.97585616 77.60935158 144.98355583 79.76167002 144.99182129 81.91398621 C145.00522898 86.41007775 145.00684961 90.90599373 145.00097656 95.40209961 C144.99505809 101.16709743 145.02577827 106.9312596 145.06609344 112.69609547 C145.09190847 117.13387095 145.09485398 121.57144285 145.09120178 126.00928307 C145.0928962 128.13559777 145.10256948 130.26192155 145.12034607 132.38816261 C145.1424324 135.35415997 145.13288927 138.3184334 145.11523438 141.28442383 C145.12849762 142.16292496 145.14176086 143.04142609 145.15542603 143.94654846 C145.07345954 149.86006606 145.07345954 149.86006606 142.18811035 153.07987976 C138.51926715 155.01811808 136.44331338 154.59536483 132.5 153.5 C130.5625 152.1875 130.5625 152.1875 129.5 150.5 C129.5 149.18 129.5 147.86 129.5 146.5 C122.57 146.5 115.64 146.5 108.5 146.5 C107.51 149.47 107.51 149.47 106.5 152.5 C103.87351759 154.7373739 102.42167185 154.49587747 98.9375 154.3125 C94.19462025 153.1914557 94.19462025 153.1914557 92.5 150.5 C92.5 149.18 92.5 147.86 92.5 146.5 C79.3 146.5 66.1 146.5 52.5 146.5 C52.17 148.15 51.84 149.8 51.5 151.5 C49.875 153.375 49.875 153.375 47.5 154.5 C43.98945736 154.37682307 41.50189707 154.17870447 38.5625 152.1875 C37.5 150.5 37.5 150.5 37.5 146.5 C30.57 146.5 23.64 146.5 16.5 146.5 C15.84 148.15 15.18 149.8 14.5 151.5 C12.8125 153.375 12.8125 153.375 10.5 154.5 C4.52824259 154.29046465 4.52824259 154.29046465 1.80980682 152.2006588 C0.19741214 150.10711862 0.11915315 149.03620295 0.10559082 146.41445923 C0.09424103 145.58455978 0.08289124 144.75466034 0.07119751 143.89961243 C0.07559341 142.53898933 0.07559341 142.53898933 0.08007812 141.15087891 C0.07160858 140.1928688 0.06313904 139.2348587 0.05441284 138.24781799 C0.03097177 135.07393191 0.03002247 131.90052868 0.03125 128.7265625 C0.02415214 126.52322189 0.0164537 124.31988314 0.00817871 122.11654663 C-0.00528288 117.49463771 -0.00682756 112.87289963 -0.00097656 108.25097656 C0.0049175 102.32672874 -0.02565276 96.40330101 -0.06609344 90.47921181 C-0.09193973 85.92729268 -0.09485055 81.37557172 -0.09120178 76.82358932 C-0.09289626 74.63948889 -0.10257015 72.45537962 -0.12034607 70.27135086 C-0.14247182 67.2163124 -0.13286532 64.16294272 -0.11523438 61.10791016 C-0.12849762 60.20487656 -0.14176086 59.30184296 -0.15542603 58.3714447 C-0.09599719 53.94143344 0.08541304 52.05530551 2.81188965 48.40341187 C5.5 46.5 5.5 46.5 9.125 46.4375 C12.90230554 47.62665175 13.63353132 48.12017833 15.5 51.5 C15.8956287 55.86774081 15.63187137 60.10428782 15.5 64.5 C22.76 64.5 30.02 64.5 37.5 64.5 C38.13490425 43.09481183 38.13490425 43.09481183 28.8984375 24.609375 C20.74564205 16.64977376 10.44304085 15.96472378 -0.375 16 C-2.7682396 16.00765428 -5.1616144 15.99799867 -7.5546875 15.96875 C-9.12452393 15.97551758 -9.12452393 15.97551758 -10.72607422 15.98242188 C-14.21585855 15.37550286 -15.37891206 14.29159328 -17.5 11.5 C-18.0625 8 -18.0625 8 -17.5 4.5 C-13.01072531 -1.09909538 -6.5603678 -0.10602056 0 0 Z " fill="#97DA7B" transform="translate(367.5,298.5)"/>
<path d="M0 0 C2.51953125 2.44921875 2.51953125 2.44921875 4.8125 5.6875 C5.43753418 6.55121216 5.43753418 6.55121216 6.07519531 7.43237305 C7.40275722 9.27529747 8.70113783 11.13677138 10 13 C10.8819896 14.23329329 11.76609184 15.46507856 12.65234375 16.6953125 C14.35311421 19.05990651 16.04418861 21.43087912 17.7265625 23.80859375 C20.42051641 27.59031255 23.19067488 31.30351958 26 35 C32.55454351 31.35369092 39.0337324 27.64214075 45.359375 23.609375 C46.28145752 23.02438232 47.20354004 22.43938965 48.15356445 21.83666992 C49.98420781 20.67002208 51.8085084 19.49335047 53.62573242 18.3059082 C62.33396276 12.77057763 62.33396276 12.77057763 68 13 C71.76932 15.12528583 73.29384807 17.13903083 74.4855957 21.18603516 C74.90197613 22.88234081 75.29758899 24.58383638 75.67578125 26.2890625 C75.89066696 27.1886972 76.10555267 28.08833191 76.32695007 29.01522827 C77.00674702 31.88127396 77.6596001 34.75272138 78.3125 37.625 C78.76978462 39.5655055 79.22875057 41.50561562 79.68945312 43.4453125 C80.5234188 46.98553957 81.35330421 50.5265182 82.16137695 54.07275391 C82.32394485 54.78460846 82.48651276 55.49646301 82.65400696 56.22988892 C83 58 83 58 83 60 C83.99773437 59.72414062 84.99546875 59.44828125 86.0234375 59.1640625 C92.11760412 57.64253345 98.32094234 56.70381322 104.51855469 55.71289062 C106.62798119 55.37452179 108.73584811 55.02741295 110.84375 54.6796875 C112.20043549 54.46040882 113.55720369 54.24164113 114.9140625 54.0234375 C116.1304541 53.82669434 117.3468457 53.62995117 118.60009766 53.42724609 C127.08197943 52.36137699 127.08197943 52.36137699 130.875 55 C134.94885403 60.75132334 132.78814022 68.46930124 131.6875 75.09375 C131.55432373 75.92588013 131.42114746 76.75801025 131.28393555 77.61535645 C130.8617904 80.24455158 130.43104723 82.87225125 130 85.5 C129.71036554 87.29417859 129.42129752 89.08844873 129.1328125 90.8828125 C128.42841733 95.25629358 127.71631345 99.62845583 127 104 C127.56031921 104.05279114 128.12063843 104.10558228 128.69793701 104.15997314 C135.98106513 104.89918546 142.97830132 106.46841384 150.07617188 108.21875 C152.25543086 108.75132722 154.43970614 109.25846451 156.625 109.765625 C158.02642116 110.10782458 159.42747739 110.45152287 160.828125 110.796875 C162.0852832 111.09948242 163.34244141 111.40208984 164.63769531 111.71386719 C168.4794901 113.18341228 170.39674896 114.8461372 173 118 C174.17470607 123.06637037 171.96504301 126.37171167 169.39257812 130.57421875 C168.61043945 131.80591797 168.61043945 131.80591797 167.8125 133.0625 C167.01295898 134.35414063 167.01295898 134.35414063 166.19726562 135.671875 C165.06210595 137.50345977 163.92148102 139.33166676 162.77587891 141.15673828 C160.97670997 144.03728838 159.20939851 146.93532876 157.44921875 149.83984375 C156.29993498 151.72684019 155.15020787 153.6135667 154 155.5 C153.19139526 156.83430054 153.19139526 156.83430054 152.36645508 158.19555664 C146.1149379 168.34629192 146.1149379 168.34629192 140.5625 170.0625 C137 170 137 170 134.0625 167.9375 C131.55149595 164.3612215 131.40327347 163.29643101 132 159 C133.54314628 155.84011535 135.47492401 152.97542247 137.4375 150.0625 C138.5366425 148.38117901 139.63427985 146.69887317 140.73046875 145.015625 C141.55490479 143.75975586 141.55490479 143.75975586 142.39599609 142.47851562 C144.77046688 138.80947036 147.01913763 135.07005576 149.25 131.3125 C149.63212646 130.67127197 150.01425293 130.03004395 150.40795898 129.36938477 C151.27405361 127.91415967 152.13738769 126.45729201 153 125 C151.741875 124.938125 150.48375 124.87625 149.1875 124.8125 C141.37192346 124.05327256 133.89435883 121.69073819 126.35058594 119.6105957 C123.23672296 118.80172872 120.09749692 118.14971697 116.94213867 117.52441406 C113.21613388 116.51832251 111.94959837 115.31431723 110 112 C108.82631838 98.83342624 113.39949031 83.86446831 116 71 C115.43716309 71.08040527 114.87432617 71.16081055 114.29443359 71.24365234 C113.50375488 71.35660645 112.71307617 71.46956055 111.8984375 71.5859375 C111.0221167 71.71121826 110.1457959 71.83649902 109.24291992 71.96557617 C107.32131151 72.23990471 105.39959796 72.51349772 103.4777832 72.78637695 C99.2390087 73.38906489 95.0012189 73.99374191 90.76953125 74.64453125 C77.75820467 76.61680431 77.75820467 76.61680431 73 76 C67.90937015 71.56049722 67.25178463 64.98501486 65.875 58.6875 C65.37252315 56.48304389 64.86992172 54.27861618 64.3671875 52.07421875 C64.01865723 50.50679932 64.01865723 50.50679932 63.66308594 48.90771484 C63.09334627 46.40933507 62.47340224 43.93452545 61.8203125 41.45703125 C61 38 61 38 61 34 C55.25883361 37.03373246 49.62868755 40.17463028 44.140625 43.6484375 C43.16996094 44.26074219 42.19929687 44.87304688 41.19921875 45.50390625 C39.21130665 46.76511141 37.22962385 48.03618246 35.25390625 49.31640625 C25.89588449 55.17610212 25.89588449 55.17610212 20 54 C18.20703125 52.84765625 18.20703125 52.84765625 16.8125 51.0625 C15.95978516 49.98355469 15.95978516 49.98355469 15.08984375 48.8828125 C10.80835497 42.97675881 6.58354843 37.03563284 2.42480469 31.04248047 C0.30909962 28.00958318 -1.84429315 25.00456577 -4 22 C-7.32805032 23.10935011 -7.71095144 23.62028814 -9.6015625 26.39453125 C-10.0877002 27.09763428 -10.57383789 27.8007373 -11.07470703 28.52514648 C-11.58630371 29.27997314 -12.09790039 30.0347998 -12.625 30.8125 C-13.69653193 32.3629371 -14.76946013 33.91241009 -15.84375 35.4609375 C-16.37484375 36.22889648 -16.9059375 36.99685547 -17.453125 37.78808594 C-19.61770379 40.88326963 -21.85402728 43.91983449 -24.125 46.9375 C-25.18074219 48.34322266 -25.18074219 48.34322266 -26.2578125 49.77734375 C-29.50850861 53.92453229 -29.50850861 53.92453229 -33.02734375 54.46484375 C-38.46709627 53.82833387 -42.00509113 51.47539281 -46.5625 48.5625 C-47.43422852 48.02206055 -48.30595703 47.48162109 -49.20410156 46.92480469 C-51.81394478 45.30024198 -54.40866171 43.65388504 -57 42 C-57.75587402 41.52095215 -58.51174805 41.0419043 -59.29052734 40.54833984 C-63.21285123 38.06099054 -67.11586621 35.54655129 -71 33 C-71.07476562 33.64839844 -71.14953125 34.29679687 -71.2265625 34.96484375 C-72.31327816 43.0725949 -74.0005874 51.02678027 -75.8125 59 C-76.04855957 60.09820068 -76.28461914 61.19640137 -76.52783203 62.32788086 C-77.58224485 66.83742191 -78.5780815 70.35825193 -81.13671875 74.25 C-88.40336856 78.6912812 -98.79028873 75.266041 -106.8137207 73.91870117 C-108.95593794 73.55940758 -111.09978646 73.21152305 -113.24414062 72.86523438 C-123.69943035 71.15028482 -123.69943035 71.15028482 -126 70 C-125.88930176 70.56283691 -125.77860352 71.12567383 -125.66455078 71.70556641 C-120.86966472 96.18892322 -120.86966472 96.18892322 -120 105 C-119.88140625 106.17820312 -119.7628125 107.35640625 -119.640625 108.5703125 C-120.11314409 113.07978813 -121.57425073 114.1226155 -125 117 C-127.97924805 118.19433594 -127.97924805 118.19433594 -131.26171875 118.984375 C-133.06479492 119.42716797 -133.06479492 119.42716797 -134.90429688 119.87890625 C-136.15275391 120.16636719 -137.40121094 120.45382813 -138.6875 120.75 C-139.91662109 121.05292969 -141.14574219 121.35585937 -142.41210938 121.66796875 C-149.2619385 123.31192774 -155.96482721 124.56355212 -163 125 C-161.19151754 128.04407158 -159.37770837 131.08493481 -157.5625 134.125 C-156.75184082 135.4864917 -156.75184082 135.4864917 -155.92480469 136.87548828 C-153.42607168 141.04962545 -150.91103528 145.19462225 -148.19921875 149.234375 C-147.782771 149.85683105 -147.36632324 150.47928711 -146.93725586 151.12060547 C-145.81883555 152.77328249 -144.68338853 154.41440024 -143.546875 156.0546875 C-141.79640048 159.38766171 -141.51869849 161.28932062 -142 165 C-144.0625 167.9375 -144.0625 167.9375 -147 170 C-150.90066072 170.06843264 -153.05215822 169.82786036 -156.02319336 167.23291016 C-158.00983231 164.98889388 -159.52862203 162.78049468 -161.06640625 160.2109375 C-161.62956543 159.27757568 -162.19272461 158.34421387 -162.77294922 157.38256836 C-163.36350098 156.3900708 -163.95405273 155.39757324 -164.5625 154.375 C-165.80533382 152.30038826 -167.04883205 150.22617442 -168.29296875 148.15234375 C-169.22181885 146.60135986 -169.22181885 146.60135986 -170.16943359 145.01904297 C-171.86673524 142.21978555 -173.60220829 139.45085798 -175.36328125 136.69140625 C-175.87366943 135.88461426 -176.38405762 135.07782227 -176.90991211 134.24658203 C-177.86270853 132.74490756 -178.82528266 131.24937731 -179.79907227 129.76123047 C-182.3015355 125.78178695 -184.03266572 122.83475313 -183 118 C-179.07249948 113.07118482 -175.44761086 111.84957507 -169.55859375 110.54296875 C-168.75390152 110.35027908 -167.94920929 110.15758942 -167.12013245 109.95906067 C-165.42685836 109.55688382 -163.73154636 109.16320226 -162.03442383 108.77758789 C-159.43841165 108.18770715 -156.84902574 107.5738595 -154.25976562 106.95507812 C-152.60970366 106.56631074 -150.95932273 106.17889414 -149.30859375 105.79296875 C-148.53559433 105.61179001 -147.76259491 105.43061127 -146.96617126 105.24394226 C-143.52730248 104.46509455 -140.54618461 104 -137 104 C-137.18175781 102.89076172 -137.36351562 101.78152344 -137.55078125 100.63867188 C-138.22805837 96.4948352 -138.89697926 92.34968454 -139.56347656 88.20410156 C-139.85223899 86.41532491 -140.14321965 84.62690481 -140.43652344 82.83886719 C-140.85946109 80.25808434 -141.27421495 77.67609402 -141.6875 75.09375 C-141.81874268 74.30383667 -141.94998535 73.51392334 -142.08520508 72.70007324 C-144.10307493 59.93038112 -144.10307493 59.93038112 -141.25 54.9375 C-133.12333594 50.09275796 -118.44419423 55.0779992 -109.25 56.5625 C-107.76308502 56.79923166 -106.27610615 57.03556232 -104.7890625 57.27148438 C-101.19196185 57.84304781 -97.5957494 58.41998888 -94 59 C-91.96616127 53.42273418 -90.4373994 47.83117118 -89.1328125 42.04296875 C-88.96972595 41.32827423 -88.8066394 40.61357971 -88.63861084 39.87722778 C-87.95802319 36.88932136 -87.27979632 33.90135095 -86.63037109 30.90649414 C-86.14871991 28.6976161 -85.64288137 26.49543311 -85.1328125 24.29296875 C-84.99303986 23.62001266 -84.85326721 22.94705658 -84.70925903 22.25370789 C-83.93442617 18.99480921 -83.01544372 17.01771202 -80.80419922 14.48168945 C-76.99850236 12.4708263 -75.1189705 12.8782961 -71 14 C-67.74609375 15.6105957 -67.74609375 15.6105957 -64.4375 17.67578125 C-63.54502563 18.22542793 -63.54502563 18.22542793 -62.63452148 18.78617859 C-60.74918741 19.95052325 -58.87454409 21.13087983 -57 22.3125 C-55.12324992 23.47954044 -53.24444734 24.64322252 -51.36547852 25.8066864 C-49.65835393 26.86628545 -47.95598178 27.93353002 -46.25390625 29.0012207 C-42.87375824 31.07754662 -39.45366277 33.04912807 -36 35 C-29.79425423 27.10552252 -23.84885187 19.06923067 -18.11230469 10.82641602 C-8.97147574 -2.27923978 -8.97147574 -2.27923978 0 0 Z " fill="#020100" transform="translate(261,60)"/>
<path d="M0 0 C0.98846672 -0.0098568 0.98846672 -0.0098568 1.99690247 -0.01991272 C4.17746097 -0.03961775 6.35795051 -0.05130507 8.53857422 -0.0612793 C9.65946756 -0.06739259 9.65946756 -0.06739259 10.80300522 -0.07362938 C14.76205924 -0.09448317 18.72107873 -0.10878506 22.68017578 -0.11816406 C26.75205467 -0.12919732 30.82338239 -0.16356277 34.89506721 -0.20333576 C38.04026236 -0.22960062 41.18532848 -0.23786482 44.33062363 -0.24144554 C45.83040951 -0.24628998 47.33019046 -0.25784232 48.82986832 -0.27648354 C60.72193794 -0.4150568 68.89903932 1.13544568 77.74560547 9.3840332 C83.39682725 15.2659171 85.74369527 21.35821374 85.66357422 29.45043945 C85.65712891 30.60415039 85.65068359 31.75786133 85.64404297 32.9465332 C85.61890625 34.73124023 85.61890625 34.73124023 85.59326172 36.55200195 C85.58423828 37.76500977 85.57521484 38.97801758 85.56591797 40.2277832 C85.54242854 43.21094125 85.50655992 46.19399727 85.46826172 49.17700195 C78.20826172 49.17700195 70.94826172 49.17700195 63.46826172 49.17700195 C63.3055013 45.62882487 63.14274089 42.08064779 62.97998047 38.5324707 C62.73059168 35.25829959 62.73059168 35.25829959 61.14404297 33.25512695 C58.24960993 31.39297423 55.78486443 31.76242661 52.46826172 32.17700195 C49.70200761 35.00095602 49.0911731 37.05295396 49.0695343 40.94793701 C49.05072708 42.38238411 49.05072708 42.38238411 49.03153992 43.84580994 C49.03369255 45.40918846 49.03369255 45.40918846 49.03588867 47.00415039 C49.02569702 48.10688797 49.01550537 49.20962555 49.00500488 50.34577942 C48.97479752 53.99269643 48.96559686 57.63935111 48.95654297 61.28637695 C48.93970208 63.81415688 48.92155264 66.34192841 48.90214539 68.86968994 C48.8594382 74.84422357 48.82993483 80.81868149 48.806822 86.79331136 C48.77976848 93.5962576 48.73585713 100.3990624 48.69053328 107.20190763 C48.59769171 121.1935453 48.52823421 135.18518678 48.46826172 149.17700195 C35.26826172 149.17700195 22.06826172 149.17700195 8.46826172 149.17700195 C8.45891602 145.77484375 8.44957031 142.37268555 8.43994141 138.86743164 C8.40620758 127.63955908 8.3508805 116.41186277 8.28435898 105.18413925 C8.24454739 98.37527826 8.2121658 91.5665332 8.19726562 84.75756836 C8.18287121 78.18924922 8.14778441 71.62125264 8.0999527 65.0530777 C8.08509015 62.54443734 8.07721793 60.03574571 8.07637787 57.52706146 C8.0740212 54.01903264 8.04704476 50.51200706 8.01416016 47.00415039 C8.01919052 45.96189804 8.02422089 44.91964569 8.02940369 43.84580994 C8.01975703 38.33763459 8.01975703 38.33763459 5.62554932 33.52764893 C2.69630148 31.69368867 0.85980251 31.67187886 -2.53173828 32.17700195 C-4.31130119 33.20346541 -4.31130119 33.20346541 -5.53173828 35.17700195 C-6.1139216 38.59939036 -6.1139216 38.59939036 -6.21923828 42.36450195 C-6.32236328 44.61262695 -6.42548828 46.86075195 -6.53173828 49.17700195 C-13.79173828 49.17700195 -21.05173828 49.17700195 -28.53173828 49.17700195 C-28.6403024 45.03045561 -28.71933953 40.88679028 -28.78173828 36.73950195 C-28.81525391 35.57483398 -28.84876953 34.41016602 -28.88330078 33.21020508 C-29.00178313 22.69489667 -26.62294887 15.69412804 -19.46923828 7.9699707 C-13.54833763 2.49075014 -8.05831843 0.06655181 0 0 Z " fill="#FE5E79" transform="translate(227.53173828125,295.822998046875)"/>
<path d="M0 0 C0.33 0 0.66 0 1 0 C1.33 2.31 1.66 4.62 2 7 C5.17845224 8.05948408 7.50821275 8.14022532 10.84765625 8.17578125 C12.01103516 8.19962891 13.17441406 8.22347656 14.37304688 8.24804688 C16.80516819 8.29053497 19.23750968 8.32204258 21.66992188 8.34179688 C31.90503042 8.58374831 40.66761782 10.51973457 48.171875 17.88671875 C58.46854556 29.7894939 56.59902777 43.04649194 56 58 C48.74 58 41.48 58 34 58 C33.86979167 54.74479167 33.73958333 51.48958333 33.609375 48.234375 C32.90548761 44.49835732 31.9862028 43.27836214 29 41 C26.5 40.33333333 26.5 40.33333333 24 41 C21.60061976 42.6482843 20.20595278 43.96537785 19.62482452 46.88472748 C19.46569171 49.32235781 19.4400405 51.73193786 19.45410156 54.17480469 C19.44376389 55.101978 19.43342621 56.02915131 19.42277527 56.98442078 C19.39329267 60.04708165 19.39184693 63.10908322 19.390625 66.171875 C19.37564706 68.29609441 19.35892074 70.42030215 19.34051514 72.54449463 C19.29678619 78.13401823 19.27683015 83.72338472 19.26177979 89.31304932 C19.24222877 95.01738801 19.20025649 100.72155654 19.16015625 106.42578125 C19.08479379 117.61716388 19.03661091 128.80842343 19 140 C5.8 140 -7.4 140 -21 140 C-21.02187378 134.3688916 -21.02187378 134.3688916 -21.04418945 128.62402344 C-21.09461647 116.19482024 -21.16107778 103.76574564 -21.23571491 91.33666611 C-21.28056092 83.80388545 -21.32000094 76.27115088 -21.34643555 68.73828125 C-21.3695068 62.16783751 -21.40300544 55.59754102 -21.44870156 49.02721429 C-21.47251166 45.55260345 -21.49131994 42.07813734 -21.49761391 38.60344696 C-21.50485964 34.71170707 -21.53539983 30.8203277 -21.56762695 26.92871094 C-21.56619186 25.79366119 -21.56475677 24.65861145 -21.5632782 23.48916626 C-21.57581635 22.41248688 -21.58835449 21.3358075 -21.60127258 20.22650146 C-21.60588155 19.30839565 -21.61049051 18.39028984 -21.61523914 17.44436264 C-22.20033196 12.20663687 -23.72176351 7.11294595 -25 2 C-16.75 2 -8.5 2 0 2 C0 1.34 0 0.68 0 0 Z " fill="#FEA959" transform="translate(349,305)"/>
<path d="M0 0 C8.58 0 17.16 0 26 0 C25.01 3.96 24.02 7.92 23 12 C22.56666081 15.32756818 22.56666081 15.32756818 22.60127258 18.22650146 C22.58246536 19.84152054 22.58246536 19.84152054 22.5632782 21.48916626 C22.56543083 23.19174088 22.56543083 23.19174088 22.56762695 24.92871094 C22.5574353 26.15941315 22.54724365 27.39011536 22.53674316 28.65811157 C22.5119447 31.99213372 22.49992835 35.32571726 22.49388909 38.6597929 C22.48442981 42.15918763 22.45822115 45.6584587 22.43388367 49.15777588 C22.39042076 55.76597088 22.36175034 62.3741416 22.33856028 68.98243546 C22.31139941 76.5134768 22.26749523 84.04439246 22.22227156 91.57534361 C22.12971513 107.05017823 22.06011192 122.52500016 22 138 C8.8 138 -4.4 138 -18 138 C-18.0093457 135.14311523 -18.01869141 132.28623047 -18.02832031 129.34277344 C-18.06206471 119.91100501 -18.11759941 110.47945597 -18.18390274 101.04786301 C-18.2234373 95.32860911 -18.25559649 89.60951057 -18.27099609 83.89013672 C-18.28612322 78.37215213 -18.32049869 72.85459446 -18.36830902 67.33679962 C-18.38316355 65.23008176 -18.39104334 63.12330296 -18.39188385 61.0165329 C-18.39424299 58.06882535 -18.42123787 55.12230779 -18.45410156 52.17480469 C-18.4490712 51.30086563 -18.44404083 50.42692657 -18.43885803 49.52650452 C-18.50538305 45.67809357 -18.55497773 43.6345418 -20.80755615 40.42266846 C-23.0713587 38.66357153 -23.0713587 38.66357153 -26.625 39.0625 C-30.25516924 39.6750845 -30.25516924 39.6750845 -32 43 C-32.4603764 46.19806665 -32.4603764 46.19806665 -32.625 49.6875 C-32.74875 51.770625 -32.8725 53.85375 -33 56 C-40.26 56 -47.52 56 -55 56 C-56.20718891 25.8649879 -56.20718891 25.8649879 -47.03125 15.8515625 C-40.12964547 9.34812747 -33.30065353 6.94671573 -23.9296875 6.7890625 C-22.78628906 6.76070313 -21.64289063 6.73234375 -20.46484375 6.703125 C-18.06396247 6.65087514 -15.66289351 6.6066546 -13.26171875 6.5703125 C-11.55048828 6.52390625 -11.55048828 6.52390625 -9.8046875 6.4765625 C-8.76296387 6.45674316 -7.72124023 6.43692383 -6.64794922 6.41650391 C-3.98843368 6.20888434 -3.98843368 6.20888434 -2.19970703 4.65771484 C-0.7988508 2.89658386 -0.7988508 2.89658386 0 0 Z " fill="#79D6ED" transform="translate(162,307)"/>
<path d="M0 0 C1.15757812 -0.02449219 2.31515625 -0.04898437 3.5078125 -0.07421875 C11.88564619 -0.10324127 11.88564619 -0.10324127 16.01171875 2.1796875 C17.75 4.375 17.75 4.375 18.3125 7.875 C17.6576981 11.94932292 16.94726822 12.88211787 13.75 15.375 C11.05200195 15.87329102 11.05200195 15.87329102 7.98828125 15.87890625 C6.30895508 15.90694336 6.30895508 15.90694336 4.59570312 15.93554688 C3.42974609 15.93619141 2.26378906 15.93683594 1.0625 15.9375 C-10.72831258 15.98389443 -20.46835533 16.82344209 -29.25 25.375 C-33.79518582 31.25836235 -36.44283385 37.06587855 -36.6640625 44.55078125 C-36.72207031 46.28618164 -36.72207031 46.28618164 -36.78125 48.05664062 C-36.8121875 49.25482422 -36.843125 50.45300781 -36.875 51.6875 C-36.93300781 53.5137793 -36.93300781 53.5137793 -36.9921875 55.37695312 C-37.08627705 58.37605742 -37.16921991 61.37550771 -37.25 64.375 C-29.99 64.375 -22.73 64.375 -15.25 64.375 C-15.353125 62.333125 -15.45625 60.29125 -15.5625 58.1875 C-15.5625 51.84821429 -15.5625 51.84821429 -13.0625 48.0625 C-10.25 46.375 -10.25 46.375 -7.75 45.75 C-3.98047936 46.69238016 -2.63080344 48.31890167 -0.25 51.375 C0.48375655 54.57171376 0.43367231 57.69830658 0.39697266 60.96704102 C0.40573425 61.92694946 0.41449585 62.88685791 0.42352295 63.87585449 C0.44550277 67.04400022 0.43096982 70.21074672 0.4140625 73.37890625 C0.41743075 75.58178475 0.42228344 77.78466143 0.42855835 79.98753357 C0.43592755 84.60181389 0.4252211 89.21560998 0.40185547 93.82983398 C0.3733515 99.7474621 0.38978247 105.66395726 0.41971779 111.58154392 C0.43777485 116.12917132 0.43204022 120.67652951 0.41907883 125.22416496 C0.4157413 127.40628124 0.419844 129.58842189 0.43147659 131.77050972 C0.44416048 134.81845092 0.42484246 137.86454976 0.39697266 140.91235352 C0.40709381 141.8158403 0.41721497 142.71932709 0.42764282 143.65019226 C0.32446156 149.73368597 0.32446156 149.73368597 -2.56777954 152.96250916 C-6.29237372 154.92392704 -8.26625024 154.60634084 -12.25 153.375 C-14.6875 150.9375 -14.6875 150.9375 -16.25 148.375 C-16.25 147.715 -16.25 147.055 -16.25 146.375 C-23.18 146.375 -30.11 146.375 -37.25 146.375 C-37.58 148.025 -37.91 149.675 -38.25 151.375 C-39.875 153.25 -39.875 153.25 -42.25 154.375 C-48.19817909 154.16629196 -48.19817909 154.16629196 -50.94061375 152.10313988 C-52.62266472 149.88315371 -52.62933273 148.61953293 -52.63768005 145.84976196 C-52.64758469 144.92203979 -52.65748932 143.99431763 -52.66769409 143.03848267 C-52.66319244 142.02240936 -52.6586908 141.00633606 -52.65405273 139.95947266 C-52.66091599 138.88751648 -52.66777924 137.8155603 -52.67485046 136.71112061 C-52.69320554 133.15363442 -52.68926528 129.59658608 -52.68359375 126.0390625 C-52.68815444 123.56342424 -52.69345967 121.08778725 -52.69947815 118.6121521 C-52.70957612 112.7450927 -52.70343116 106.87818905 -52.69222456 101.01113641 C-52.68305342 95.03938408 -52.70761724 89.06792967 -52.73396206 83.09623146 C-52.7523936 77.97611157 -52.75201678 72.85611814 -52.74632454 67.73597336 C-52.74617188 65.29055408 -52.75217026 62.84512592 -52.76461601 60.39973831 C-52.84486115 42.03104656 -52.43527514 27.18398937 -39.1484375 13.15625 C-27.60666777 2.22623485 -15.41546701 0.01739895 0 0 Z " fill="#010202" transform="translate(144.25,298.625)"/>
<path d="M0 0 C1.75860352 0.01812744 1.75860352 0.01812744 3.55273438 0.03662109 C17.6703726 0.36069042 29.67608617 3.93796206 40.25 13.75 C49.91665837 24.14621749 52.96062177 36.05851811 52.91992188 49.96655273 C52.92839142 51.05413376 52.93686096 52.14171478 52.94558716 53.26225281 C52.96878966 56.81948865 52.96998402 60.37628833 52.96875 63.93359375 C52.97585667 66.41935904 52.9835564 68.90512269 52.99182129 71.3908844 C53.00522383 76.5811928 53.00685159 81.77134912 53.00097656 86.96166992 C52.99623508 92.29166789 53.00928802 97.62106718 53.04199219 102.95092773 C53.08104354 109.40219911 53.09580139 115.85304495 53.09120178 122.30443001 C53.09289683 124.76009007 53.10257612 127.21575794 53.12034607 129.67135429 C53.14241207 133.09447334 53.13289887 136.5160963 53.11523438 139.93920898 C53.12849762 140.9548291 53.14176086 141.97044922 53.15542603 143.0168457 C53.07337377 149.83931002 53.07337377 149.83931002 50.18811035 153.16395569 C46.5183474 154.98790087 44.39993733 154.58331592 40.5 153.5 C38.5625 152.1875 38.5625 152.1875 37.5 150.5 C37.5 149.18 37.5 147.86 37.5 146.5 C30.57 146.5 23.64 146.5 16.5 146.5 C15.84 148.15 15.18 149.8 14.5 151.5 C12.8125 153.375 12.8125 153.375 10.5 154.5 C4.52824259 154.29046465 4.52824259 154.29046465 1.80980682 152.2006588 C0.19741214 150.10711862 0.11915315 149.03620295 0.10559082 146.41445923 C0.09424103 145.58455978 0.08289124 144.75466034 0.07119751 143.89961243 C0.07559341 142.53898933 0.07559341 142.53898933 0.08007812 141.15087891 C0.07160858 140.1928688 0.06313904 139.2348587 0.05441284 138.24781799 C0.03097177 135.07393191 0.03002247 131.90052868 0.03125 128.7265625 C0.02415214 126.52322189 0.0164537 124.31988314 0.00817871 122.11654663 C-0.00528288 117.49463771 -0.00682756 112.87289963 -0.00097656 108.25097656 C0.0049175 102.32672874 -0.02565276 96.40330101 -0.06609344 90.47921181 C-0.09193973 85.92729268 -0.09485055 81.37557172 -0.09120178 76.82358932 C-0.09289626 74.63948889 -0.10257015 72.45537962 -0.12034607 70.27135086 C-0.14247182 67.2163124 -0.13286532 64.16294272 -0.11523438 61.10791016 C-0.12849762 60.20487656 -0.14176086 59.30184296 -0.15542603 58.3714447 C-0.09599719 53.94143344 0.08541304 52.05530551 2.81188965 48.40341187 C5.5 46.5 5.5 46.5 9.125 46.4375 C12.90230554 47.62665175 13.63353132 48.12017833 15.5 51.5 C15.8956287 55.86774081 15.63187137 60.10428782 15.5 64.5 C22.76 64.5 30.02 64.5 37.5 64.5 C38.13490425 43.09481183 38.13490425 43.09481183 28.8984375 24.609375 C20.74564205 16.64977376 10.44304085 15.96472378 -0.375 16 C-2.7682396 16.00765428 -5.1616144 15.99799867 -7.5546875 15.96875 C-9.12452393 15.97551758 -9.12452393 15.97551758 -10.72607422 15.98242188 C-14.21585855 15.37550286 -15.37891206 14.29159328 -17.5 11.5 C-18.0625 8 -18.0625 8 -17.5 4.5 C-13.01072531 -1.09909538 -6.5603678 -0.10602056 0 0 Z " fill="#020201" transform="translate(367.5,298.5)"/>
<path d="M0 0 C1.12148438 -0.01611328 2.24296875 -0.03222656 3.3984375 -0.04882812 C17.7119807 -0.0570923 29.92825799 3.45246742 40.58203125 13.234375 C49.12639093 22.49221481 52.96185719 32.74900914 52.91992188 45.17504883 C52.92839142 46.11603424 52.93686096 47.05701965 52.94558716 48.02651978 C52.96880977 51.10766445 52.96998346 54.18830606 52.96875 57.26953125 C52.97585616 59.42185158 52.98355583 61.57417002 52.99182129 63.72648621 C53.00522898 68.22257775 53.00684961 72.71849373 53.00097656 77.21459961 C52.99505809 82.97959743 53.02577827 88.7437596 53.06609344 94.50859547 C53.09190847 98.94637095 53.09485398 103.38394285 53.09120178 107.82178307 C53.0928962 109.94809777 53.10256948 112.07442155 53.12034607 114.20066261 C53.1424324 117.16665997 53.13288927 120.1309334 53.11523438 123.09692383 C53.12849762 123.97542496 53.14176086 124.85392609 53.15542603 125.75904846 C53.07345954 131.67256606 53.07345954 131.67256606 50.18811035 134.89237976 C46.51926715 136.83061808 44.44331338 136.40786483 40.5 135.3125 C38.5625 134 38.5625 134 37.5 132.3125 C37.5 130.9925 37.5 129.6725 37.5 128.3125 C30.57 128.3125 23.64 128.3125 16.5 128.3125 C15.84 130.2925 15.18 132.2725 14.5 134.3125 C11.87351759 136.5498739 10.42167185 136.30837747 6.9375 136.125 C2.35907541 135.04282692 2.35907541 135.04282692 0.5 132.3125 C0.19882008 129.69890739 0.07981012 127.32227934 0.09594727 124.70751953 C0.08908401 123.93482727 0.08222076 123.16213501 0.07514954 122.36602783 C0.05683231 119.80893633 0.06072649 117.25245561 0.06640625 114.6953125 C0.06184618 112.91795654 0.05654113 111.14060235 0.05052185 109.36325073 C0.04158063 105.63581181 0.04402459 101.90858701 0.05395508 98.18115234 C0.06543507 93.40710044 0.04525357 88.63378924 0.01603794 83.85983467 C-0.0023216 80.18805248 -0.00203192 76.51644777 0.00367546 72.8446312 C0.00382877 71.08478635 -0.00222315 69.32492954 -0.01461601 67.56512833 C-0.02951667 65.10170538 -0.01885619 62.63965007 -0.00170898 60.17626953 C-0.01137695 59.45089996 -0.02104492 58.7255304 -0.03100586 57.97817993 C0.02061813 54.43127109 0.44327152 52.40502314 2.31260681 49.35617065 C4.5 47.3125 4.5 47.3125 8 46.75 C12.10020574 47.40896164 13.05669968 48.02466761 15.5 51.3125 C16.03387876 56.0319882 15.67649093 60.54724487 15.5 65.3125 C25.895 64.8175 25.895 64.8175 36.5 64.3125 C36.63592654 60.18637433 36.73458442 56.06479952 36.8125 51.9375 C36.8753418 50.20306641 36.8753418 50.20306641 36.93945312 48.43359375 C37.07071828 39.14002062 35.10841013 32.70110692 29.1875 25.5 C22.38903266 19.9663638 17.21712126 17.21149345 8.37890625 17.171875 C6.60483398 17.14287109 6.60483398 17.14287109 4.79492188 17.11328125 C2.31070991 17.07948245 -0.17376262 17.06120209 -2.65820312 17.05859375 C-12.76320665 16.84956265 -12.76320665 16.84956265 -15.7890625 13.92578125 C-17.57482839 11.19820731 -18.41651942 9.56824246 -18.5 6.3125 C-17.69457735 3.74979156 -17.04590929 2.65816545 -14.77148438 1.21801758 C-10.13116574 -0.6318257 -4.92795094 -0.01378062 0 0 Z " fill="#010100" transform="translate(459.5,316.6875)"/>
<path d="M0 0 C1.17949219 -0.01224609 2.35898437 -0.02449219 3.57421875 -0.03710938 C5.27384766 -0.04000977 5.27384766 -0.04000977 7.0078125 -0.04296875 C8.55299561 -0.04913208 8.55299561 -0.04913208 10.12939453 -0.05541992 C12.93765977 0.19304388 14.54642371 0.62334866 16.875 2.1875 C18.3125 4.9375 18.3125 4.9375 18.875 8.1875 C17.41002838 12.19689602 16.45096197 13.80352535 12.875 16.1875 C10.21459961 16.44287109 10.21459961 16.44287109 7.02734375 16.4609375 C5.86396484 16.4815625 4.70058594 16.5021875 3.50195312 16.5234375 C1.06972947 16.54918894 -1.36258471 16.5675897 -3.79492188 16.578125 C-12.78879773 16.75612364 -21.88238832 18.04968816 -28.75830078 24.48144531 C-35.59722322 33.01849247 -37.02310699 41.79672975 -37 52.4375 C-37.020625 53.67113281 -37.04125 54.90476562 -37.0625 56.17578125 C-37.10906771 59.17939877 -37.12072083 62.18352455 -37.125 65.1875 C-29.865 65.1875 -22.605 65.1875 -15.125 65.1875 C-15.2075 62.96 -15.29 60.7325 -15.375 58.4375 C-15.61890291 51.85212152 -15.61890291 51.85212152 -13.328125 48.76953125 C-10.094243 46.44732875 -8.00208008 46.56439784 -4.125 47.1875 C-1.11600203 50.00270929 -0.19566291 51.69164869 0.3896637 55.79896545 C0.41631022 57.21087289 0.42117899 58.62329893 0.40844727 60.03540039 C0.42137062 61.1972863 0.42137062 61.1972863 0.43455505 62.38264465 C0.45719194 64.93382517 0.45048207 67.48390545 0.44140625 70.03515625 C0.44664204 71.81205064 0.45291836 73.58894224 0.46018982 75.36582947 C0.47058914 79.08557233 0.46603815 82.8049325 0.45141602 86.5246582 C0.43420911 91.29219156 0.45774877 96.05852189 0.49290562 100.82592106 C0.51485851 104.49340301 0.51344365 108.16059598 0.5051403 111.82812309 C0.50432 113.58600626 0.51119855 115.34391047 0.52591133 117.10173225 C0.54332379 119.55824101 0.52884623 122.01257321 0.50610352 124.46899414 C0.51779572 125.19481689 0.52948792 125.92063965 0.54153442 126.66845703 C0.47158199 130.38005583 0.12655045 131.91708704 -2.43788147 134.67381287 C-6.10372668 136.73882885 -8.13264804 136.29648666 -12.125 135.1875 C-15.17167553 133.05482713 -15.16914219 132.01093126 -16.125 128.1875 C-23.055 128.1875 -29.985 128.1875 -37.125 128.1875 C-37.455 129.8375 -37.785 131.4875 -38.125 133.1875 C-39.75 135.0625 -39.75 135.0625 -42.125 136.1875 C-48.1034386 135.97773022 -48.1034386 135.97773022 -50.81519318 133.88004875 C-53.17712499 130.82793093 -52.55734071 126.86030197 -52.54492188 123.14892578 C-52.55339142 122.22327316 -52.56186096 121.29762054 -52.57058716 120.34391785 C-52.59404468 117.27341062 -52.59497644 114.20340272 -52.59375 111.1328125 C-52.6008518 108.99347738 -52.60855083 106.85414416 -52.61682129 104.71481323 C-52.63029015 100.22062909 -52.63182651 95.72662059 -52.62597656 91.23242188 C-52.6201111 85.50176083 -52.65052983 79.77195599 -52.69109344 74.04146004 C-52.71709441 69.61617576 -52.71983603 65.19109338 -52.71620178 60.76574326 C-52.71788482 58.65524031 -52.72744784 56.5447272 -52.74534607 54.43429947 C-52.86184275 38.9846484 -51.93344276 26.63145073 -41.35546875 14.40625 C-29.37814041 2.49184983 -16.28302095 0.00895656 0 0 Z " fill="#010101" transform="translate(52.125,316.8125)"/>
<path d="M0 0 C2.00601159 -0.01712067 4.01173675 -0.06100517 6.01733398 -0.10522461 C18.60729196 -0.18784422 18.60729196 -0.18784422 23.84350586 4.29516602 C28.96981599 10.23702549 28.45651785 17.06470159 28.36499023 24.57348633 C28.34362039 26.65898899 28.36480526 28.74102104 28.39038086 30.82641602 C28.41127718 39.82547438 27.62220973 46.86752552 21.65991211 53.85375977 C20.54422852 54.78381836 20.54422852 54.78381836 19.40600586 55.73266602 C18.66479492 56.37075195 17.92358398 57.00883789 17.15991211 57.66625977 C10.36718791 62.44293091 2.80765314 62.0801333 -5.15649414 61.29516602 C-13.50815042 58.85290622 -18.49748851 53.8307426 -22.78930664 46.51000977 C-25.03613987 41.05455115 -24.63954791 35.08410019 -24.60253906 29.27929688 C-24.59399738 27.23344223 -24.62289692 25.19035742 -24.65454102 23.14477539 C-24.65389648 21.84217773 -24.65325195 20.53958008 -24.65258789 19.19750977 C-24.65444092 18.01664795 -24.65629395 16.83578613 -24.65820312 15.61914062 C-23.64592902 8.9125168 -19.27337998 5.18844872 -14.15649414 1.29516602 C-9.98039512 -0.7928835 -4.59391035 0.02728835 0 0 Z " fill="#010000" transform="translate(438.156494140625,243.704833984375)"/>
<path d="M0 0 C1.88041992 -0.01063477 1.88041992 -0.01063477 3.79882812 -0.02148438 C10.82925536 0.02710444 16.4056032 0.11292629 21.80078125 5.19140625 C22.27902344 5.78824219 22.75726563 6.38507813 23.25 7 C23.98669922 7.89912109 23.98669922 7.89912109 24.73828125 8.81640625 C28.1981829 13.493472 27.23864621 19.2548125 27.28759766 24.85644531 C27.30402991 26.22966612 27.33114897 27.60280602 27.36962891 28.97558594 C27.64204429 38.7588514 27.04588482 46.86771268 20.19677734 54.33544922 C12.9881389 61.126258 6.22676131 62.02155098 -3.46875 61.7734375 C-11.85245091 60.98974372 -15.94026628 57.00559619 -21.3984375 50.8515625 C-25.95321374 44.24392936 -25.43488669 36.81338553 -25.43310547 29.12475586 C-25.43748183 27.0087855 -25.47386551 24.89489961 -25.51171875 22.77929688 C-25.62816231 9.690228 -25.62816231 9.690228 -21.0625 4.4375 C-14.77539428 -0.84024725 -7.90404818 -0.12636694 0 0 Z " fill="#010000" transform="translate(71.0625,243.5625)"/>
<path d="M0 0 C1.17626953 -0.020625 2.35253906 -0.04125 3.56445312 -0.0625 C10.57516006 -0.09420472 15.71679936 -0.01696978 21.05078125 5.00390625 C21.52902344 5.60074219 22.00726563 6.19757813 22.5 6.8125 C23.23669922 7.71162109 23.23669922 7.71162109 23.98828125 8.62890625 C27.38232671 13.21694815 26.48780634 18.74177763 26.53759766 24.24169922 C26.56206482 26.21490419 26.61863505 28.18762721 26.67578125 30.16015625 C26.75992338 39.35034688 25.60436853 46.47838483 19.21166992 53.38452148 C13.35169295 58.9476954 7.85930798 61.38853934 -0.25 61.6875 C-9.0222929 61.44633731 -13.95812089 58.4768926 -20.171875 52.51953125 C-26.11707451 44.29533859 -26.43272812 36.51638625 -26.3125 26.5625 C-26.32796875 25.27021484 -26.3434375 23.97792969 -26.359375 22.64648438 C-26.32569685 14.49216282 -25.89599927 10.45330854 -20.21484375 4.60546875 C-13.69600341 -0.59221995 -8.0382699 0.03489211 0 0 Z " fill="#030302" transform="translate(255.8125,206.75)"/>
<path d="M0 0 C2.01719063 -0.00966319 4.03334338 -0.04066593 6.05029297 -0.07226562 C7.97035156 -0.08 7.97035156 -0.08 9.92919922 -0.08789062 C11.68538574 -0.10190918 11.68538574 -0.10190918 13.47705078 -0.11621094 C17.82577396 0.35187634 21.18845273 1.78074114 24.43310547 4.74023438 C29.71403198 11.52242763 29.03779163 17.55412166 29.10107422 25.86523438 C29.13007813 27.11175781 29.15908203 28.35828125 29.18896484 29.64257812 C29.25744038 39.61893764 27.48099909 47.32657672 20.52294922 54.73242188 C14.03627988 60.37173351 6.8415449 61.00471793 -1.54736328 60.74414062 C-8.20100753 59.82908721 -12.77735276 57.13673045 -17.08251953 52.01367188 C-23.01191255 43.51060947 -23.57599465 36.57730837 -23.58642578 26.36523438 C-23.61091797 25.11097656 -23.63541016 23.85671875 -23.66064453 22.56445312 C-23.68280264 15.58464839 -23.54561321 10.83987799 -19.21142578 5.24023438 C-12.94041596 -0.43353642 -8.23136476 0.02387633 0 0 Z " fill="#030202" transform="translate(345.21142578125,225.759765625)"/>
<path d="M0 0 C2.01719063 -0.00966319 4.03334338 -0.04066593 6.05029297 -0.07226562 C7.97035156 -0.08 7.97035156 -0.08 9.92919922 -0.08789062 C11.68538574 -0.10190918 11.68538574 -0.10190918 13.47705078 -0.11621094 C18.4177341 0.41559367 21.67819658 2.03732527 25.03857422 5.67773438 C29.52956541 12.25382862 29.22374296 17.89565183 29.28857422 25.74023438 C29.32982422 26.95710938 29.37107422 28.17398438 29.41357422 29.42773438 C29.48888368 38.2389417 27.80923049 44.91177175 22.78857422 52.24023438 C16.20469962 58.67198618 9.7656861 60.73324366 0.59936523 60.7421875 C-6.94335409 60.49985114 -11.9656051 57.65546115 -17.08251953 52.27148438 C-23.53377105 44.22675826 -23.57617188 36.27465452 -23.58642578 26.30273438 C-23.61091797 25.05298828 -23.63541016 23.80324219 -23.66064453 22.515625 C-23.68284187 15.54936133 -23.53239098 10.83068023 -19.21142578 5.24023438 C-12.94041596 -0.43353642 -8.23136476 0.02387633 0 0 Z " fill="#040302" transform="translate(161.21142578125,225.759765625)"/>
<path d="M0 0 C7.26 0 14.52 0 22 0 C22 28.05 22 56.1 22 85 C14.74 85 7.48 85 0 85 C0 56.95 0 28.9 0 0 Z " fill="#D28A63" transform="translate(291,360)"/>
<path d="M0 0 C7.26 0 14.52 0 22 0 C22 28.05 22 56.1 22 85 C14.74 85 7.48 85 0 85 C0 56.95 0 28.9 0 0 Z " fill="#C47E5C" transform="translate(199,360)"/>
<path d="M0 0 C7.26 0 14.52 0 22 0 C22 22.11 22 44.22 22 67 C14.74 67 7.48 67 0 67 C0 44.89 0 22.78 0 0 Z " fill="#825151" transform="translate(383,378)"/>
<path d="M0 0 C7.26 0 14.52 0 22 0 C22 22.11 22 44.22 22 67 C14.74 67 7.48 67 0 67 C0 44.89 0 22.78 0 0 Z " fill="#F7BA7E" transform="translate(107,378)"/>
<path d="M0 0 C1.06669922 0.00322266 2.13339844 0.00644531 3.23242188 0.00976562 C4.88661133 0.02233398 4.88661133 0.02233398 6.57421875 0.03515625 C7.69634766 0.03966797 8.81847656 0.04417969 9.97460938 0.04882812 C12.73703385 0.06058312 15.49934873 0.07701548 18.26171875 0.09765625 C18.26171875 0.42765625 18.26171875 0.75765625 18.26171875 1.09765625 C11.66171875 1.09765625 5.06171875 1.09765625 -1.73828125 1.09765625 C-1.68027344 3.22847656 -1.62226563 5.35929687 -1.5625 7.5546875 C-1.5234998 9.61983519 -1.49314424 11.68494179 -1.46362305 13.75024414 C-1.43848601 15.18500139 -1.40437017 16.61963066 -1.36108398 18.05395508 C-1.3003846 20.11701995 -1.27206772 22.1783924 -1.25 24.2421875 C-1.22381592 25.48331299 -1.19763184 26.72443848 -1.1706543 28.00317383 C-1.73828125 31.09765625 -1.73828125 31.09765625 -4.20629883 32.90112305 C-5.04185303 33.295979 -5.87740723 33.69083496 -6.73828125 34.09765625 C-8.15462958 36.93035291 -8.08458175 39.57232063 -8.30078125 42.72265625 C-8.44515625 44.82640625 -8.58953125 46.93015625 -8.73828125 49.09765625 C-15.99828125 49.09765625 -23.25828125 49.09765625 -30.73828125 49.09765625 C-31.94547016 18.96264415 -31.94547016 18.96264415 -22.76953125 8.94921875 C-16.0097338 2.57940962 -9.22879519 -0.04935185 0 0 Z " fill="#4AC0EB" transform="translate(137.73828125,313.90234375)"/>
<path d="M0 0 C0 9.9 0 19.8 0 30 C0.66 30.33 1.32 30.66 2 31 C0.865625 31.28875 -0.26875 31.5775 -1.4375 31.875 C-2.613125 32.24625 -3.78875 32.6175 -5 33 C-6.4807848 35.9615696 -6.35314037 38.83506295 -6.5625 42.125 C-6.7790625 45.528125 -6.7790625 45.528125 -7 49 C-14.26 49 -21.52 49 -29 49 C-29.16352258 44.74841294 -29.28166856 40.50324696 -29.375 36.25 C-29.42527344 35.06277344 -29.47554687 33.87554687 -29.52734375 32.65234375 C-29.67133868 23.86865282 -28.00284971 17.30407569 -23 10 C-16.30317147 3.24055027 -9.5848909 0 0 0 Z " fill="#B5AFB5" transform="translate(44,333)"/>
<path d="M0 0 C0.495 15.345 0.495 15.345 1 31 C-0.65 31.66 -2.3 32.32 -4 33 C-6.85793316 35.85793316 -6.40799941 38.14665584 -6.625 42.125 C-6.74875 44.39375 -6.8725 46.6625 -7 49 C-14.26 49 -21.52 49 -29 49 C-29.10856412 44.85345366 -29.18760125 40.70978832 -29.25 36.5625 C-29.28351563 35.39783203 -29.31703125 34.23316406 -29.3515625 33.03320312 C-29.47004485 22.51789472 -27.09121058 15.51712608 -19.9375 7.79296875 C-13.68328838 2.00530114 -8.59674988 0 0 0 Z " fill="#F84354" transform="translate(228,296)"/>
<path d="M0 0 C7.26 0 14.52 0 22 0 C22 15.84 22 31.68 22 48 C14.74 48 7.48 48 0 48 C0 32.16 0 16.32 0 0 Z " fill="#FCCF8B" transform="translate(475,397)"/>
<path d="M0 0 C7.26 0 14.52 0 22 0 C22 15.84 22 31.68 22 48 C14.74 48 7.48 48 0 48 C0 32.16 0 16.32 0 0 Z " fill="#F1A872" transform="translate(15,397)"/>
<path d="M0 0 C0.89460937 -0.00128906 1.78921875 -0.00257813 2.7109375 -0.00390625 C3.65195313 -0.00003906 4.59296875 0.00382813 5.5625 0.0078125 C6.97402344 0.00201172 6.97402344 0.00201172 8.4140625 -0.00390625 C9.75597656 -0.00197266 9.75597656 -0.00197266 11.125 0 C11.95128906 0.00112793 12.77757812 0.00225586 13.62890625 0.00341797 C15.5625 0.1328125 15.5625 0.1328125 16.5625 1.1328125 C16.87116679 4.68652523 16.84100006 8.25485181 16.875 11.8203125 C16.90400391 12.81482422 16.93300781 13.80933594 16.96289062 14.83398438 C17.01572945 20.942965 16.64941317 24.48928615 12.5625 29.1328125 C9.14699489 31.72388534 5.72924536 31.63569556 1.5625 31.1328125 C-1.91315519 29.11569118 -4.14203512 27.01920714 -5.4375 23.1328125 C-5.53067856 21.44469824 -5.56819271 19.75318256 -5.5703125 18.0625 C-5.57160156 17.08410156 -5.57289063 16.10570312 -5.57421875 15.09765625 C-5.57035156 14.07800781 -5.56648437 13.05835938 -5.5625 12.0078125 C-5.56636719 10.98042969 -5.57023438 9.95304688 -5.57421875 8.89453125 C-5.57292969 7.91871094 -5.57164062 6.94289062 -5.5703125 5.9375 C-5.56918457 5.04015137 -5.56805664 4.14280273 -5.56689453 3.21826172 C-5.3274724 -0.64050031 -3.38339497 0.00461852 0 0 Z " fill="#D08962" transform="translate(250.4375,221.8671875)"/>
<path d="M0 0 C0.89460938 -0.00128906 1.78921875 -0.00257813 2.7109375 -0.00390625 C3.65195313 -0.00003906 4.59296875 0.00382812 5.5625 0.0078125 C6.97402344 0.00201172 6.97402344 0.00201172 8.4140625 -0.00390625 C9.75597656 -0.00197266 9.75597656 -0.00197266 11.125 0 C11.95128906 0.00112793 12.77757813 0.00225586 13.62890625 0.00341797 C15.5625 0.1328125 15.5625 0.1328125 16.5625 1.1328125 C16.87116679 4.68652523 16.84100006 8.25485181 16.875 11.8203125 C16.90400391 12.81482422 16.93300781 13.80933594 16.96289062 14.83398438 C17.01567749 20.93695849 16.69428646 24.52456778 12.5625 29.1328125 C8.8703813 31.59422497 5.84895195 31.81931457 1.5625 31.1328125 C-2.00511163 28.96122281 -3.88708846 26.97084317 -5.4375 23.1328125 C-5.68041992 20.67504883 -5.68041992 20.67504883 -5.66796875 17.96484375 C-5.66603516 16.98966797 -5.66410156 16.01449219 -5.66210938 15.00976562 C-5.64986328 13.99849609 -5.63761719 12.98722656 -5.625 11.9453125 C-5.62435547 10.92244141 -5.62371094 9.89957031 -5.62304688 8.84570312 C-5.5702646 0.00760372 -5.5702646 0.00760372 0 0 Z " fill="#F7BA7E" transform="translate(66.4375,258.8671875)"/>
<path d="M0 0 C0.89460938 -0.00128906 1.78921875 -0.00257813 2.7109375 -0.00390625 C3.65195312 -0.00003906 4.59296875 0.00382812 5.5625 0.0078125 C6.97402344 0.00201172 6.97402344 0.00201172 8.4140625 -0.00390625 C9.75597656 -0.00197266 9.75597656 -0.00197266 11.125 0 C11.95128906 0.00112793 12.77757812 0.00225586 13.62890625 0.00341797 C15.5625 0.1328125 15.5625 0.1328125 16.5625 1.1328125 C16.87116679 4.68652523 16.84100006 8.25485181 16.875 11.8203125 C16.90400391 12.81482422 16.93300781 13.80933594 16.96289062 14.83398438 C17.01572945 20.942965 16.64941317 24.48928615 12.5625 29.1328125 C9.15451828 31.71817795 5.7217849 31.57063196 1.5625 31.1328125 C-1.96679126 28.93680905 -3.8978024 26.9612845 -5.4375 23.1328125 C-5.68041992 20.67504883 -5.68041992 20.67504883 -5.66796875 17.96484375 C-5.66603516 16.98966797 -5.66410156 16.01449219 -5.66210938 15.00976562 C-5.64986328 13.99849609 -5.63761719 12.98722656 -5.625 11.9453125 C-5.62435547 10.92244141 -5.62371094 9.89957031 -5.62304688 8.84570312 C-5.5702646 0.00760372 -5.5702646 0.00760372 0 0 Z " fill="#FBCE8B" transform="translate(434.4375,258.8671875)"/>
<path d="M0 0 C7.26 0 14.52 0 22 0 C22.061875 3.50625 22.12375 7.0125 22.1875 10.625 C22.21481201 11.71893066 22.24212402 12.81286133 22.27026367 13.93994141 C22.31643547 19.35246716 22.19722832 23.39420255 19 28 C14.77005384 30.8199641 10.96779552 30.79231188 6 30 C2.65374976 27.47323961 1.32022153 25.96066458 0 22 C-0.08178114 20.29983156 -0.10749501 18.59663703 -0.09765625 16.89453125 C-0.09515869 16.00870361 -0.09266113 15.12287598 -0.09008789 14.21020508 C-0.08098389 13.0889624 -0.07187988 11.96771973 -0.0625 10.8125 C-0.041875 7.244375 -0.02125 3.67625 0 0 Z " fill="#825050" transform="translate(337,241)"/>
<path d="M0 0 C7.26 0 14.52 0 22 0 C22.061875 3.50625 22.12375 7.0125 22.1875 10.625 C22.21481201 11.71893066 22.24212402 12.81286133 22.27026367 13.93994141 C22.31643547 19.35246716 22.19722832 23.39420255 19 28 C14.77005384 30.8199641 10.96779552 30.79231188 6 30 C2.65374976 27.47323961 1.32022153 25.96066458 0 22 C-0.08178114 20.29983156 -0.10749501 18.59663703 -0.09765625 16.89453125 C-0.09515869 16.00870361 -0.09266113 15.12287598 -0.09008789 14.21020508 C-0.08098389 13.0889624 -0.07187988 11.96771973 -0.0625 10.8125 C-0.041875 7.244375 -0.02125 3.67625 0 0 Z " fill="#FBCE8B" transform="translate(153,241)"/>
<path d="M0 0 C4 2 4 2 5 4.375 C5 7 5 7 3.125 9.3125 C1 11 1 11 0 11 C0 7.37 0 3.74 0 0 Z " fill="#FFEDA8" transform="translate(374,246)"/>
<path d="M0 0 C0 3.63 0 7.26 0 11 C-1.32 10.34 -2.64 9.68 -4 9 C-4.75 5.875 -4.75 5.875 -5 3 C-1.125 0 -1.125 0 0 0 Z " fill="#FFEEA8" transform="translate(138,246)"/>
</svg>
