<?xml version="1.0" encoding="utf-8"?><!-- Uploaded to: SVG Repo, www.svgrepo.com, Generator: SVG Repo Mixer Tools -->
<svg fill="#000000" width="800px" height="800px" viewBox="0 0 24 24" id="flag-square" data-name="Flat Color" xmlns="http://www.w3.org/2000/svg" class="icon flat-color"><path id="primary" d="M17,3H6A1,1,0,0,0,5,4v8a1,1,0,0,0,1,1H17a2,2,0,0,0,2-2V5A2,2,0,0,0,17,3Z" style="fill: rgb(0, 0, 0);"></path><path id="secondary" d="M6,22a1,1,0,0,1-1-1V3A1,1,0,0,1,7,3V21A1,1,0,0,1,6,22Z" style="fill: rgb(44, 169, 188);"></path></svg>