<svg width="800px" height="800px" viewBox="0 0 27 27" fill="none" xmlns="http://www.w3.org/2000/svg">
<path d="M0 4.29545C0 1.92314 1.92314 0 4.29545 0H22.7045C25.0769 0 27 1.92314 27 4.29545V22.7045C27 25.0769 25.0769 27 22.7045 27H4.29545C1.92314 27 0 25.0769 0 22.7045V4.29545Z" fill="#00AA71"/>
<path d="M12.4424 5.22583H14.524V8.02783H12.4424V5.22583ZM12.4424 15.4196H14.524V20.0094H12.4424V15.4196ZM10.6461 8.45758H12.7278C12.4256 11.4315 11.5862 13.3224 7.17117 14.3022C7.00329 13.7865 6.51646 12.9614 6.09678 12.5488C9.89072 11.8784 10.4111 10.6235 10.6461 8.45758ZM14.3226 8.4232H16.3203V11.3799C16.3203 11.844 16.421 11.8956 16.9246 11.8956C17.1596 11.8956 18.1333 11.8956 18.4355 11.8956C18.8552 11.8956 18.9391 11.7237 19.0063 10.6579C19.3924 10.9502 20.1982 11.2424 20.7354 11.3627C20.5171 13.1677 19.9967 13.649 18.6369 13.649C18.234 13.649 17.0086 13.649 16.6392 13.649C14.7423 13.649 14.3226 13.1161 14.3226 11.3799V8.4232ZM6.3318 6.77294H20.7689V10.3485H18.6873V8.62948H8.31271V10.6579H6.3318V6.77294ZM7.9266 14.6117H19.4931V16.451H7.9266V14.6117ZM6.14714 19.0467H20.9032V20.9033H6.14714V19.0467Z" fill="#FFFFFE"/>
</svg>
