<svg width="800px" height="800px" viewBox="0 0 27 27" fill="none" xmlns="http://www.w3.org/2000/svg">
<path d="M0 4.29545C0 1.92314 1.92314 0 4.29545 0H22.7045C25.0769 0 27 1.92314 27 4.29545V22.7045C27 25.0769 25.0769 27 22.7045 27H4.29545C1.92314 27 0 25.0769 0 22.7045V4.29545Z" fill="#FFC000"/>
<path d="M12.353 5.22583H14.5244V7.65088H12.353V5.22583ZM12.5106 15.5408H14.5069V19.8273H12.5106V15.5408ZM5.78618 6.21634H21.1788V9.51236H19.0249V7.9412H7.83502V9.51236H5.78618V6.21634ZM9.97143 8.28276H11.9502V14.1917H9.97143V8.28276ZM15.0147 8.28276H17.0286V14.1917H15.0147V8.28276ZM7.44977 9.05126H19.4627V10.5029H7.44977V9.05126ZM9.48111 16.5996H17.624V18.1537H9.48111V16.5996ZM6.97696 19.2467H20.0931V20.9032H6.97696V19.2467ZM7.6424 11.2543H19.3576V12.6547H7.6424V11.2543ZM5.73364 13.4232H21.2488V15.1139H5.73364V13.4232ZM10.2166 14.26L11.9502 14.9431C10.7069 16.5143 8.62304 17.8976 6.55668 18.5807C6.25899 18.1196 5.64608 17.4023 5.22581 17.0095C7.1871 16.4972 9.18341 15.4384 10.2166 14.26ZM16.8184 14.1234C17.8341 15.2676 19.7954 16.2922 21.7742 16.7704C21.3364 17.1632 20.7235 17.9146 20.4083 18.4099C18.3419 17.7439 16.3456 16.3435 15.1373 14.7723L16.8184 14.1234Z" fill="#3E3A39"/>
</svg>
