<svg width="800px" height="800px" viewBox="0 0 27 27" fill="none" xmlns="http://www.w3.org/2000/svg">
<path d="M0 4.29545C0 1.92314 1.92314 0 4.29545 0H22.7045C25.0769 0 27 1.92314 27 4.29545V22.7045C27 25.0769 25.0769 27 22.7045 27H4.29545C1.92314 27 0 25.0769 0 22.7045V4.29545Z" fill="#C30D23"/>
<path d="M9.57319 7.30019H20.9032V9.03841H9.57319V7.30019ZM11.9231 14.7043H13.2827V15.9077H11.9231V14.7043ZM14.2395 11.3115H16.0019V21.6907H14.2395V11.3115ZM18.8051 12.4647H20.5843V20.1029C20.5843 20.8717 20.45 21.2728 19.9465 21.5235C19.4597 21.7575 18.7547 21.7742 17.798 21.7742C17.7308 21.323 17.5462 20.7213 17.3615 20.3034C17.8651 20.3201 18.419 20.3201 18.5701 20.3201C18.7547 20.3201 18.8051 20.27 18.8051 20.0861V12.4647ZM9.80818 12.4647H19.7115V14.1361H11.5035V21.7742H9.80818V12.4647ZM5.88043 7.71803L7.00504 6.26394C7.92823 6.64835 9.1032 7.30018 9.69068 7.81831L8.49893 9.42282C7.9618 8.88798 6.80362 8.15258 5.88043 7.71803ZM5.22581 12.1806L6.33363 10.7098C7.27361 11.0608 8.46536 11.6625 9.03606 12.1806L7.86109 13.8018C7.32396 13.2837 6.16578 12.5984 5.22581 12.1806ZM5.51116 20.6043C6.16578 19.3006 7.03861 17.178 7.71002 15.2225L9.33819 16.2587C8.75071 18.0471 8.02894 19.9859 7.34075 21.6238L5.51116 20.6043ZM11.8392 6.0968H13.7359V9.99109H16.6062V6.0968H18.5701V11.6625H11.8392V6.0968ZM12.4267 14.7043H13.6016C13.6352 16.5596 13.9373 18.0805 14.6255 18.7992C14.3738 18.9329 13.9374 19.3173 13.7695 19.5847C13.0477 18.6989 12.712 17.1445 12.6449 15.2392H12.4267V14.7043ZM12.3595 16.3256H13.4338C13.3163 17.6627 12.9638 18.9496 12.0406 19.7853C11.8895 19.5346 11.5371 19.1502 11.2853 18.983C12.007 18.3479 12.2924 17.295 12.3595 16.3256ZM16.388 14.7043H17.6805V15.9077H16.388V14.7043ZM16.8748 14.7043H18.0665C18.1001 16.5596 18.419 18.0638 19.1408 18.7658C18.8722 18.9329 18.4526 19.3006 18.2679 19.568C17.5294 18.6822 17.1601 17.1445 17.1098 15.2392H16.8748V14.7043ZM16.8244 16.3256H17.9155C17.7812 17.5958 17.4455 18.8159 16.4887 19.6014C16.3376 19.3507 16.0019 18.9663 15.7334 18.7992C16.4719 18.2309 16.7573 17.2448 16.8244 16.3256Z" fill="#fffffe"/>
</svg>
