<?xml version="1.0" encoding="UTF-8"?>
<svg version="1.1" xmlns="http://www.w3.org/2000/svg" width="512" height="512">
<path d="M0 0 C19.64310634 16.50723368 34.95998326 37.87100875 38 64 C40.00706443 92.38316441 35.11130766 117.2402984 16.84375 139.64453125 C1.16139024 157.61850344 -19.85743175 171.28059547 -44 174 C-52.32945635 174.42486842 -60.66731208 174.2611813 -69 174 C-68.51402344 174.99257812 -68.02804687 175.98515625 -67.52734375 177.0078125 C-65.26967335 183.0557616 -65.51538608 189.35855123 -65.55395508 195.72607422 C-65.56245602 197.86393956 -65.53365589 199.99911676 -65.50195312 202.13671875 C-65.44794492 212.60297732 -66.92437001 221.54216543 -74.28515625 229.46484375 C-78.06306371 232.84688847 -82.19462075 235.39820692 -87 237 C-85.91085297 237.00364563 -84.82170593 237.00729126 -83.69955444 237.01104736 C-73.42937619 237.04800774 -63.15949748 237.10579195 -52.88954735 237.18390274 C-47.60978334 237.22339176 -42.33018648 237.25557334 -37.05029297 237.27099609 C-31.95373399 237.28615316 -26.85763447 237.32058214 -21.76128006 237.36830902 C-19.81810121 237.38313256 -17.87485676 237.39104157 -15.93162155 237.39188385 C-13.20701002 237.39425232 -10.48366948 237.421322 -7.75927734 237.45410156 C-6.95798401 237.4490712 -6.15669067 237.44404083 -5.33111572 237.43885803 C-0.11483093 237.53579113 2.86391732 238.55342172 7 242 C12.62137011 248.21487738 15.13504548 257.21024781 18.17578125 264.89453125 C18.75103231 266.33343819 19.32682179 267.77212998 19.90312195 269.21061707 C21.10217823 272.20839159 22.29590769 275.20821248 23.4855957 278.2097168 C25.01116113 282.05784435 26.5482787 285.90122939 28.08912373 289.74326038 C29.27606278 292.70560256 30.45784211 295.66998081 31.63796043 298.63504601 C32.20314902 300.05378899 32.76973178 301.47197739 33.33773232 302.88959694 C34.1278229 304.86426815 34.91114898 306.84148749 35.69262695 308.81958008 C36.13943314 309.94350662 36.58623932 311.06743317 37.04658508 312.22541809 C38 315 38 315 38 318 C39.11375 317.9175 40.2275 317.835 41.375 317.75 C49.02782973 317.77708966 55.93147235 321.12526663 61.46875 326.296875 C69.35694147 335.07047571 70.37318299 344.16710003 70.37060547 355.57519531 C70.37496087 357.73063275 70.41128078 359.88398881 70.44921875 362.0390625 C70.53549209 372.55309364 69.12869463 381.51814009 61.703125 389.46875 C54.51465205 395.93178072 47.49385146 398.10700038 38 398 C38.02094727 398.82725586 38.04189453 399.65451172 38.06347656 400.50683594 C38.14661619 404.2544337 38.19865531 408.00183749 38.25 411.75 C38.28351563 413.05195313 38.31703125 414.35390625 38.3515625 415.6953125 C38.36445313 416.94570313 38.37734375 418.19609375 38.390625 419.484375 C38.41157227 420.63647461 38.43251953 421.78857422 38.45410156 422.97558594 C37.88997235 426.73280781 36.93893464 427.66221284 34 430 C31.41992188 430.50793457 31.41992188 430.50793457 28.46875 430.51757812 C27.36080078 430.53018677 26.25285156 430.54279541 25.11132812 430.55578613 C23.91958984 430.54768921 22.72785156 430.53959229 21.5 430.53125 C19.65825195 430.53699036 19.65825195 430.53699036 17.77929688 430.54284668 C15.18358541 430.54556842 12.58784664 430.53818911 9.9921875 430.52148438 C6.01500401 430.50008075 2.03962718 430.52127963 -1.9375 430.546875 C-4.45833733 430.54423177 -6.97917353 430.53910691 -9.5 430.53125 C-10.69173828 430.53934692 -11.88347656 430.54744385 -13.11132812 430.55578613 C-14.77325195 430.53687317 -14.77325195 430.53687317 -16.46875 430.51757812 C-17.44263672 430.51439575 -18.41652344 430.51121338 -19.41992188 430.50793457 C-22 430 -22 430 -26 426 C-26 416.76 -26 407.52 -26 398 C-73.52 398 -121.04 398 -170 398 C-170 407.24 -170 416.48 -170 426 C-174.50114122 430.50114122 -174.50114122 430.50114122 -179.53125 430.51757812 C-180.63919922 430.53018677 -181.74714844 430.54279541 -182.88867188 430.55578613 C-184.08041016 430.54768921 -185.27214844 430.53959229 -186.5 430.53125 C-188.34174805 430.53699036 -188.34174805 430.53699036 -190.22070312 430.54284668 C-192.81641459 430.54556842 -195.41215336 430.53818911 -198.0078125 430.52148438 C-201.98499599 430.50008075 -205.96037282 430.52127963 -209.9375 430.546875 C-212.45833733 430.54423177 -214.97917353 430.53910691 -217.5 430.53125 C-218.69173828 430.53934692 -219.88347656 430.54744385 -221.11132812 430.55578613 C-222.77325195 430.53687317 -222.77325195 430.53687317 -224.46875 430.51757812 C-225.44263672 430.51439575 -226.41652344 430.51121338 -227.41992188 430.50793457 C-230.74361397 429.85360628 -231.93937783 428.64108544 -234 426 C-234.45410156 422.97558594 -234.45410156 422.97558594 -234.390625 419.484375 C-234.37773437 418.23398437 -234.36484375 416.98359375 -234.3515625 415.6953125 C-234.30128906 413.74238281 -234.30128906 413.74238281 -234.25 411.75 C-234.23195312 410.43257813 -234.21390625 409.11515625 -234.1953125 407.7578125 C-234.14816271 404.50447692 -234.08236044 401.25260375 -234 398 C-235.21558594 398.03351563 -236.43117187 398.06703125 -237.68359375 398.1015625 C-245.29936544 398.09150425 -251.93835152 394.86830848 -257.46875 389.703125 C-265.35694147 380.92952429 -266.37318299 371.83289997 -266.37060547 360.42480469 C-266.37496087 358.26936725 -266.41128078 356.11601119 -266.44921875 353.9609375 C-266.53549209 343.44690636 -265.12869463 334.48185991 -257.703125 326.53125 C-250.61050156 320.1543959 -243.43786431 317.6745564 -234 318 C-233.88525833 317.30780869 -233.77051666 316.61561737 -233.65229797 315.90245056 C-232.9153099 312.62316482 -231.80554506 309.68465017 -230.56323242 306.56079102 C-230.31591873 305.93571655 -230.06860504 305.31064209 -229.813797 304.66662598 C-228.9988103 302.61058305 -228.17747466 300.55715203 -227.35546875 298.50390625 C-226.78337764 297.06818044 -226.21146574 295.63238321 -225.63972473 294.19651794 C-224.44140799 291.19028478 -223.23972641 288.18542279 -222.03588867 285.18139648 C-220.49839724 281.3435075 -218.97114586 277.50163683 -217.44665051 273.65857029 C-216.26839005 270.69256538 -215.08374897 267.72914003 -213.89730263 264.76640129 C-213.33181242 263.35157678 -212.76849453 261.93588191 -212.20744896 260.51928902 C-211.41988062 258.53301262 -210.62351871 256.55047879 -209.82495117 254.56860352 C-209.37496262 253.44229019 -208.92497406 252.31597687 -208.46134949 251.15553284 C-206.00616625 245.85398698 -203.70394085 242.52795563 -199 239 C-229.03 238.67 -259.06 238.34 -290 238 C-290 247.24 -290 256.48 -290 266 C-294.50114122 270.50114122 -294.50114122 270.50114122 -299.53125 270.51757812 C-300.63919922 270.53018677 -301.74714844 270.54279541 -302.88867188 270.55578613 C-304.08041016 270.54768921 -305.27214844 270.53959229 -306.5 270.53125 C-308.34174805 270.53699036 -308.34174805 270.53699036 -310.22070312 270.54284668 C-312.81641459 270.54556842 -315.41215336 270.53818911 -318.0078125 270.52148438 C-321.98499599 270.50008075 -325.96037282 270.52127963 -329.9375 270.546875 C-332.45833733 270.54423177 -334.97917353 270.53910691 -337.5 270.53125 C-339.28760742 270.54339539 -339.28760742 270.54339539 -341.11132812 270.55578613 C-342.77325195 270.53687317 -342.77325195 270.53687317 -344.46875 270.51757812 C-345.44263672 270.51439575 -346.41652344 270.51121338 -347.41992188 270.50793457 C-350.74361397 269.85360628 -351.93937783 268.64108544 -354 266 C-354.45410156 262.97558594 -354.45410156 262.97558594 -354.390625 259.484375 C-354.37773437 258.23398437 -354.36484375 256.98359375 -354.3515625 255.6953125 C-354.31804687 254.39335937 -354.28453125 253.09140625 -354.25 251.75 C-354.22292969 249.77386719 -354.22292969 249.77386719 -354.1953125 247.7578125 C-354.14816271 244.50447692 -354.08236044 241.25260375 -354 238 C-355.21558594 238.03351563 -356.43117188 238.06703125 -357.68359375 238.1015625 C-365.29936544 238.09150425 -371.93835152 234.86830848 -377.46875 229.703125 C-385.35694147 220.92952429 -386.37318299 211.83289997 -386.37060547 200.42480469 C-386.37496087 198.26936725 -386.41128078 196.11601119 -386.44921875 193.9609375 C-386.53549209 183.44690636 -385.12869463 174.48185991 -377.703125 166.53125 C-370.61050156 160.1543959 -363.43786431 157.6745564 -354 158 C-353.88525833 157.30780869 -353.77051666 156.61561737 -353.65229797 155.90245056 C-352.9153099 152.62316482 -351.80554506 149.68465017 -350.56323242 146.56079102 C-350.31591873 145.93571655 -350.06860504 145.31064209 -349.813797 144.66662598 C-348.9988103 142.61058305 -348.17747466 140.55715203 -347.35546875 138.50390625 C-346.78337764 137.06818044 -346.21146574 135.63238321 -345.63972473 134.19651794 C-344.44140799 131.19028478 -343.23972641 128.18542279 -342.03588867 125.18139648 C-340.49839724 121.3435075 -338.97114586 117.50163683 -337.44665051 113.65857029 C-336.26839005 110.69256538 -335.08374897 107.72914003 -333.89730263 104.76640129 C-333.33181242 103.35157678 -332.76849453 101.93588191 -332.20744896 100.51928902 C-331.41988062 98.53301262 -330.62351871 96.55047879 -329.82495117 94.56860352 C-329.37496262 93.44229019 -328.92497406 92.31597687 -328.46134949 91.15553284 C-325.64381551 85.07155289 -322.89442207 81.31466275 -317 78 C-313.71608162 77.50780869 -313.71608162 77.50780869 -310.09036255 77.51898193 C-309.08424417 77.51385538 -309.08424417 77.51385538 -308.05780017 77.50862527 C-305.82340948 77.50206729 -303.59023592 77.52398564 -301.35595703 77.54589844 C-299.7491814 77.54702738 -298.14240371 77.54639215 -296.53562927 77.54412842 C-292.18263604 77.54298215 -287.83008492 77.56647722 -283.47719431 77.59442425 C-278.9248317 77.61945245 -274.37245863 77.62178102 -269.82003784 77.62652588 C-261.20343521 77.63895149 -252.58703591 77.67176748 -243.97052276 77.71192384 C-234.15923264 77.75665446 -224.34793274 77.77863184 -214.53656602 77.79870558 C-194.35759725 77.84050047 -174.17881144 77.91084447 -154 78 C-154.01094444 76.56278091 -154.01094444 76.56278091 -154.02210999 75.0965271 C-154.02778488 73.83796906 -154.03345978 72.57941101 -154.03930664 71.28271484 C-154.05025108 69.41237076 -154.05025108 69.41237076 -154.06141663 67.50424194 C-153.65007331 44.03426952 -139.64080472 22.66361543 -123.6640625 6.66015625 C-90.65253051 -24.58862403 -36.2365741 -27.43092649 0 0 Z " fill="#00A0C8" transform="translate(410,50)"/>
<path d="M0 0 C1.17413397 -0.00453111 2.34826794 -0.00906223 3.55798173 -0.01373065 C6.80881536 -0.02418942 10.05950963 -0.02570243 13.31035471 -0.02334189 C16.81969182 -0.02293324 20.32899611 -0.03397753 23.83831787 -0.04345703 C30.71097658 -0.06005797 37.58360097 -0.06556618 44.45627806 -0.06668179 C50.04434587 -0.06763276 55.63240238 -0.07174552 61.22046661 -0.07808304 C77.07157501 -0.09569354 92.92265634 -0.10492229 108.77377459 -0.10342209 C109.62800967 -0.10334218 110.48224474 -0.10326227 111.36236572 -0.10317993 C112.64528713 -0.10305729 112.64528713 -0.10305729 113.95412615 -0.10293217 C127.8112685 -0.10211949 141.6683021 -0.1212532 155.52541301 -0.14945666 C169.76155522 -0.17820238 183.99764442 -0.19199601 198.23381639 -0.19026911 C206.22320286 -0.18960576 214.21247534 -0.19507398 222.20183563 -0.21662521 C229.00498624 -0.23485932 235.8079712 -0.23916618 242.61113569 -0.22560637 C246.07978865 -0.21908766 249.54812401 -0.21891919 253.01674652 -0.23631287 C256.78358258 -0.25175774 260.54958796 -0.24246058 264.31640625 -0.22705078 C265.94746421 -0.24248147 265.94746421 -0.24248147 267.61147285 -0.25822389 C276.91771437 -0.17426015 284.96455396 2.10467526 291.88092041 8.56430054 C299.76911188 17.33790125 300.7853534 26.43452556 300.78277588 37.84262085 C300.78713128 39.99805828 300.82345119 42.15141434 300.86138916 44.30648804 C300.9476625 54.82051918 299.54086504 63.78556563 292.11529541 71.73617554 C284.92682246 78.19920626 277.90602187 80.37442591 268.41217041 80.26742554 C268.43311768 81.0946814 268.45406494 81.92193726 268.47564697 82.77426147 C268.5587866 86.52185924 268.61082572 90.26926303 268.66217041 94.01742554 C268.69568604 95.31937866 268.72920166 96.62133179 268.76373291 97.96273804 C268.77662354 99.21312866 268.78951416 100.46351929 268.80279541 101.75180054 C268.82374268 102.90390015 268.84468994 104.05599976 268.86627197 105.24301147 C268.30214276 109.00023335 267.35110505 109.92963838 264.41217041 112.26742554 C261.83209229 112.77536011 261.83209229 112.77536011 258.88092041 112.78500366 C257.77297119 112.7976123 256.66502197 112.81022095 255.52349854 112.82321167 C254.33176025 112.81511475 253.14002197 112.80701782 251.91217041 112.79867554 C250.07042236 112.80441589 250.07042236 112.80441589 248.19146729 112.81027222 C245.59575582 112.81299395 243.00001705 112.80561465 240.40435791 112.78890991 C236.42717442 112.76750628 232.45179759 112.78870516 228.47467041 112.81430054 C225.95383308 112.81165731 223.43299688 112.80653244 220.91217041 112.79867554 C219.72043213 112.80677246 218.52869385 112.81486938 217.30084229 112.82321167 C216.19289307 112.81060303 215.08494385 112.79799438 213.94342041 112.78500366 C212.96953369 112.78182129 211.99564697 112.77863892 210.99224854 112.77536011 C208.41217041 112.26742554 208.41217041 112.26742554 204.41217041 108.26742554 C204.41217041 99.02742554 204.41217041 89.78742554 204.41217041 80.26742554 C156.89217041 80.26742554 109.37217041 80.26742554 60.41217041 80.26742554 C60.41217041 89.50742554 60.41217041 98.74742554 60.41217041 108.26742554 C55.91102919 112.76856676 55.91102919 112.76856676 50.88092041 112.78500366 C49.77297119 112.7976123 48.66502197 112.81022095 47.52349854 112.82321167 C46.33176025 112.81511475 45.14002197 112.80701782 43.91217041 112.79867554 C42.07042236 112.80441589 42.07042236 112.80441589 40.19146729 112.81027222 C37.59575582 112.81299395 35.00001705 112.80561465 32.40435791 112.78890991 C28.42717442 112.76750628 24.45179759 112.78870516 20.47467041 112.81430054 C17.95383308 112.81165731 15.43299688 112.80653244 12.91217041 112.79867554 C11.12456299 112.81082092 11.12456299 112.81082092 9.30084229 112.82321167 C8.19289307 112.81060303 7.08494385 112.79799438 5.94342041 112.78500366 C4.96953369 112.78182129 3.99564697 112.77863892 2.99224854 112.77536011 C-0.33144356 112.12103181 -1.52720742 110.90851098 -3.58782959 108.26742554 C-4.04193115 105.24301147 -4.04193115 105.24301147 -3.97845459 101.75180054 C-3.96556396 100.50140991 -3.95267334 99.25101929 -3.93939209 97.96273804 C-3.90587646 96.66078491 -3.87236084 95.35883179 -3.83782959 94.01742554 C-3.81978271 92.70000366 -3.80173584 91.38258179 -3.78314209 90.02523804 C-3.7359923 86.77190246 -3.67019003 83.52002929 -3.58782959 80.26742554 C-4.80341553 80.30094116 -6.01900146 80.33445679 -7.27142334 80.36898804 C-14.88719503 80.35892979 -21.52618111 77.13573402 -27.05657959 71.97055054 C-34.94477106 63.19694983 -35.96101258 54.10032551 -35.95843506 42.69223022 C-35.96279046 40.53679279 -35.99911037 38.38343673 -36.03704834 36.22836304 C-36.12332168 25.7143319 -34.71652422 16.74928545 -27.29095459 8.79867554 C-19.02733499 1.3689992 -10.81052139 -0.03054141 0 0 Z " fill="#F9B400" transform="translate(179.58782958984375,367.7325744628906)"/>
<path d="M0 0 C19.64310634 16.50723368 34.95998326 37.87100875 38 64 C40.00706443 92.38316441 35.11130766 117.2402984 16.84375 139.64453125 C0.40968767 158.48004987 -21.63509286 172.15718483 -46.95703125 174.24365234 C-74.97144423 175.78513592 -100.12629962 169.0621563 -121.66015625 150.57470703 C-140.2069733 133.95895359 -152.7269277 110.61447265 -154.14257812 85.46728516 C-155.07817335 58.06293739 -148.98156019 34.85144487 -130.625 13.8125 C-96.90553266 -22.15109571 -40.37551809 -30.5640888 0 0 Z " fill="#C70A50" transform="translate(410,50)"/>
<path d="M0 0 C0.80943652 -0.00623996 1.61887304 -0.01247993 2.45283794 -0.01890898 C5.15676456 -0.03482453 7.85978789 -0.02224062 10.5637207 -0.00964355 C12.50559005 -0.01506532 14.44745529 -0.02218828 16.38931274 -0.03088379 C21.65788998 -0.04911356 26.92615378 -0.04205095 32.19473648 -0.02936745 C37.70925998 -0.01923805 43.2237567 -0.02863297 48.73828125 -0.03491211 C57.99882829 -0.04218867 67.25924772 -0.03260052 76.51977539 -0.0135498 C87.22511491 0.00821889 97.9301497 0.00116753 108.63548183 -0.02085543 C117.82800371 -0.03900911 127.02043386 -0.04156788 136.21296787 -0.03110075 C141.70276954 -0.02486568 147.192428 -0.02403066 152.68222046 -0.0372467 C157.84350214 -0.04880405 163.00439107 -0.04078137 168.16563034 -0.01766968 C170.05947594 -0.012382 171.95335461 -0.01389736 173.84718704 -0.02272034 C176.43323841 -0.03365715 179.01803257 -0.01993531 181.60400391 0 C182.3528419 -0.00892289 183.1016799 -0.01784577 183.87320995 -0.02703905 C188.97647332 0.04922922 191.84692747 1.33453982 195.80200195 4.50793457 C201.42337207 10.72281195 203.93704743 19.71818238 206.9777832 27.40246582 C207.55303426 28.84137276 208.12882374 30.28006455 208.7051239 31.71855164 C209.90418019 34.71632616 211.09790964 37.71614705 212.28759766 40.71765137 C213.81316308 44.56577892 215.35028065 48.40916396 216.89112568 52.25119495 C218.07806473 55.21353713 219.25984406 58.17791538 220.43996239 61.14298058 C221.00515097 62.56172356 221.57173374 63.97991196 222.13973427 65.39753151 C222.92982486 67.37220272 223.71315093 69.34942206 224.49462891 71.32751465 C225.16483818 73.01340446 225.16483818 73.01340446 225.84858704 74.73335266 C226.80200195 77.50793457 226.80200195 77.50793457 226.80200195 80.50793457 C137.04200195 80.50793457 47.28200195 80.50793457 -45.19799805 80.50793457 C-44.3612792 76.32434034 -43.32335943 72.99677935 -41.76123047 69.06872559 C-41.51391678 68.44365112 -41.26660309 67.81857666 -41.01179504 67.17456055 C-40.19680835 65.11851762 -39.37547271 63.0650866 -38.5534668 61.01184082 C-37.98137568 59.57611501 -37.40946378 58.14031778 -36.83772278 56.70445251 C-35.63940603 53.69821935 -34.43772446 50.69335736 -33.23388672 47.68933105 C-31.69639528 43.85144207 -30.1691439 40.0095714 -28.64464855 36.16650486 C-27.4663881 33.20049995 -26.28174702 30.2370746 -25.09530067 27.27433586 C-24.52981047 25.85951135 -23.96649258 24.44381648 -23.40544701 23.02722359 C-22.61787866 21.04094719 -21.82151676 19.05841336 -21.02294922 17.07653809 C-20.57296066 15.95022476 -20.12297211 14.82391144 -19.65934753 13.66346741 C-15.35815943 4.37579158 -10.45834698 -0.12461794 0 0 Z " fill="#094F78" transform="translate(221.197998046875,287.4920654296875)"/>
<path d="M0 0 C0.67074558 -0.0034177 1.34149117 -0.0068354 2.03256238 -0.01035666 C4.26695307 -0.01691465 6.50012663 0.00500371 8.73440552 0.0269165 C10.34118115 0.02804544 11.94795884 0.02741021 13.55473328 0.02514648 C17.90772651 0.02400021 22.26027763 0.04749529 26.61316824 0.07544231 C31.16553085 0.10047052 35.71790392 0.10279909 40.27032471 0.10754395 C48.88692734 0.11996955 57.50332664 0.15278554 66.11983979 0.1929419 C75.93112991 0.23767252 85.74242981 0.2596499 95.55379653 0.27972364 C115.7327653 0.32151854 135.91155111 0.39186254 156.09036255 0.48101807 C156.16945862 1.07298477 156.24855469 1.66495148 156.33004761 2.27485657 C156.69767841 5.00191709 157.073656 7.72776688 157.44973755 10.45367432 C157.63608765 11.85003113 157.63608765 11.85003113 157.82620239 13.27459717 C161.27469666 38.04844984 173.49097115 60.72482133 193.3442688 76.24273682 C194.90953772 77.34633046 196.49682098 78.41865702 198.09036255 79.48101807 C198.09036255 79.81101807 198.09036255 80.14101807 198.09036255 80.48101807 C118.23036255 80.48101807 38.37036255 80.48101807 -43.90963745 80.48101807 C-43.07291861 76.29742384 -42.03499883 72.96986284 -40.47286987 69.04180908 C-40.22555618 68.41673462 -39.97824249 67.79166016 -39.72343445 67.14764404 C-38.90844775 65.09160111 -38.08711211 63.0381701 -37.2651062 60.98492432 C-36.69301509 59.54919851 -36.12110319 58.11340128 -35.54936218 56.67753601 C-34.35104544 53.67130285 -33.14936387 50.66644085 -31.94552612 47.66241455 C-30.40803469 43.82452556 -28.88078331 39.9826549 -27.35628796 36.13958836 C-26.1780275 33.17358345 -24.99338642 30.2101581 -23.80694008 27.24741936 C-23.24144987 25.83259485 -22.67813198 24.41689998 -22.11708641 23.00030708 C-21.32951807 21.01403069 -20.53315616 19.03149686 -19.73458862 17.04962158 C-19.28460007 15.92330826 -18.83461151 14.79699493 -18.37098694 13.6365509 C-14.39674091 5.05485026 -9.87639693 -0.03043574 0 0 Z " fill="#094F77" transform="translate(99.90963745117188,127.51898193359375)"/>
<path d="M0 0 C1.25750565 -0.00571014 2.51501129 -0.01142029 3.81062317 -0.01730347 C5.20176687 -0.01854874 6.59291068 -0.01967385 7.98405457 -0.02069092 C9.45110193 -0.02532094 10.9181481 -0.03034586 12.38519287 -0.03573608 C16.36876959 -0.04884397 20.35232947 -0.05530185 24.33592439 -0.05974674 C26.82586725 -0.06267996 29.31580553 -0.06678523 31.80574608 -0.07125092 C39.59961005 -0.08492136 47.39346352 -0.09459034 55.18733865 -0.09845281 C64.17798531 -0.10293313 73.1684799 -0.1204817 82.15908033 -0.1494534 C89.11293149 -0.17108245 96.0667399 -0.18115773 103.02062434 -0.18249393 C107.17189838 -0.18354104 111.32302939 -0.18942897 115.47426796 -0.20731354 C119.38049088 -0.22381552 123.28646357 -0.2259395 127.19270897 -0.21717453 C128.62334235 -0.2164053 130.0539893 -0.22073184 131.48458862 -0.23063278 C146.74397493 -0.33001562 146.74397493 -0.33001562 152.61369324 4.60528564 C157.55117004 11.02400548 157.08249654 16.67459357 157.12150574 24.51544189 C157.15244324 26.05844971 157.15244324 26.05844971 157.18400574 27.63262939 C157.21712027 34.05684905 156.89480104 38.82583949 152.37150574 43.78497314 C147.66426487 47.45024664 144.7049181 48.26500799 138.82530212 48.28088379 C136.92848442 48.28944901 136.92848442 48.28944901 134.99334717 48.29818726 C133.58912669 48.29943261 132.18490609 48.30055771 130.78068542 48.30157471 C129.30393347 48.30620335 127.82718271 48.31122807 126.35043335 48.31661987 C122.33580667 48.32974276 118.32119671 48.33618879 114.30655193 48.34063053 C111.79768588 48.34356186 109.28882439 48.34766682 106.77996063 48.3521347 C98.92842815 48.36581028 91.07690611 48.37547624 83.22536254 48.3793366 C74.1656557 48.38381552 65.10609986 48.40135543 56.04643893 48.43033719 C49.04165296 48.45196646 42.03690943 48.46204157 35.03209043 48.46337771 C30.8495028 48.46442499 26.66705713 48.47031611 22.4845047 48.48819733 C18.54792691 48.50469925 14.61159742 48.50682331 10.67499733 48.49805832 C9.23307695 48.49728903 7.79114311 48.50161635 6.34925652 48.51151657 C-9.00119796 48.61070224 -9.00119796 48.61070224 -14.87068176 43.67559814 C-19.70157543 37.39543637 -19.3383279 31.994696 -19.37849426 24.32794189 C-19.39911926 23.35534424 -19.41974426 22.38274658 -19.44099426 21.38067627 C-19.47659543 14.80781018 -19.05220634 9.61771012 -14.66365051 4.39825439 C-9.602491 0.50505477 -6.28513493 0.01709953 0 0 Z " fill="#DC9600" transform="translate(243.1284942626953,383.85955810546875)"/>
<path d="M0 0 C1.13273849 -0.00571014 2.26547699 -0.01142029 3.43254089 -0.01730347 C5.29035439 -0.01898026 5.29035439 -0.01898026 7.18569946 -0.02069092 C8.49337784 -0.02565582 9.80105621 -0.03062073 11.14836121 -0.03573608 C14.73312313 -0.04883719 18.31786634 -0.05530037 21.90264845 -0.05974674 C24.14332931 -0.06268069 26.38400508 -0.06678607 28.62468338 -0.07125092 C35.6384648 -0.08491877 42.65223457 -0.09458935 49.66602838 -0.09845281 C57.75677428 -0.10293431 65.84735131 -0.1204894 73.93804586 -0.1494534 C80.1963461 -0.17107855 86.45459884 -0.1811575 92.71293604 -0.18249393 C96.44891204 -0.1835412 100.18472914 -0.18943267 103.92066574 -0.20731354 C108.08854151 -0.22687459 112.25606411 -0.22250196 116.42398071 -0.21600342 C117.65847458 -0.2252182 118.89296844 -0.23443298 120.16487122 -0.243927 C126.83272713 -0.21130664 131.87695292 -0.0281582 137.07876587 4.60528564 C142.14723509 10.99596423 141.6450034 16.6299671 141.68423462 24.51544189 C141.71517212 26.05844971 141.71517212 26.05844971 141.74673462 27.63262939 C141.77984915 34.05684905 141.45752993 38.82583949 136.93423462 43.78497314 C132.45861949 47.26989222 129.58965116 48.26396684 123.99545288 48.28088379 C122.86553421 48.28659393 121.73561554 48.29230408 120.57145691 48.29818726 C119.33089035 48.29930511 118.09032379 48.30042297 116.81216431 48.30157471 C114.85327522 48.30902206 114.85327522 48.30902206 112.85481262 48.31661987 C109.26992435 48.32973812 105.68505481 48.33618793 102.10014629 48.34063053 C99.85929551 48.34356273 97.61844983 48.34766786 95.37760162 48.3521347 C88.36328078 48.36580932 81.34897161 48.37547564 74.33463836 48.3793366 C66.24389233 48.38381472 58.15331547 48.40135126 50.06262088 48.43033719 C43.80517442 48.4519751 37.54777548 48.46204203 31.29029202 48.46337771 C27.55482813 48.46442441 23.81952325 48.47030306 20.08409882 48.48819733 C15.91392305 48.50778531 11.74409979 48.50338065 7.57388306 48.49688721 C6.34141342 48.50610199 5.10894379 48.51531677 3.83912659 48.52481079 C-3.09103411 48.49099096 -8.83437452 48.35311923 -14.30795288 43.64044189 C-19.03576906 37.38016116 -18.77823527 32.46214138 -18.81576538 24.89044189 C-18.83639038 23.86563721 -18.85701538 22.84083252 -18.87826538 21.78497314 C-18.9129037 15.05647971 -18.59498355 9.74319203 -14.10092163 4.39825439 C-9.23905663 0.65835824 -6.02754496 0.01822041 0 0 Z " fill="#0082AA" transform="translate(122.56576538085938,223.85955810546875)"/>
<path d="M0 0 C4.98669007 2.49334503 8.49675474 5.99350949 11 11 C11.1089055 13.77526806 11.15732812 16.52582316 11.16113281 19.30175781 C11.16858017 20.58984093 11.16858017 20.58984093 11.17617798 21.90394592 C11.19081961 24.75368035 11.19760568 27.60335908 11.203125 30.453125 C11.20887575 32.43129478 11.21463349 34.40946454 11.22039795 36.38763428 C11.23091428 40.5404893 11.2367525 44.69332493 11.24023438 48.84619141 C11.24571393 54.16369297 11.26972782 59.48093779 11.29820633 64.79835892 C11.31684686 68.88705183 11.32203911 72.97568316 11.32357025 77.06441498 C11.32659519 79.02439525 11.33461834 80.98437447 11.34775543 82.94431305 C11.36484192 85.68996067 11.36292907 88.4349846 11.35644531 91.18066406 C11.37026749 92.39191704 11.37026749 92.39191704 11.3843689 93.62763977 C11.34351835 99.15993416 10.38445141 103.44566401 6.46484375 107.64453125 C0.772356 111.99761012 -2.87222635 112.789538 -10 112 C-15.31565158 109.34217421 -19.10236008 105.69291975 -21 100 C-21.11191193 97.18707141 -21.167685 94.39827954 -21.17700195 91.5847168 C-21.18685875 90.29641464 -21.18685875 90.29641464 -21.19691467 88.98208618 C-21.21663685 86.13779615 -21.22830741 83.29355888 -21.23828125 80.44921875 C-21.24235678 79.47756083 -21.2464323 78.5059029 -21.25063133 77.5048008 C-21.27148672 72.36265907 -21.28579117 67.220544 -21.29516602 62.07836914 C-21.30623382 56.76866682 -21.34063961 51.45938318 -21.38033772 46.14982891 C-21.40648637 42.06542686 -21.41485626 37.98112489 -21.41844749 33.8966465 C-21.42331739 31.93944277 -21.43494282 29.98224363 -21.45348549 28.02512169 C-21.4778413 25.28423257 -21.47691855 22.54443107 -21.4699707 19.8034668 C-21.48278076 18.99753586 -21.49559082 18.19160492 -21.50878906 17.36125183 C-21.46036285 12.11141531 -20.44150441 9.18250324 -17 5 C-11.37343316 0.04326255 -7.41017624 -0.82081952 0 0 Z " fill="#EFEEEF" transform="translate(357,48)"/>
<path d="M0 0 C21.12 0 42.24 0 64 0 C64 9.24 64 18.48 64 28 C59.49885878 32.50114122 59.49885878 32.50114122 54.46875 32.51757812 C53.36080078 32.53018677 52.25285156 32.54279541 51.11132812 32.55578613 C49.91958984 32.54768921 48.72785156 32.53959229 47.5 32.53125 C45.65825195 32.53699036 45.65825195 32.53699036 43.77929688 32.54284668 C41.18358541 32.54556842 38.58784664 32.53818911 35.9921875 32.52148438 C32.01500401 32.50008075 28.03962718 32.52127963 24.0625 32.546875 C21.54166267 32.54423177 19.02082647 32.53910691 16.5 32.53125 C15.30826172 32.53934692 14.11652344 32.54744385 12.88867188 32.55578613 C11.22674805 32.53687317 11.22674805 32.53687317 9.53125 32.51757812 C8.55736328 32.51439575 7.58347656 32.51121338 6.58007812 32.50793457 C4 32 4 32 0 28 C0 18.76 0 9.52 0 0 Z " fill="#095077" transform="translate(384,448)"/>
<path d="M0 0 C21.12 0 42.24 0 64 0 C64 9.24 64 18.48 64 28 C59.49885878 32.50114122 59.49885878 32.50114122 54.46875 32.51757812 C53.36080078 32.53018677 52.25285156 32.54279541 51.11132812 32.55578613 C49.91958984 32.54768921 48.72785156 32.53959229 47.5 32.53125 C45.65825195 32.53699036 45.65825195 32.53699036 43.77929688 32.54284668 C41.18358541 32.54556842 38.58784664 32.53818911 35.9921875 32.52148438 C32.01500401 32.50008075 28.03962718 32.52127963 24.0625 32.546875 C21.54166267 32.54423177 19.02082647 32.53910691 16.5 32.53125 C15.30826172 32.53934692 14.11652344 32.54744385 12.88867188 32.55578613 C11.22674805 32.53687317 11.22674805 32.53687317 9.53125 32.51757812 C8.55736328 32.51439575 7.58347656 32.51121338 6.58007812 32.50793457 C4 32 4 32 0 28 C0 18.76 0 9.52 0 0 Z " fill="#095077" transform="translate(176,448)"/>
<path d="M0 0 C21.12 0 42.24 0 64 0 C64 9.24 64 18.48 64 28 C59.49885878 32.50114122 59.49885878 32.50114122 54.46875 32.51757812 C53.36080078 32.53018677 52.25285156 32.54279541 51.11132812 32.55578613 C49.91958984 32.54768921 48.72785156 32.53959229 47.5 32.53125 C45.65825195 32.53699036 45.65825195 32.53699036 43.77929688 32.54284668 C41.18358541 32.54556842 38.58784664 32.53818911 35.9921875 32.52148438 C32.01500401 32.50008075 28.03962718 32.52127963 24.0625 32.546875 C21.54166267 32.54423177 19.02082647 32.53910691 16.5 32.53125 C15.30826172 32.53934692 14.11652344 32.54744385 12.88867188 32.55578613 C11.22674805 32.53687317 11.22674805 32.53687317 9.53125 32.51757812 C8.55736328 32.51439575 7.58347656 32.51121338 6.58007812 32.50793457 C4 32 4 32 0 28 C0 18.76 0 9.52 0 0 Z " fill="#095077" transform="translate(56,288)"/>
<path d="M0 0 C5.54772645 3.80646925 10.10735833 9.01188853 12.140625 15.46875 C13.23458897 23.86428743 11.76689104 30.75001393 6.59765625 37.4765625 C1.92192243 42.59098073 -2.67304285 44.97912051 -9.53125 45.78125 C-15.84071442 46.06012136 -20.77724736 45.35021204 -25.859375 41.46875 C-32.49016305 35.2619555 -35.80716904 30.24098346 -36.234375 21.09375 C-36.06149574 14.36965668 -34.40452533 10.14210753 -29.765625 5.26953125 C-21.0360648 -2.83441047 -11.14510397 -5.61264228 0 0 Z " fill="#EAEDEE" transform="translate(75.859375,226.53125)"/>
<path d="M0 0 C5.66786803 2.97088994 9.84980113 8.07083467 12.44140625 13.87109375 C14.49481967 20.80895803 13.69269366 27.63497939 10.42578125 34.03125 C6.9182402 39.51501624 2.63878883 43.70968999 -3.6640625 45.6640625 C-10.38254824 46.9795702 -16.93973278 47.06629657 -22.98046875 43.56640625 C-28.40718546 39.42176517 -33.7906579 34.02518499 -34.8984375 27.1015625 C-35.58355116 19.94101969 -35.38139459 13.95563678 -30.8984375 8.1015625 C-21.88974004 -1.36093128 -12.629034 -4.77493512 0 0 Z " fill="#EFEEEA" transform="translate(450.8984375,385.8984375)"/>
<path d="M0 0 C5.66786803 2.97088994 9.84980113 8.07083467 12.44140625 13.87109375 C14.49481967 20.80895803 13.69269366 27.63497939 10.42578125 34.03125 C6.9182402 39.51501624 2.63878883 43.70968999 -3.6640625 45.6640625 C-10.38254824 46.9795702 -16.93973278 47.06629657 -22.98046875 43.56640625 C-28.40718546 39.42176517 -33.7906579 34.02518499 -34.8984375 27.1015625 C-35.58355116 19.94101969 -35.38139459 13.95563678 -30.8984375 8.1015625 C-21.88974004 -1.36093128 -12.629034 -4.77493512 0 0 Z " fill="#EFEEEA" transform="translate(194.8984375,385.8984375)"/>
<path d="M0 0 C6.4914144 3.67586116 11.89501919 8.78457824 13.9453125 16.1015625 C14.99668186 23.49400329 13.98321917 29.78861108 9.9453125 36.1015625 C5.910723 41.35163593 1.50748958 44.81666069 -5.0546875 46.1015625 C-12.1790697 46.93482358 -18.23641341 46.54525452 -24.0546875 42.1015625 C-30.68547555 35.894768 -34.00248154 30.87379596 -34.4296875 21.7265625 C-34.25680824 15.00246918 -32.59983783 10.77492003 -27.9609375 5.90234375 C-19.7156089 -1.75206963 -10.78488932 -4.67199659 0 0 Z " fill="#EAEEEE" transform="translate(314.0546875,225.8984375)"/>
<path d="M0 0 C1.51017448 -0.00412399 1.51017448 -0.00412399 3.05085754 -0.0083313 C4.69839272 0.00245453 4.69839272 0.00245453 6.37921143 0.01345825 C8.12109993 0.01302017 8.12109993 0.01302017 9.8981781 0.01257324 C13.73991342 0.01396756 17.58145526 0.02953383 21.42315674 0.04519653 C24.08545256 0.0489263 26.74773764 0.05187182 29.41003418 0.05377197 C35.70335175 0.05998625 41.99659976 0.07639633 48.28988671 0.09647095 C55.45549234 0.11883161 62.62110131 0.1298238 69.78673315 0.13986182 C84.52495157 0.16076261 99.26311544 0.19593757 114.00128174 0.24050903 C109.57552806 5.35778672 105.25354001 7.81257232 98.44564819 8.49770164 C95.47089108 8.60883833 92.51310779 8.61176234 89.53643799 8.58108521 C88.41360916 8.58152328 87.29078033 8.58196136 86.13392639 8.58241272 C82.44369778 8.58033223 78.75393044 8.55703541 75.06378174 8.53347778 C72.49688973 8.52787922 69.92999451 8.52361035 67.36309814 8.52061462 C61.31068921 8.51035287 55.25846902 8.48673836 49.20613098 8.45656615 C42.31129939 8.42294564 35.41645965 8.40651698 28.52156639 8.39147985 C14.34805037 8.36018627 0.17467189 8.30747378 -13.99871826 8.24050903 C-9.76886471 2.83569616 -7.19193689 -0.01517286 0 0 Z " fill="#0082AA" transform="translate(218.99871826171875,279.7594909667969)"/>
<path d="M0 0 C4.98669007 2.49334503 8.49675474 5.99350949 11 11 C11.54360446 15.95482094 11.56437074 19.87125852 9.3125 24.375 C6.14745126 27.96775803 2.78798338 31.69412413 -2.171875 32.23828125 C-8.01846537 32.40659218 -11.43192863 32.02425335 -16 28 C-20.39893104 23.00661882 -21.35676337 20.08984773 -21.28125 13.5390625 C-20.73016315 8.56397287 -17.99302299 5.87480597 -14.375 2.6875 C-9.71860985 -0.62098774 -5.60468123 -0.62082623 0 0 Z " fill="#EEEAEB" transform="translate(357,176)"/>
<path d="M0 0 C3.91969154 2.98643165 5.68717371 6.44209097 7.12109375 11.0625 C7.67431565 16.31810805 7.01245256 19.62908316 4.12109375 24.0625 C0.41903105 27.81513733 -2.77482711 29.90064776 -8.12890625 30.3125 C-13.86679361 29.92997418 -17.46655714 28.3213329 -21.75390625 24.5 C-24.78431262 20.46614781 -25.13691411 15.9881047 -24.87890625 11.0625 C-23.23813834 5.17503869 -20.75292361 2.44447123 -15.87890625 -0.9375 C-10.84696897 -2.6460667 -4.77417731 -2.38212589 0 0 Z " fill="#D2D2D2" transform="translate(448.87890625,393.9375)"/>
<path d="M0 0 C3.91969154 2.98643165 5.68717371 6.44209097 7.12109375 11.0625 C7.67431565 16.31810805 7.01245256 19.62908316 4.12109375 24.0625 C0.41903105 27.81513733 -2.77482711 29.90064776 -8.12890625 30.3125 C-13.86679361 29.92997418 -17.46655714 28.3213329 -21.75390625 24.5 C-24.78431262 20.46614781 -25.13691411 15.9881047 -24.87890625 11.0625 C-23.23813834 5.17503869 -20.75292361 2.44447123 -15.87890625 -0.9375 C-10.84696897 -2.6460667 -4.77417731 -2.38212589 0 0 Z " fill="#D2D2D2" transform="translate(192.87890625,393.9375)"/>
<path d="M0 0 C3.91969154 2.98643165 5.68717371 6.44209097 7.12109375 11.0625 C7.67431565 16.31810805 7.01245256 19.62908316 4.12109375 24.0625 C0.41903105 27.81513733 -2.77482711 29.90064776 -8.12890625 30.3125 C-13.86679361 29.92997418 -17.46655714 28.3213329 -21.75390625 24.5 C-24.78431262 20.46614781 -25.13691411 15.9881047 -24.87890625 11.0625 C-23.23813834 5.17503869 -20.75292361 2.44447123 -15.87890625 -0.9375 C-10.84696897 -2.6460667 -4.77417731 -2.38212589 0 0 Z " fill="#D2D2D2" transform="translate(312.87890625,233.9375)"/>
<path d="M0 0 C3.91969154 2.98643165 5.68717371 6.44209097 7.12109375 11.0625 C7.67431565 16.31810805 7.01245256 19.62908316 4.12109375 24.0625 C0.41903105 27.81513733 -2.77482711 29.90064776 -8.12890625 30.3125 C-13.86679361 29.92997418 -17.46655714 28.3213329 -21.75390625 24.5 C-24.78431262 20.46614781 -25.13691411 15.9881047 -24.87890625 11.0625 C-23.23813834 5.17503869 -20.75292361 2.44447123 -15.87890625 -0.9375 C-10.84696897 -2.6460667 -4.77417731 -2.38212589 0 0 Z " fill="#D2D2D2" transform="translate(72.87890625,233.9375)"/>
<path d="M0 0 C21.12 0 42.24 0 64 0 C64 2.64 64 5.28 64 8 C42.88 8 21.76 8 0 8 C0 5.36 0 2.72 0 0 Z " fill="#00325A" transform="translate(384,448)"/>
<path d="M0 0 C21.12 0 42.24 0 64 0 C64 2.64 64 5.28 64 8 C42.88 8 21.76 8 0 8 C0 5.36 0 2.72 0 0 Z " fill="#00325A" transform="translate(176,448)"/>
<path d="M0 0 C21.12 0 42.24 0 64 0 C64 2.64 64 5.28 64 8 C42.88 8 21.76 8 0 8 C0 5.36 0 2.72 0 0 Z " fill="#00325A" transform="translate(56,288)"/>
<path d="M0 0 C7.60666921 -0.78091281 12.08731215 0.12673343 18.43359375 4.34765625 C26.59805142 9.60422489 35.6019139 11.83059909 45.03320312 13.56884766 C47.04088926 13.95952078 49.02406351 14.47169698 51 15 C53.1519437 18.22791555 53.20086443 19.28400809 53 23 C36.46528204 24.32277744 18.02489114 14.50343011 5 5 C3.16841831 3.40888856 1.60409357 1.82534785 0 0 Z " fill="#0281A9" transform="translate(289,208)"/>
<path d="M0 0 C0.33 0 0.66 0 1 0 C1.17015625 0.94359375 1.3403125 1.8871875 1.515625 2.859375 C6.28500726 28.12695338 17.62349957 51.92129061 39.1875 67.125 C40.115625 67.74375 41.04375 68.3625 42 69 C42 69.33 42 69.66 42 70 C38.45848709 70.76054182 35.54144826 70.81543387 32 70 C14.51240165 57.83041246 4.54554778 34.28681714 0.64453125 14.109375 C-0.17195058 9.34820384 -0.31116379 4.8230388 0 0 Z " fill="#07315A" transform="translate(256,138)"/>
</svg>
