<?xml version="1.0" encoding="UTF-8"?>
<svg version="1.1" xmlns="http://www.w3.org/2000/svg" width="64" height="64">
<path d="M0 0 C3.20810494 1.88111608 5.49981927 4.17361444 7.4375 7.375 C8.53911572 12.51587335 7.69636198 15.91449456 4.875 20.3125 C1.46233462 23.50260024 -0.50383727 24.11839946 -5 25 C-5.33 26.98 -5.66 28.96 -6 31 C-3.03 31 -0.06 31 3 31 C3.31453125 31.67546875 3.6290625 32.3509375 3.953125 33.046875 C6.52153931 38.59503101 6.52153931 38.59503101 10.375 43.25 C10.91125 43.8275 11.4475 44.405 12 45 C11.75 48.25 11.75 48.25 11 51 C10.01 51.33 9.02 51.66 8 52 C7.67 53.65 7.34 55.3 7 57 C4.36 57 1.72 57 -1 57 C-1.495 55.02 -1.495 55.02 -2 53 C-7.28 53 -12.56 53 -18 53 C-18.33 54.32 -18.66 55.64 -19 57 C-21.64 57 -24.28 57 -27 57 C-27.495 54.525 -27.495 54.525 -28 52 C-29.485 51.505 -29.485 51.505 -31 51 C-31.8125 48.375 -31.8125 48.375 -32 45 C-29.6875 41.9375 -29.6875 41.9375 -27 39 C-25.6950516 36.2875382 -25.6950516 36.2875382 -25 34 C-27.64 33.67 -30.28 33.34 -33 33 C-33.33 34.32 -33.66 35.64 -34 37 C-36.64 37 -39.28 37 -42 37 C-42.33 35.35 -42.66 33.7 -43 32 C-43.99 31.67 -44.98 31.34 -46 31 C-46.8125 28.375 -46.8125 28.375 -47 25 C-44.8125 22.125 -44.8125 22.125 -42 19 C-40.68 16.36 -39.36 13.72 -38 11 C-28.1 10.505 -28.1 10.505 -18 10 C-17.01 8.02 -16.02 6.04 -15 4 C-9.99451406 -0.63007449 -6.67976054 -1.58502793 0 0 Z " fill="#008AB2" transform="translate(49,4)"/>
<path d="M0 0 C1.1758667 -0.00574036 1.1758667 -0.00574036 2.37548828 -0.01159668 C4.02963549 -0.01431353 5.68382583 -0.0069681 7.33789062 0.00976562 C9.86686162 0.03118108 12.39299214 0.00995903 14.921875 -0.015625 C16.53125626 -0.01298168 18.14063575 -0.00785661 19.75 0 C20.5042627 -0.00809692 21.25852539 -0.01619385 22.03564453 -0.02453613 C25.5299989 0.03773516 27.53636381 0.28566013 30.3984375 2.36132812 C31.875 4.53125 31.875 4.53125 31.625 7.78125 C31.3775 8.68875 31.13 9.59625 30.875 10.53125 C29.885 10.86125 28.895 11.19125 27.875 11.53125 C27.545 13.18125 27.215 14.83125 26.875 16.53125 C24.235 16.53125 21.595 16.53125 18.875 16.53125 C18.545 15.21125 18.215 13.89125 17.875 12.53125 C12.595 12.53125 7.315 12.53125 1.875 12.53125 C1.545 13.85125 1.215 15.17125 0.875 16.53125 C-1.765 16.53125 -4.405 16.53125 -7.125 16.53125 C-7.455 14.88125 -7.785 13.23125 -8.125 11.53125 C-9.115 11.20125 -10.105 10.87125 -11.125 10.53125 C-11.875 7.78125 -11.875 7.78125 -12.125 4.53125 C-8.95256021 -0.13089365 -5.21886714 -0.05602394 0 0 Z " fill="#F9B306" transform="translate(29.125,44.46875)"/>
<path d="M0 0 C3.20810494 1.88111608 5.49981927 4.17361444 7.4375 7.375 C8.31688538 11.47879844 8.16944271 15.02233241 5.98828125 18.7109375 C3.42808292 22.02223503 1.09766625 24.10051229 -3 25 C-7.99518868 24.78743878 -11.2688324 23.31659343 -15 20 C-17.56374551 15.4916448 -18.32466338 12.23777912 -17 7.1875 C-12.63236608 0.22658344 -7.98294168 -1.89425735 0 0 Z " fill="#CA1A59" transform="translate(49,4)"/>
<path d="M0 0 C0.75780762 0.00644531 1.51561523 0.01289062 2.29638672 0.01953125 C11.45737372 0.13886835 20.60546445 0.65295512 29.75 1.1875 C30.42408308 2.45441507 31.08900497 3.72620749 31.75 5 C32.12125 5.70769531 32.4925 6.41539063 32.875 7.14453125 C33.75 9.1875 33.75 9.1875 33.75 12.1875 C22.53 12.1875 11.31 12.1875 -0.25 12.1875 C0.75 7.1875 0.75 7.1875 1.75 4.1875 C-0.89 3.8575 -3.53 3.5275 -6.25 3.1875 C-6.58 4.5075 -6.91 5.8275 -7.25 7.1875 C-9.89 7.1875 -12.53 7.1875 -15.25 7.1875 C-15.58 5.5375 -15.91 3.8875 -16.25 2.1875 C-10.66988146 0.60479822 -5.78397517 -0.10461633 0 0 Z " fill="#105177" transform="translate(22.25,33.8125)"/>
<path d="M0 0 C6.93 0 13.86 0 21 0 C21.99 2.97 22.98 5.94 24 9 C24.33 9.66 24.66 10.32 25 11 C15.43 11 5.86 11 -4 11 C-3 6 -3 6 0 0 Z " fill="#0A5078" transform="translate(11,15)"/>
<path d="M0 0 C1.22886899 3.68660697 1.14560987 7.10062975 1.125 10.9375 C1.12886719 11.65357422 1.13273437 12.36964844 1.13671875 13.10742188 C1.13035293 16.54178156 1.07950442 19.71864926 0 23 C0.99 23.33 1.98 23.66 3 24 C-0.42088545 25.20737134 -1.75203256 25.10910567 -5.125 23.625 C-8.87969384 20.19680128 -10.39478236 17.04632171 -11 12 C-9.61779559 6.73034567 -7.5471865 3.95567123 -3 1 C-2.01 0.67 -1.02 0.34 0 0 Z " fill="#C50F51" transform="translate(42,3)"/>
<path d="M0 0 C6.6 0 13.2 0 20 0 C21 5 21 5 19 9 C13.06 9 7.12 9 1 9 C-1 5 -1 5 0 0 Z " fill="#DD9700" transform="translate(29,48)"/>
<path d="M0 0 C1.1753833 0.00966797 1.1753833 0.00966797 2.37451172 0.01953125 C8.00618111 0.09410746 13.53589618 0.46632531 19.125 1.1875 C19.125 1.5175 19.125 1.8475 19.125 2.1875 C10.545 2.5175 1.965 2.8475 -6.875 3.1875 C-7.205 4.5075 -7.535 5.8275 -7.875 7.1875 C-10.515 7.1875 -13.155 7.1875 -15.875 7.1875 C-16.205 5.5375 -16.535 3.8875 -16.875 2.1875 C-11.09254011 0.52881253 -5.99984886 -0.10293543 0 0 Z " fill="#0096BE" transform="translate(22.875,33.8125)"/>
<path d="M0 0 C1.9375 0.625 1.9375 0.625 4 2 C4.875 4.9375 4.875 4.9375 5 8 C4.01 9.485 4.01 9.485 3 11 C2.34 11 1.68 11 1 11 C0.67 12.65 0.34 14.3 0 16 C-2.64 16 -5.28 16 -8 16 C-8.75 14.4375 -8.75 14.4375 -9 12 C-7.86915563 9.49713591 -6.47860484 7.32992278 -5 5 C-4.01 6.485 -4.01 6.485 -3 8 C-1.68 8 -0.36 8 1 8 C0.67 5.36 0.34 2.72 0 0 Z " fill="#F8B30A" transform="translate(56,45)"/>
<path d="M0 0 C2.60077352 -0.30441916 4.95983401 -0.42017445 7.5625 -0.3984375 C8.30959229 -0.40130768 9.05668457 -0.40417786 9.82641602 -0.40713501 C11.40674599 -0.40917747 12.98710113 -0.40363481 14.56738281 -0.39111328 C16.99080764 -0.37506089 19.41256474 -0.39095439 21.8359375 -0.41015625 C23.36979536 -0.40817385 24.90365218 -0.40433023 26.4375 -0.3984375 C27.16461182 -0.40451019 27.89172363 -0.41058289 28.64086914 -0.4168396 C30.68359375 -0.38818359 30.68359375 -0.38818359 34 0 C36 3 36 3 35.625 5.6875 C35.41875 6.450625 35.2125 7.21375 35 8 C32.525 7.505 32.525 7.505 30 7 C30.33 5.35 30.66 3.7 31 2 C21.76 2 12.52 2 3 2 C3.33 3.65 3.66 5.3 4 7 C2.35 7.33 0.7 7.66 -1 8 C-1.625 5.6875 -1.625 5.6875 -2 3 C-1.34 2.01 -0.68 1.02 0 0 Z " fill="#F2AF22" transform="translate(22,46)"/>
<path d="M0 0 C0.33 0.66 0.66 1.32 1 2 C2.98 2 4.96 2 7 2 C7.33 4.64 7.66 7.28 8 10 C4.7 10.33 1.4 10.66 -2 11 C-4 8 -4 8 -3.8125 4.9375 C-3 2 -3 2 0 0 Z " fill="#0AA0C8" transform="translate(6,25)"/>
<path d="M0 0 C2.38202314 0.69717751 4.39796142 1.54747857 6.5625 2.75 C6.2325 4.73 5.9025 6.71 5.5625 8.75 C1.9325 8.75 -1.6975 8.75 -5.4375 8.75 C-5.625 5.375 -5.625 5.375 -5.4375 1.75 C-2.4375 -0.25 -2.4375 -0.25 0 0 Z " fill="#0D9CC4" transform="translate(37.4375,26.25)"/>
<path d="M0 0 C6.6 0 13.2 0 20 0 C19.67 0.99 19.34 1.98 19 3 C13.06 3 7.12 3 1 3 C0.67 2.01 0.34 1.02 0 0 Z " fill="#F7B202" transform="translate(29,54)"/>
<path d="M0 0 C1.32 0 2.64 0 4 0 C4 4.62 4 9.24 4 14 C2.68 14 1.36 14 0 14 C0 9.38 0 4.76 0 0 Z " fill="#ECE4E5" transform="translate(42,6)"/>
<path d="M0 0 C1.23556641 0.01740234 1.23556641 0.01740234 2.49609375 0.03515625 C3.32238281 0.04417969 4.14867187 0.05320313 5 0.0625 C5.63808594 0.07410156 6.27617188 0.08570313 6.93359375 0.09765625 C6.60359375 1.74765625 6.27359375 3.39765625 5.93359375 5.09765625 C3.29359375 5.09765625 0.65359375 5.09765625 -2.06640625 5.09765625 C-2.62890625 3.16015625 -2.62890625 3.16015625 -3.06640625 1.09765625 C-2.06640625 0.09765625 -2.06640625 0.09765625 0 0 Z " fill="#174D71" transform="translate(50.06640625,55.90234375)"/>
<path d="M0 0 C2.97 0 5.94 0 9 0 C9.33 1.32 9.66 2.64 10 4 C9 5 9 5 7.15234375 5.09765625 C5.1015625 5.06510417 3.05078125 5.03255208 1 5 C0.67 3.35 0.34 1.7 0 0 Z " fill="#174D71" transform="translate(21,56)"/>
<path d="M0 0 C2.97 0 5.94 0 9 0 C9.33 1.32 9.66 2.64 10 4 C9 5 9 5 7.15234375 5.09765625 C5.1015625 5.06510417 3.05078125 5.03255208 1 5 C0.67 3.35 0.34 1.7 0 0 Z " fill="#084D74" transform="translate(6,36)"/>
<path d="M0 0 C1.65 0.33 3.3 0.66 5 1 C4.67 2.65 4.34 4.3 4 6 C2.35 5.67 0.7 5.34 -1 5 C-0.67 3.35 -0.34 1.7 0 0 Z " fill="#E5DDD4" transform="translate(53,48)"/>
<path d="M0 0 C1.65 0.33 3.3 0.66 5 1 C4.67 2.65 4.34 4.3 4 6 C2.35 5.67 0.7 5.34 -1 5 C-0.67 3.35 -0.34 1.7 0 0 Z " fill="#E5DDD4" transform="translate(21,48)"/>
<path d="M0 0 C1.65 0.33 3.3 0.66 5 1 C4.67 2.65 4.34 4.3 4 6 C2.35 5.67 0.7 5.34 -1 5 C-0.67 3.35 -0.34 1.7 0 0 Z " fill="#D4DBDF" transform="translate(6,28)"/>
<path d="M0 0 C1.65 0.33 3.3 0.66 5 1 C4.67 2.65 4.34 4.3 4 6 C2.35 5.67 0.7 5.34 -1 5 C-0.67 3.35 -0.34 1.7 0 0 Z " fill="#D3DBDF" transform="translate(36,28)"/>
</svg>
