<?xml version="1.0" encoding="utf-8"?>
<!-- Uploaded to: SVG Repo, www.svgrepo.com, Generator: SVG Repo Mixer Tools -->
<svg fill="#000000" height="800px" width="800px" version="1.1" id="Layer_1" xmlns="http://www.w3.org/2000/svg" xmlns:xlink="http://www.w3.org/1999/xlink" 
	 viewBox="0 0 128 81.5" xml:space="preserve">
<g>
	<path d="M57,46.2l-4.3-10.9c-0.8-2.1-2.6-3.9-5.9-3.9h-6.1v-2.8c0-1.1-0.6-1.7-1.6-1.7h-3.6h0h0h0H32c-1,0-1.6,0.6-1.6,1.7v2.8
		h-6.2c-3.3,0-5.1,1.8-5.9,3.9L14,46.2c-1.7,0.2-4.7,2.2-4.7,5.9V66h4.2v4.4c0,5.5,7.9,5.4,7.9,0V66h14.2h0h0h0h14.2v4.4
		c0,5.4,7.9,5.5,7.9,0V66h4.2V52.1C61.7,48.4,58.7,46.4,57,46.2z M17.5,57.5c-2,0-3.6-1.6-3.6-3.7c0-2,1.6-3.7,3.6-3.7
		c2,0,3.6,1.6,3.6,3.7C21.1,55.9,19.5,57.5,17.5,57.5z M35.5,46L35.5,46L35.5,46H18.4l3.2-8.4c0.4-1.2,1-2.1,2.4-2.1h11.4h0h0h11.4
		c1.4,0,2,0.9,2.4,2.1l3.2,8.4H35.5z M53.5,57.5c-2,0-3.6-1.6-3.6-3.7c0-2,1.6-3.7,3.6-3.7s3.6,1.6,3.6,3.7
		C57.1,55.9,55.5,57.5,53.5,57.5z"/>
	<path d="M92.3,6.1c0.1,0,0.2,0,0.3,0c0.1,0,0.2,0,0.3,0H92.3z"/>
	<path d="M118.2,16.3c-0.8-3.8-3.2-5.3-6.9-6.8C107.7,8,99,6.2,92.6,6.1C86.2,6.2,77.5,8,73.8,9.5c-3.7,1.5-6.1,3-6.9,6.8l-2.8,20.9
		V66h4.8v4.5c0,5.5,8.2,5.5,8.2,0V66h15.1h0H108v4.5c0,5.5,8.2,5.5,8.2,0V66h4.8V37.2L118.2,16.3z M80.9,11.4h11.4h12
		c2.3,0,2.3,3.4,0,3.4h-12H80.9C78.6,14.8,78.6,11.4,80.9,11.4z M73,57c-2.2,0-3.9-1.7-3.9-3.9s1.8-3.9,3.9-3.9
		c2.2,0,3.9,1.7,3.9,3.9S75.2,57,73,57z M92.3,39.4H71.5c-2,0-2.5-1.4-2.3-2.9l2.1-15.2c0.3-1.8,0.9-3.1,3.4-3.1h17.6h18.2
		c2.4,0,3.1,1.2,3.4,3.1l2.1,15.2c0.2,1.5-0.2,2.9-2.3,2.9H92.3z M112.1,57c-2.2,0-3.9-1.7-3.9-3.9s1.8-3.9,3.9-3.9s3.9,1.7,3.9,3.9
		S114.3,57,112.1,57z"/>
</g>
</svg>