<?xml version="1.0" encoding="UTF-8"?>
<svg version="1.1" xmlns="http://www.w3.org/2000/svg" width="64" height="64">
<path d="M0 0 C0.92941406 -0.020625 1.85882813 -0.04125 2.81640625 -0.0625 C8.5775194 -0.0950947 12.67862965 0.44397862 17.75 3.25 C18.8125 5.125 18.8125 5.125 19.75 7.25 C20.678125 7.930625 21.60625 8.61125 22.5625 9.3125 C27.57009359 13.4219257 30.15772236 18.96691838 31.04101562 25.35449219 C31.85915082 34.92832681 31.45140168 43.1785389 25.75 51.25 C24.88375 52.61125 24.88375 52.61125 24 54 C15.85682068 62.14317932 7.80944903 64.6848622 -3.36621094 64.68823242 C-9.98332118 64.53613805 -14.80882976 63.13655017 -20.25 59.25 C-21.3225 58.528125 -22.395 57.80625 -23.5 57.0625 C-28.76122593 51.68170075 -33.37071456 44.84002685 -33.3828125 37.125 C-33.38410156 36.33609375 -33.38539062 35.5471875 -33.38671875 34.734375 C-33.38285156 33.91453125 -33.37898438 33.0946875 -33.375 32.25 C-33.37886719 31.43015625 -33.38273437 30.6103125 -33.38671875 29.765625 C-33.38542969 28.97671875 -33.38414063 28.1878125 -33.3828125 27.375 C-33.38168457 26.65570312 -33.38055664 25.93640625 -33.37939453 25.1953125 C-33.25 23.25 -33.25 23.25 -32.25 20.25 C-32.58 19.92 -32.91 19.59 -33.25 19.25 C-33.39115161 16.57941149 -33.29247107 13.92567762 -33.25 11.25 C-31.6 10.92 -29.95 10.59 -28.25 10.25 C-27.92 7.61 -27.59 4.97 -27.25 2.25 C-26.27417969 2.18941406 -25.29835938 2.12882813 -24.29296875 2.06640625 C-23.02066406 1.98261719 -21.74835937 1.89882813 -20.4375 1.8125 C-19.17292969 1.73128906 -17.90835937 1.65007813 -16.60546875 1.56640625 C-10.91552023 1.02986861 -5.82601489 0.03179271 0 0 Z " fill="#EF3636" transform="translate(33.25,-0.25)"/>
<path d="M0 0 C0.92941406 -0.020625 1.85882813 -0.04125 2.81640625 -0.0625 C8.5775194 -0.0950947 12.67862965 0.44397862 17.75 3.25 C18.8125 5.125 18.8125 5.125 19.75 7.25 C20.78125 8.054375 21.8125 8.85875 22.875 9.6875 C25.75 12.25 25.75 12.25 26.0625 14.875 C25.959375 15.65875 25.85625 16.4425 25.75 17.25 C26.245 18.735 26.245 18.735 26.75 20.25 C25.43 20.25 24.11 20.25 22.75 20.25 C22.75 19.59 22.75 18.93 22.75 18.25 C22.09 18.25 21.43 18.25 20.75 18.25 C20.42 19.57 20.09 20.89 19.75 22.25 C18.1 22.58 16.45 22.91 14.75 23.25 C14.255 21.765 14.255 21.765 13.75 20.25 C12.1 20.25 10.45 20.25 8.75 20.25 C8.75 19.59 8.75 18.93 8.75 18.25 C8.09 18.25 7.43 18.25 6.75 18.25 C6.42 19.57 6.09 20.89 5.75 22.25 C3.8125 21.9375 3.8125 21.9375 1.75 21.25 C1.42 20.26 1.09 19.27 0.75 18.25 C0.42 19.57 0.09 20.89 -0.25 22.25 C2.72 22.91 5.69 23.57 8.75 24.25 C8.75 25.24 8.75 26.23 8.75 27.25 C7.76 27.25 6.77 27.25 5.75 27.25 C6.08 29.23 6.41 31.21 6.75 33.25 C5.43 33.25 4.11 33.25 2.75 33.25 C2.09 31.93 1.43 30.61 0.75 29.25 C-0.9 29.25 -2.55 29.25 -4.25 29.25 C-4.58 29.91 -4.91 30.57 -5.25 31.25 C-7.23 31.25 -9.21 31.25 -11.25 31.25 C-11.58 30.26 -11.91 29.27 -12.25 28.25 C-13.9 28.25 -15.55 28.25 -17.25 28.25 C-16.92 27.59 -16.59 26.93 -16.25 26.25 C-18.23 25.59 -20.21 24.93 -22.25 24.25 C-22.25 23.92 -22.25 23.59 -22.25 23.25 C-19.28 22.92 -16.31 22.59 -13.25 22.25 C-12.92 19.94 -12.59 17.63 -12.25 15.25 C-9.94 15.25 -7.63 15.25 -5.25 15.25 C-5.25 13.93 -5.25 12.61 -5.25 11.25 C-6.9 11.25 -8.55 11.25 -10.25 11.25 C-10.91 9.6 -11.57 7.95 -12.25 6.25 C-10.6 6.25 -8.95 6.25 -7.25 6.25 C-7.25 5.59 -7.25 4.93 -7.25 4.25 C-9.23 4.25 -11.21 4.25 -13.25 4.25 C-13.25 3.26 -13.25 2.27 -13.25 1.25 C-8.86227557 -0.21257481 -4.59671301 0.02508438 0 0 Z " fill="#2CAD44" transform="translate(33.25,-0.25)"/>
<path d="M0 0 C3.125 0.375 3.125 0.375 6 1 C3.37102828 10.96241914 -1.04789806 17.21773174 -9.75390625 22.7734375 C-17.66319016 27.09259428 -26.16244945 27.02352954 -35 26 C-38.81067244 24.87125737 -41.78785366 23.31882754 -45 21 C-45.60199219 20.56945312 -46.20398438 20.13890625 -46.82421875 19.6953125 C-49.67416056 17.47332397 -52.09211575 15.07381351 -54 12 C-54 11.34 -54 10.68 -54 10 C-51.625 10.25 -51.625 10.25 -49 11 C-48.34 12.32 -47.68 13.64 -47 15 C-41.39 15 -35.78 15 -30 15 C-29.67 13.68 -29.34 12.36 -29 11 C-28 10 -28 10 -25.625 9.75 C-23 10 -23 10 -21.1875 11.375 C-20 13 -20 13 -20 15 C-18.68 14.67 -17.36 14.34 -16 14 C-16.2475 12.783125 -16.495 11.56625 -16.75 10.3125 C-17.11079502 7.14426875 -17.00114406 6.00280294 -15.75 2.9375 C-11.85768136 0.1951846 -9.02079633 1.03672984 -4.4609375 1.80078125 C-3.64882813 1.86652344 -2.83671875 1.93226562 -2 2 C-1.34 1.34 -0.68 0.68 0 0 Z " fill="#564C44" transform="translate(58,38)"/>
<path d="M0 0 C0.66 0 1.32 0 2 0 C2 0.66 2 1.32 2 2 C2.86625 1.835 3.7325 1.67 4.625 1.5 C10.69761822 0.60733769 16.87966132 0.92360188 23 1 C24.19287411 4.87684087 25 7.91621923 25 12 C26.32 12.33 27.64 12.66 29 13 C29.66 15.97 30.32 18.94 31 22 C29.68 22.33 28.36 22.66 27 23 C26.4121875 22.01 26.4121875 22.01 25.8125 21 C24.14583333 18.70833333 24.14583333 18.70833333 21.3125 18.75 C20.549375 18.8325 19.78625 18.915 19 19 C18.34 20.32 17.68 21.64 17 23 C14.22813012 23.10787818 11.46044463 23.18723327 8.6875 23.25 C7.90181641 23.28351562 7.11613281 23.31703125 6.30664062 23.3515625 C4.13432243 23.38853813 2.13934834 23.38412453 0 23 C-1.88671875 21.00390625 -1.88671875 21.00390625 -3 19 C-3.825 18.896875 -4.65 18.79375 -5.5 18.6875 C-8 18 -8 18 -9.8125 14.9375 C-11.3024616 10.87167258 -11.29623466 7.29540261 -11 3 C-10 2 -10 2 -7.71484375 1.90234375 C-6.34005859 1.91974609 -6.34005859 1.91974609 -4.9375 1.9375 C-4.01839844 1.94652344 -3.09929688 1.95554687 -2.15234375 1.96484375 C-1.44207031 1.97644531 -0.73179688 1.98804687 0 2 C0 1.34 0 0.68 0 0 Z " fill="#F5A821" transform="translate(11,30)"/>
<path d="M0 0 C4.95 0 9.9 0 15 0 C15 4.95 15 9.9 15 15 C13.02 15 11.04 15 9 15 C8.34 15.66 7.68 16.32 7 17 C3.16546731 17.25563551 -0.26779887 16.87816497 -4 16 C-6.07114674 18.63600494 -7.47524303 20.95048605 -9 24 C-9 19.38 -9 14.76 -9 10 C-7.68 10 -6.36 10 -5 10 C-4.67 7.36 -4.34 4.72 -4 2 C-2.68 2 -1.36 2 0 2 C0 1.34 0 0.68 0 0 Z " fill="#ED3D3D" transform="translate(49,24)"/>
<path d="M0 0 C3.58461028 3.18297328 4.46139573 6.53072093 6 11 C1.05 11 -3.9 11 -9 11 C-9 11.66 -9 12.32 -9 13 C-10.32 13 -11.64 13 -13 13 C-12.979375 13.94875 -12.95875 14.8975 -12.9375 15.875 C-13 19 -13 19 -14 21 C-15.32 21 -16.64 21 -18 21 C-18 23.97 -18 26.94 -18 30 C-19.32 29.67 -20.64 29.34 -22 29 C-23.19287411 25.12315913 -24 22.08378077 -24 18 C-24.86286621 18.24447876 -24.86286621 18.24447876 -25.74316406 18.49389648 C-27.95708107 18.99037528 -29.84673797 19.11479744 -32.109375 19.09765625 C-32.86347656 19.09443359 -33.61757813 19.09121094 -34.39453125 19.08789062 C-35.17183594 19.07951172 -35.94914062 19.07113281 -36.75 19.0625 C-37.54277344 19.05798828 -38.33554687 19.05347656 -39.15234375 19.04882812 C-41.10159508 19.03708565 -43.05080738 19.01915146 -45 19 C-45 18.34 -45 17.68 -45 17 C-44.34 17 -43.68 17 -43 17 C-43 16.34 -43 15.68 -43 15 C-41.02 14.67 -39.04 14.34 -37 14 C-36.67 15.32 -36.34 16.64 -36 18 C-34.02 18 -32.04 18 -30 18 C-29.67 17.01 -29.34 16.02 -29 15 C-26.625 14.875 -26.625 14.875 -24 15 C-22 17 -22 17 -22 20 C-20.68 20 -19.36 20 -18 20 C-18.33 18.02 -18.66 16.04 -19 14 C-18.01 14 -17.02 14 -16 14 C-16 13.01 -16 12.02 -16 11 C-18.97 10.67 -21.94 10.34 -25 10 C-25.33 9.01 -25.66 8.02 -26 7 C-25.01 6.01 -24.02 5.02 -23 4 C-22.67 5.32 -22.34 6.64 -22 8 C-21.01 8 -20.02 8 -19 8 C-18.67 7.01 -18.34 6.02 -18 5 C-17.34 5 -16.68 5 -16 5 C-16 5.66 -16 6.32 -16 7 C-15.21625 6.95875 -14.4325 6.9175 -13.625 6.875 C-11 7 -11 7 -9 9 C-6.90708843 8.91428339 -6.90708843 8.91428339 -5 8 C-4.67 7.01 -4.34 6.02 -4 5 C-3.34 5 -2.68 5 -2 5 C-2 5.66 -2 6.32 -2 7 C-0.68 7 0.64 7 2 7 C1.34 6.01 0.68 5.02 0 4 C0 2.68 0 1.36 0 0 Z " fill="#594B43" transform="translate(58,13)"/>
<path d="M0 0 C3.63 0 7.26 0 11 0 C11 0.66 11 1.32 11 2 C12.98 2 14.96 2 17 2 C17 2.66 17 3.32 17 4 C15.68 4.33 14.36 4.66 13 5 C13.33 5.99 13.66 6.98 14 8 C16.475 8.495 16.475 8.495 19 9 C19 10.32 19 11.64 19 13 C15.7 13.33 12.4 13.66 9 14 C8.67 15.32 8.34 16.64 8 18 C6.35 18 4.7 18 3 18 C2.67 17.34 2.34 16.68 2 16 C1.34 17.32 0.68 18.64 0 20 C-1.32 19.67 -2.64 19.34 -4 19 C-4.625 17.1875 -4.625 17.1875 -5 15 C-4.34 14.01 -3.68 13.02 -3 12 C-2.34 12 -1.68 12 -1 12 C-1 9.62490863 -1.01500767 7.2496165 -1.0625 4.875 C-1 2 -1 2 0 0 Z " fill="#E8423E" transform="translate(9,2)"/>
<path d="M0 0 C1.4370809 -0.05422947 2.87475462 -0.09289723 4.3125 -0.125 C5.11300781 -0.14820313 5.91351563 -0.17140625 6.73828125 -0.1953125 C9 0 9 0 12 2 C12.1875 4.625 12.1875 4.625 12 7 C14.97 7.66 17.94 8.32 21 9 C21 9.99 21 10.98 21 12 C20.01 12 19.02 12 18 12 C18.33 13.98 18.66 15.96 19 18 C17.68 18 16.36 18 15 18 C14.34 16.68 13.68 15.36 13 14 C11.35 14 9.7 14 8 14 C7.67 14.66 7.34 15.32 7 16 C5.02 16 3.04 16 1 16 C0.67 15.01 0.34 14.02 0 13 C-1.65 13 -3.3 13 -5 13 C-4.67 12.34 -4.34 11.68 -4 11 C-5.98 10.34 -7.96 9.68 -10 9 C-10 8.67 -10 8.34 -10 8 C-5.545 7.505 -5.545 7.505 -1 7 C-0.67 4.69 -0.34 2.38 0 0 Z " fill="#6692C0" transform="translate(21,15)"/>
<path d="M0 0 C5.61 0 11.22 0 17 0 C17 0.66 17 1.32 17 2 C15.68 2 14.36 2 13 2 C13 4.31 13 6.62 13 9 C13.62648438 8.98839844 14.25296875 8.97679687 14.8984375 8.96484375 C15.71570312 8.95582031 16.53296875 8.94679688 17.375 8.9375 C18.18710937 8.92589844 18.99921875 8.91429687 19.8359375 8.90234375 C22 9 22 9 24 10 C24.6328125 12.06640625 24.6328125 12.06640625 25.125 14.5625 C25.29257812 15.38878906 25.46015625 16.21507813 25.6328125 17.06640625 C25.75398438 17.70449219 25.87515625 18.34257813 26 19 C24.68 19.33 23.36 19.66 22 20 C21.608125 19.34 21.21625 18.68 20.8125 18 C19.16439945 15.7446498 19.16439945 15.7446498 16.5 15.6875 C13.87538454 15.93258508 13.87538454 15.93258508 11 17 C10.67 12.71 10.34 8.42 10 4 C7.69 3.34 5.38 2.68 3 2 C3 4.64 3 7.28 3 10 C2.34 10 1.68 10 1 10 C0.67 6.7 0.34 3.4 0 0 Z " fill="#FBB014" transform="translate(16,33)"/>
<path d="M0 0 C6.875 0.875 6.875 0.875 8 2 C8.23527773 4.34987262 8.41386417 6.70556039 8.5625 9.0625 C8.64628906 10.35285156 8.73007812 11.64320312 8.81640625 12.97265625 C8.87699219 13.97167969 8.93757813 14.97070312 9 16 C6.04335481 17.4783226 3.25770263 17.06032783 0 17 C-0.12375 16.2575 -0.2475 15.515 -0.375 14.75 C-0.95486701 12.19858515 -1.73708739 10.2732427 -3 8 C-4.32 8 -5.64 8 -7 8 C-7 6.02 -7 4.04 -7 2 C-5.35 2 -3.7 2 -2 2 C-2 3.98 -2 5.96 -2 8 C-1.34 8 -0.68 8 0 8 C0 5.36 0 2.72 0 0 Z " fill="#EFB771" transform="translate(19,35)"/>
<path d="M0 0 C4.95 0 9.9 0 15 0 C15 0.99 15 1.98 15 3 C13.68 3 12.36 3 11 3 C11 4.98 11 6.96 11 9 C6.05 9 1.1 9 -4 9 C-4 6.69 -4 4.38 -4 2 C-2.68 2 -1.36 2 0 2 C0 1.34 0 0.68 0 0 Z " fill="#DE3636" transform="translate(49,24)"/>
<path d="M0 0 C3.58461028 3.18297328 4.46139573 6.53072093 6 11 C1.05 11 -3.9 11 -9 11 C-9 11.66 -9 12.32 -9 13 C-10.32 13 -11.64 13 -13 13 C-13.33 13.66 -13.66 14.32 -14 15 C-14.66 14.01 -15.32 13.02 -16 12 C-18.3241734 11.31767386 -20.61148758 10.99247551 -23.00390625 10.625 C-23.66261719 10.41875 -24.32132813 10.2125 -25 10 C-25.33 9.01 -25.66 8.02 -26 7 C-25.01 6.01 -24.02 5.02 -23 4 C-22.67 5.32 -22.34 6.64 -22 8 C-21.01 8 -20.02 8 -19 8 C-18.67 7.01 -18.34 6.02 -18 5 C-17.34 5 -16.68 5 -16 5 C-16 5.66 -16 6.32 -16 7 C-15.21625 6.95875 -14.4325 6.9175 -13.625 6.875 C-11 7 -11 7 -9 9 C-6.90708843 8.91428339 -6.90708843 8.91428339 -5 8 C-4.67 7.01 -4.34 6.02 -4 5 C-3.34 5 -2.68 5 -2 5 C-2 5.66 -2 6.32 -2 7 C-0.68 7 0.64 7 2 7 C1.34 6.01 0.68 5.02 0 4 C0 2.68 0 1.36 0 0 Z " fill="#49423C" transform="translate(58,13)"/>
<path d="M0 0 C3.125 0.375 3.125 0.375 6 1 C5.01 3.97 4.02 6.94 3 10 C-2.28 10 -7.56 10 -13 10 C-13 9.34 -13 8.68 -13 8 C-12.01 7.67 -11.02 7.34 -10 7 C-10 6.01 -10 5.02 -10 4 C-10.99 4 -11.98 4 -13 4 C-13.66 4.99 -14.32 5.98 -15 7 C-14.67 5.35 -14.34 3.7 -14 2 C-12.34385343 1.61781233 -10.67542976 1.28604898 -9 1 C-8.67 1.33 -8.34 1.66 -8 2 C-5.04182893 2.25005386 -5.04182893 2.25005386 -2 2 C-1.34 1.34 -0.68 0.68 0 0 Z " fill="#2F2B29" transform="translate(58,38)"/>
<path d="M0 0 C1.20366211 0.00483398 1.20366211 0.00483398 2.43164062 0.00976562 C3.68170898 0.02233398 3.68170898 0.02233398 4.95703125 0.03515625 C5.80201172 0.03966797 6.64699219 0.04417969 7.51757812 0.04882812 C9.6015928 0.06060222 11.68557102 0.07853735 13.76953125 0.09765625 C12.36211103 2.9124967 10.51395533 3.37249024 7.70703125 4.72265625 C6.78792969 5.16867188 5.86882813 5.6146875 4.921875 6.07421875 C4.21160156 6.41195313 3.50132813 6.7496875 2.76953125 7.09765625 C3.09953125 10.06765625 3.42953125 13.03765625 3.76953125 16.09765625 C2.77953125 15.76765625 1.78953125 15.43765625 0.76953125 15.09765625 C0.76953125 13.77765625 0.76953125 12.45765625 0.76953125 11.09765625 C-0.88046875 11.09765625 -2.53046875 11.09765625 -4.23046875 11.09765625 C-4.89046875 9.44765625 -5.55046875 7.79765625 -6.23046875 6.09765625 C-4.58046875 6.09765625 -2.93046875 6.09765625 -1.23046875 6.09765625 C-1.23046875 5.43765625 -1.23046875 4.77765625 -1.23046875 4.09765625 C-3.21046875 4.09765625 -5.19046875 4.09765625 -7.23046875 4.09765625 C-7.23046875 3.10765625 -7.23046875 2.11765625 -7.23046875 1.09765625 C-4.46481493 0.17577164 -2.84763173 -0.02019597 0 0 Z " fill="#594E47" transform="translate(27.23046875,-0.09765625)"/>
<path d="M0 0 C-0.33 0.99 -0.66 1.98 -1 3 C0.65 3 2.3 3 4 3 C4.33 4.98 4.66 6.96 5 9 C2.69 9 0.38 9 -2 9 C-2 7.68 -2 6.36 -2 5 C-4.31 5.33 -6.62 5.66 -9 6 C-8.67 6.66 -8.34 7.32 -8 8 C-8.99 8 -9.98 8 -11 8 C-11.33 10.31 -11.66 12.62 -12 15 C-12.66 15 -13.32 15 -14 15 C-14.66 12.03 -15.32 9.06 -16 6 C-4.17307692 -1.49038462 -4.17307692 -1.49038462 0 0 Z " fill="#D6B44F" transform="translate(45,1)"/>
<path d="M0 0 C2.0622048 -0.054348 4.12482816 -0.09294961 6.1875 -0.125 C7.33605469 -0.14820312 8.48460937 -0.17140625 9.66796875 -0.1953125 C12.91740372 -0.00484152 15.08660521 0.60639873 18 2 C16.75 4 16.75 4 15 6 C13.68 6 12.36 6 11 6 C11 6.66 11 7.32 11 8 C7.37 8.33 3.74 8.66 0 9 C0 6.03 0 3.06 0 0 Z " fill="#D35854" transform="translate(0,24)"/>
<path d="M0 0 C0.66 0 1.32 0 2 0 C2 0.66 2 1.32 2 2 C2.86625 1.835 3.7325 1.67 4.625 1.5 C10.69761822 0.60733769 16.87966132 0.92360188 23 1 C24.19287411 4.87684087 25 7.91621923 25 12 C22.69 12 20.38 12 18 12 C18 9.69 18 7.38 18 5 C19.32 5 20.64 5 22 5 C22 4.34 22 3.68 22 3 C16.39 3 10.78 3 5 3 C5 3.66 5 4.32 5 5 C2 4 2 4 0 3 C0 2.01 0 1.02 0 0 Z " fill="#D5B580" transform="translate(11,30)"/>
<path d="M0 0 C0.99 0 1.98 0 3 0 C3 2.31 3 4.62 3 7 C-4.02804699 7.85373239 -10.92278069 8.12109311 -18 8 C-17.01 6.02 -16.02 4.04 -15 2 C-14.34 2 -13.68 2 -13 2 C-12.67 2.99 -12.34 3.98 -12 5 C-11.01 5 -10.02 5 -9 5 C-8.34 3.68 -7.68 2.36 -7 1 C-6.67 1.99 -6.34 2.98 -6 4 C-4.35 3.67 -2.7 3.34 -1 3 C-0.67 2.01 -0.34 1.02 0 0 Z " fill="#372E2B" transform="translate(18,16)"/>
<path d="M0 0 C5.61 0 11.22 0 17 0 C17 0.66 17 1.32 17 2 C15.68 2 14.36 2 13 2 C13 4.31 13 6.62 13 9 C12.34 9 11.68 9 11 9 C10.67 7.35 10.34 5.7 10 4 C7.69 3.34 5.38 2.68 3 2 C3 4.64 3 7.28 3 10 C2.34 10 1.68 10 1 10 C0.67 6.7 0.34 3.4 0 0 Z " fill="#FEB30A" transform="translate(16,33)"/>
<path d="M0 0 C1.32 0 2.64 0 4 0 C4 3.96 4 7.92 4 12 C1.69 12 -0.62 12 -3 12 C-3 11.34 -3 10.68 -3 10 C-3.99 10 -4.98 10 -6 10 C-6 9.01 -6 8.02 -6 7 C-4.35 6.67 -2.7 6.34 -1 6 C-0.67 4.02 -0.34 2.04 0 0 Z " fill="#F03636" transform="translate(60,27)"/>
<path d="M0 0 C3.63 0 7.26 0 11 0 C11.33 1.98 11.66 3.96 12 6 C8.04 6 4.08 6 0 6 C0 4.02 0 2.04 0 0 Z " fill="#C5C2C2" transform="translate(8,4)"/>
<path d="M0 0 C0.33 0 0.66 0 1 0 C1 2.64 1 5.28 1 8 C5.455 7.505 5.455 7.505 10 7 C10 7.66 10 8.32 10 9 C4.39 9 -1.22 9 -7 9 C-7.66 7.02 -8.32 5.04 -9 3 C-6.03 3 -3.06 3 0 3 C0 2.01 0 1.02 0 0 Z " fill="#FBA617" transform="translate(18,44)"/>
<path d="M0 0 C1.52519276 0.08937803 3.04681929 0.24537146 4.5625 0.4375 C5.80193359 0.59025391 5.80193359 0.59025391 7.06640625 0.74609375 C7.70449219 0.82988281 8.34257812 0.91367187 9 1 C9 2.98 9 4.96 9 7 C5.7 7 2.4 7 -1 7 C-1.04254356 5.00045254 -1.04080783 2.99958364 -1 1 C-0.67 0.67 -0.34 0.34 0 0 Z " fill="#DBD8C7" transform="translate(2,36)"/>
<path d="M0 0 C0 0.99 0 1.98 0 3 C1.98 3 3.96 3 6 3 C6.33 2.01 6.66 1.02 7 0 C9.375 -0.125 9.375 -0.125 12 0 C14 2 14 2 14 6 C13.34 6 12.68 6 12 6 C12 5.01 12 4.02 12 3 C11.42475586 3.16298584 10.84951172 3.32597168 10.25683594 3.49389648 C8.04291893 3.99037528 6.15326203 4.11479744 3.890625 4.09765625 C3.13652344 4.09443359 2.38242187 4.09121094 1.60546875 4.08789062 C0.82816406 4.07951172 0.05085938 4.07113281 -0.75 4.0625 C-1.54277344 4.05798828 -2.33554687 4.05347656 -3.15234375 4.04882812 C-5.10159508 4.03708565 -7.05080738 4.01915146 -9 4 C-9 3.34 -9 2.68 -9 2 C-8.34 2 -7.68 2 -7 2 C-7 1.34 -7 0.68 -7 0 C-3.98968256 -0.93423645 -3.13349732 -1.04449911 0 0 Z " fill="#283B49" transform="translate(22,28)"/>
<path d="M0 0 C1.22589844 0.01353516 1.22589844 0.01353516 2.4765625 0.02734375 C3.41628906 0.04474609 3.41628906 0.04474609 4.375 0.0625 C5.035 1.3825 5.695 2.7025 6.375 4.0625 C5.055 4.0625 3.735 4.0625 2.375 4.0625 C2.375 3.4025 2.375 2.7425 2.375 2.0625 C1.715 2.0625 1.055 2.0625 0.375 2.0625 C0.045 3.3825 -0.285 4.7025 -0.625 6.0625 C-2.28114657 6.44468767 -3.94957024 6.77645102 -5.625 7.0625 C-6.625 6.0625 -6.625 6.0625 -6.6875 3.5 C-6.666875 2.695625 -6.64625 1.89125 -6.625 1.0625 C-4.21954362 -0.14022819 -2.67503047 -0.03821472 0 0 Z " fill="#6C7E6E" transform="translate(53.625,15.9375)"/>
<path d="M0 0 C2.5 0.25 2.5 0.25 4.5 2.25 C4.75 5.25 4.75 5.25 4.5 8.25 C3.84 8.91 3.18 9.57 2.5 10.25 C1.18 10.25 -0.14 10.25 -1.5 10.25 C-1.5 9.59 -1.5 8.93 -1.5 8.25 C-0.51 7.92 0.48 7.59 1.5 7.25 C1.5 6.26 1.5 5.27 1.5 4.25 C0.51 4.25 -0.48 4.25 -1.5 4.25 C-1.83 5.24 -2.16 6.23 -2.5 7.25 C-3.16 7.25 -3.82 7.25 -4.5 7.25 C-4.625 4.875 -4.625 4.875 -4.5 2.25 C-2.5 0.25 -2.5 0.25 0 0 Z " fill="#312F2C" transform="translate(32.5,47.75)"/>
<path d="M0 0 C2.0625 0.4375 2.0625 0.4375 4 1 C3.67 2.32 3.34 3.64 3 5 C-1.0527516 5.98248524 -4.83861737 6.08159574 -9 6 C-8.67 4.68 -8.34 3.36 -8 2 C-6.865625 1.855625 -5.73125 1.71125 -4.5625 1.5625 C-1.19222799 1.38828522 -1.19222799 1.38828522 0 0 Z " fill="#786C68" transform="translate(59,41)"/>
<path d="M0 0 C5.61 0 11.22 0 17 0 C16.67 0.99 16.34 1.98 16 3 C10.72 3 5.44 3 0 3 C0 2.01 0 1.02 0 0 Z " fill="#D5D2CD" transform="translate(43,48)"/>
<path d="M0 0 C1.98 0 3.96 0 6 0 C6 2.64 6 5.28 6 8 C4.02 8 2.04 8 0 8 C0 5.36 0 2.72 0 0 Z " fill="#DCE3DA" transform="translate(20,44)"/>
<path d="M0 0 C1.98 0 3.96 0 6 0 C6 0.66 6 1.32 6 2 C7.65 2.33 9.3 2.66 11 3 C11 3.66 11 4.32 11 5 C7.37 5.33 3.74 5.66 0 6 C0 4.02 0 2.04 0 0 Z " fill="#524945" transform="translate(0,27)"/>
<path d="M0 0 C1.98 0 3.96 0 6 0 C6.33 1.98 6.66 3.96 7 6 C4.69 6 2.38 6 0 6 C0 4.02 0 2.04 0 0 Z " fill="#DAE0D8" transform="translate(29,36)"/>
<path d="M0 0 C0.99 0 1.98 0 3 0 C3.66 2.97 4.32 5.94 5 9 C3.68 9.33 2.36 9.66 1 10 C-0.83691257 6.21812119 -1.15837626 4.05431692 0 0 Z " fill="#E9B769" transform="translate(37,43)"/>
<path d="M0 0 C1.98 0 3.96 0 6 0 C6.33 1.98 6.66 3.96 7 6 C4.69 6 2.38 6 0 6 C0 4.02 0 2.04 0 0 Z " fill="#BDE5DB" transform="translate(43,4)"/>
<path d="M0 0 C4.95 0 9.9 0 15 0 C15 0.66 15 1.32 15 2 C13.865625 2.12375 12.73125 2.2475 11.5625 2.375 C9.7990625 2.684375 9.7990625 2.684375 8 3 C7.67 3.66 7.34 4.32 7 5 C4.0625 4.1875 4.0625 4.1875 1 3 C0.67 2.01 0.34 1.02 0 0 Z " fill="#BC8421" transform="translate(2,45)"/>
<path d="M0 0 C0.86625 0.3403125 0.86625 0.3403125 1.75 0.6875 C1.42 2.0075 1.09 3.3275 0.75 4.6875 C-0.24 4.6875 -1.23 4.6875 -2.25 4.6875 C-2.25 5.3475 -2.25 6.0075 -2.25 6.6875 C-3.57 7.0175 -4.89 7.3475 -6.25 7.6875 C-6.5 5.375 -6.5 5.375 -6.25 2.6875 C-4.11319077 0.39806154 -3.15626895 -0.43837069 0 0 Z " fill="#797573" transform="translate(47.25,41.3125)"/>
<path d="M0 0 C0.99 0 1.98 0 3 0 C3 2.31 3 4.62 3 7 C-0.3 7 -3.6 7 -7 7 C-6.67 6.01 -6.34 5.02 -6 4 C-4.35 3.67 -2.7 3.34 -1 3 C-0.67 2.01 -0.34 1.02 0 0 Z " fill="#464241" transform="translate(18,16)"/>
<path d="M0 0 C2.00720923 0.28674418 4.0085944 0.61866701 6 1 C5.67 1.99 5.34 2.98 5 4 C3.68 4 2.36 4 1 4 C0.01 5.485 0.01 5.485 -1 7 C-1.33 6.34 -1.66 5.68 -2 5 C-3.65 5 -5.3 5 -7 5 C-7 4.34 -7 3.68 -7 3 C-5.5459375 2.5359375 -5.5459375 2.5359375 -4.0625 2.0625 C-1.15934208 1.30476658 -1.15934208 1.30476658 0 0 Z " fill="#CA2323" transform="translate(58,38)"/>
<path d="M0 0 C4.95 0 9.9 0 15 0 C15 0.99 15 1.98 15 3 C10.05 2.67 5.1 2.34 0 2 C0 1.34 0 0.68 0 0 Z " fill="#D9CCC7" transform="translate(49,24)"/>
<path d="M0 0 C0.66 0 1.32 0 2 0 C2.33 1.65 2.66 3.3 3 5 C3.33 4.67 3.66 4.34 4 4 C5.66617115 3.95936168 7.33388095 3.957279 9 4 C8.1028125 4.37125 8.1028125 4.37125 7.1875 4.75 C3.31695548 6.96173972 1.96862477 10.06275046 0 14 C0 9.38 0 4.76 0 0 Z " fill="#C03027" transform="translate(40,34)"/>
<path d="M0 0 C2.97 0.33 5.94 0.66 9 1 C9 1.33 9 1.66 9 2 C7.35 2.33 5.7 2.66 4 3 C4 3.99 4 4.98 4 6 C2.02 6.66 0.04 7.32 -2 8 C-2 6.02 -2 4.04 -2 2 C-1.34 2 -0.68 2 0 2 C0 1.34 0 0.68 0 0 Z " fill="#EC4545" transform="translate(44,32)"/>
<path d="M0 0 C0.66 1.32 1.32 2.64 2 4 C2.99 4 3.98 4 5 4 C5.33 3.01 5.66 2.02 6 1 C6.66 1 7.32 1 8 1 C7.67 2.98 7.34 4.96 7 7 C4.36 6.67 1.72 6.34 -1 6 C-1.33 5.01 -1.66 4.02 -2 3 C-1.34 2.01 -0.68 1.02 0 0 Z " fill="#2B2C24" transform="translate(34,17)"/>
<path d="M0 0 C1.98 0 3.96 0 6 0 C6.33 1.65 6.66 3.3 7 5 C4.69 5 2.38 5 0 5 C0 3.35 0 1.7 0 0 Z " fill="#C6E7E9" transform="translate(23,17)"/>
<path d="M0 0 C0.66 0 1.32 0 2 0 C2 1.98 2 3.96 2 6 C2.66 6.33 3.32 6.66 4 7 C3.01 8.485 3.01 8.485 2 10 C1.01 9.67 0.02 9.34 -1 9 C-1.09765625 2.84765625 -1.09765625 2.84765625 -1 1 C-0.67 0.67 -0.34 0.34 0 0 Z " fill="#D71F1F" transform="translate(1,10)"/>
<path d="M0 0 C1.98 0 3.96 0 6 0 C6 1.65 6 3.3 6 5 C4.02 5 2.04 5 0 5 C0 3.35 0 1.7 0 0 Z " fill="#C1D9D9" transform="translate(47,28)"/>
<path d="M0 0 C1.65 0 3.3 0 5 0 C5 1.65 5 3.3 5 5 C3.35 5.33 1.7 5.66 0 6 C0 4.02 0 2.04 0 0 Z " fill="#D4E4DE" transform="translate(12,37)"/>
<path d="M0 0 C2.64 0.33 5.28 0.66 8 1 C8 1.99 8 2.98 8 4 C5.69 4.33 3.38 4.66 1 5 C0.67 3.35 0.34 1.7 0 0 Z " fill="#A6A49F" transform="translate(34,23)"/>
<path d="M0 0 C1.65 0 3.3 0 5 0 C5.33 0.66 5.66 1.32 6 2 C5.0625 4.125 5.0625 4.125 4 6 C2.68 5.67 1.36 5.34 0 5 C0 3.35 0 1.7 0 0 Z " fill="#817C7E" transform="translate(35,16)"/>
<path d="M0 0 C1.2065625 0.0309375 1.2065625 0.0309375 2.4375 0.0625 C2.4375 1.7125 2.4375 3.3625 2.4375 5.0625 C1.1175 5.3925 -0.2025 5.7225 -1.5625 6.0625 C-2.2225 4.4125 -2.8825 2.7625 -3.5625 1.0625 C-2.5625 0.0625 -2.5625 0.0625 0 0 Z " fill="#7C7F7E" transform="translate(7.5625,15.9375)"/>
<path d="M0 0 C0.33 0.66 0.66 1.32 1 2 C2.32 1.67 3.64 1.34 5 1 C5.33 2.98 5.66 4.96 6 7 C4.68 7 3.36 7 2 7 C1.7525 6.38125 1.505 5.7625 1.25 5.125 C-0.20628639 2.64931313 -1.37812506 2.04874998 -4 1 C-2.68 0.67 -1.36 0.34 0 0 Z " fill="#718EAB" transform="translate(34,26)"/>
<path d="M0 0 C0 0.99 0 1.98 0 3 C-4.455 3.495 -4.455 3.495 -9 4 C-9 3.34 -9 2.68 -9 2 C-8.34 2 -7.68 2 -7 2 C-7 1.34 -7 0.68 -7 0 C-3.98968256 -0.93423645 -3.13349732 -1.04449911 0 0 Z " fill="#9C3E46" transform="translate(22,28)"/>
<path d="M0 0 C2.64 0.33 5.28 0.66 8 1 C8 1.33 8 1.66 8 2 C6.02 2 4.04 2 2 2 C2 3.98 2 5.96 2 8 C1.01 8 0.02 8 -1 8 C-0.67 5.36 -0.34 2.72 0 0 Z " fill="#DE1616" transform="translate(6,2)"/>
<path d="M0 0 C-0.66 1.65 -1.32 3.3 -2 5 C-2.66 5 -3.32 5 -4 5 C-4 4.34 -4 3.68 -4 3 C-5.32 3.33 -6.64 3.66 -8 4 C-8 3.01 -8 2.02 -8 1 C-4.93251126 -0.86240388 -3.40254489 -1.2151946 0 0 Z " fill="#D1A82B" transform="translate(45,1)"/>
<path d="M0 0 C4.875 0.875 4.875 0.875 6 2 C6.04080783 3.99958364 6.04254356 6.00045254 6 8 C1.125 3.375 1.125 3.375 0 0 Z " fill="#3E3833" transform="translate(4,48)"/>
<path d="M0 0 C2.97 0 5.94 0 9 0 C9 0.99 9 1.98 9 3 C6.69 2.67 4.38 2.34 2 2 C2 3.65 2 5.3 2 7 C0.5393715 4.35261084 0 3.10551666 0 0 Z " fill="#5683B7" transform="translate(21,15)"/>
<path d="M0 0 C1.32 0 2.64 0 4 0 C4 2.31 4 4.62 4 7 C3.01 7 2.02 7 1 7 C0.67 4.69 0.34 2.38 0 0 Z " fill="#5D4944" transform="translate(60,27)"/>
<path d="M0 0 C1.32 0 2.64 0 4 0 C4 1.98 4 3.96 4 6 C2.68 6 1.36 6 0 6 C0 4.02 0 2.04 0 0 Z " fill="#D1ECEA" transform="translate(7,37)"/>
<path d="M0 0 C1.32 0 2.64 0 4 0 C4.33 1.65 4.66 3.3 5 5 C3.35 5 1.7 5 0 5 C0 3.35 0 1.7 0 0 Z " fill="#BFE1E1" transform="translate(54,28)"/>
<path d="M0 0 C1.32 0 2.64 0 4 0 C4.33 1.65 4.66 3.3 5 5 C3.35 5 1.7 5 0 5 C0 3.35 0 1.7 0 0 Z " fill="#BFDDDD" transform="translate(15,5)"/>
<path d="M0 0 C1.99954746 -0.04254356 4.00041636 -0.04080783 6 0 C7 1 7 1 7.0625 4.5625 C7.041875 5.696875 7.02125 6.83125 7 8 C5 5 5 5 5 2 C3.35 2 1.7 2 0 2 C0 1.34 0 0.68 0 0 Z " fill="#16BA40" transform="translate(44,2)"/>
<path d="M0 0 C0.66 0.99 1.32 1.98 2 3 C0.6875 4.5 0.6875 4.5 -1 6 C-1.99 6 -2.98 6 -4 6 C-4.33 4.68 -4.66 3.36 -5 2 C-3.35 2 -1.7 2 0 2 C0 1.34 0 0.68 0 0 Z " fill="#635B55" transform="translate(26,4)"/>
<path d="M0 0 C1.65 0.33 3.3 0.66 5 1 C5 1.99 5 2.98 5 4 C2.69 4 0.38 4 -2 4 C-1.34 2.68 -0.68 1.36 0 0 Z " fill="#746446" transform="translate(36,6)"/>
<path d="M0 0 C1.98 0.495 1.98 0.495 4 1 C4 1.99 4 2.98 4 4 C2.35 4 0.7 4 -1 4 C-0.67 2.68 -0.34 1.36 0 0 Z " fill="#CDCCCC" transform="translate(31,51)"/>
<path d="M0 0 C1.98 0 3.96 0 6 0 C6 0.99 6 1.98 6 3 C4.02 3 2.04 3 0 3 C0 2.01 0 1.02 0 0 Z " fill="#D6D2CD" transform="translate(0,24)"/>
<path d="M0 0 C1.2065625 0.0309375 1.2065625 0.0309375 2.4375 0.0625 C2.1075 1.0525 1.7775 2.0425 1.4375 3.0625 C0.1175 3.0625 -1.2025 3.0625 -2.5625 3.0625 C-3.2225 4.0525 -3.8825 5.0425 -4.5625 6.0625 C-3.48963568 0.08511307 -3.48963568 0.08511307 0 0 Z " fill="#2C2726" transform="translate(61.5625,38.9375)"/>
<path d="M0 0 C0.99 0 1.98 0 3 0 C3 1.98 3 3.96 3 6 C2.01 5.67 1.02 5.34 0 5 C0 3.35 0 1.7 0 0 Z " fill="#D7E6E1" transform="translate(23,37)"/>
<path d="M0 0 C1.32 0 2.64 0 4 0 C3.67 1.65 3.34 3.3 3 5 C2.01 5 1.02 5 0 5 C0 3.35 0 1.7 0 0 Z " fill="#C0E7E6" transform="translate(29,36)"/>
<path d="M0 0 C1.32 0.33 2.64 0.66 4 1 C3.01 2.32 2.02 3.64 1 5 C-0.32 4.34 -1.64 3.68 -3 3 C-2.34 3 -1.68 3 -1 3 C-0.67 2.01 -0.34 1.02 0 0 Z " fill="#BF708A" transform="translate(14,25)"/>
<path d="M0 0 C0.66 0.33 1.32 0.66 2 1 C1.34 3.31 0.68 5.62 0 8 C-0.99 7.34 -1.98 6.68 -3 6 C-2.34 6 -1.68 6 -1 6 C-1.0309375 4.7934375 -1.0309375 4.7934375 -1.0625 3.5625 C-1 1 -1 1 0 0 Z " fill="#1CB343" transform="translate(34,10)"/>
</svg>
